<?xml version="1.0" encoding="UTF-8"?>
<svg xmlns="http://www.w3.org/2000/svg" xmlns:xlink="http://www.w3.org/1999/xlink" version="1.1" id="Ebene_1" x="0px" y="0px" viewBox="0 0 460 460" style="enable-background:new 0 0 460 460;" xml:space="preserve">
<style type="text/css">
	.st0{fill:#FFFFFF;}
	.st1{clip-path:url(#SVGID_00000003080728431364142680000006928519577555715006_);fill:#B2B2B2;}
	.st2{clip-path:url(#SVGID_00000003080728431364142680000006928519577555715006_);fill:#C8C8C8;}
	.st3{clip-path:url(#SVGID_00000003080728431364142680000006928519577555715006_);fill:#FFFFFF;}
	.st4{clip-path:url(#SVGID_00000073683839052841239440000001736756765685445309_);fill:#FFFFFF;}
	.st5{clip-path:url(#SVGID_00000024690068419487778260000002616794104894681245_);fill:#FFFFFF;}
	.st6{clip-path:url(#SVGID_00000024690068419487778260000002616794104894681245_);fill:#B2B2B2;}
</style>
<rect y="0" class="st0" width="460" height="460"></rect>
<g>
	<defs>
		<rect id="SVGID_1_" x="40.8" y="40.9" width="378.4" height="378.3"></rect>
	</defs>
	<clipPath id="SVGID_00000007422203050508187660000008221341685930007738_">
		<use xlink:href="#SVGID_1_" style="overflow:visible;"></use>
	</clipPath>
	<path style="clip-path:url(#SVGID_00000007422203050508187660000008221341685930007738_);fill:#B2B2B2;" d="M289.5,216.5   c1,4.3,1.5,8.8,1.5,13.4c0,18.2-8,34.6-20.7,45.8l75.5,103.9c44.7-34.6,73.5-88.8,73.5-149.7c0-18.5-2.7-36.3-7.6-53.1L289.5,216.5   z"></path>
	<path style="clip-path:url(#SVGID_00000007422203050508187660000008221341685930007738_);fill:#B2B2B2;" d="M261.1,282.3   c-9.1,5.4-19.8,8.5-31.1,8.5c-11.4,0-22-3.1-31.1-8.5l-75.5,103.9c30.4,20.8,67.1,32.9,106.6,32.9c39.6,0,76.3-12.1,106.6-32.9   L261.1,282.3z"></path>
	<path style="clip-path:url(#SVGID_00000007422203050508187660000008221341685930007738_);fill:#B2B2B2;" d="M189.8,275.7   c-12.7-11.2-20.7-27.5-20.7-45.8c0-4.6,0.5-9.1,1.5-13.4L48.4,176.8c-4.9,16.9-7.6,34.7-7.6,53.1c0,60.9,28.8,115.1,73.5,149.7   L189.8,275.7z"></path>
	<path style="clip-path:url(#SVGID_00000007422203050508187660000008221341685930007738_);fill:#B2B2B2;" d="M174,205.8   c8.6-20,27.7-34.5,50.4-36.6V40.8C144.7,43.2,77.5,94.7,51.9,166.1L174,205.8z"></path>
	<path style="clip-path:url(#SVGID_00000007422203050508187660000008221341685930007738_);fill:#B2B2B2;" d="M235.6,169.2   c22.7,2.1,41.7,16.6,50.4,36.6l122.1-39.7C382.5,94.7,315.3,43.2,235.6,40.8V169.2z"></path>
	<path style="clip-path:url(#SVGID_00000007422203050508187660000008221341685930007738_);fill:#C8C8C8;" d="M307.4,210.7l-17.9,5.8   c1,4.3,1.5,8.8,1.5,13.4c0,18.2-8,34.6-20.7,45.8l11.1,15.3c17.4-14.6,28.4-36.5,28.4-61C309.7,223.3,308.9,216.9,307.4,210.7"></path>
	<path style="clip-path:url(#SVGID_00000007422203050508187660000008221341685930007738_);fill:#C8C8C8;" d="M235.6,150.4v18.8   c22.7,2.1,41.7,16.6,50.4,36.6l17.9-5.8C292.7,172.5,266.6,152.6,235.6,150.4"></path>
	<path style="clip-path:url(#SVGID_00000007422203050508187660000008221341685930007738_);fill:#C8C8C8;" d="M156.1,200l17.9,5.8   c8.6-20,27.7-34.5,50.4-36.6v-18.8C193.4,152.6,167.3,172.5,156.1,200"></path>
	<path style="clip-path:url(#SVGID_00000007422203050508187660000008221341685930007738_);fill:#C8C8C8;" d="M169,229.9   c0-4.6,0.5-9.1,1.5-13.4l-17.9-5.8c-1.5,6.2-2.4,12.6-2.4,19.3c0,24.5,11,46.4,28.4,61l11.1-15.3C177.1,264.5,169,248.1,169,229.9"></path>
	<path style="clip-path:url(#SVGID_00000007422203050508187660000008221341685930007738_);fill:#C8C8C8;" d="M230,309.7   c15.5,0,30-4.4,42.2-12.1l-11.1-15.3c-9.1,5.4-19.8,8.5-31.1,8.5c-11.4,0-22-3.1-31.1-8.5l-11.1,15.3   C200,305.2,214.5,309.7,230,309.7"></path>
	<path style="clip-path:url(#SVGID_00000007422203050508187660000008221341685930007738_);fill:#FFFFFF;" d="M149,98.3   c-0.3-0.1-2.9-0.8-3.6-0.9l-0.5-0.9c0.5-0.5,0.8-1.1,1.1-1.7c0.2-0.1,0.5-0.4,0.6-0.8c0.2-0.5,0.1-1-0.2-1.1c0.1-2.1-1-3.9-3.4-3.9   c-2.4,0-3.5,1.9-3.4,3.9c-0.3,0.1-0.4,0.6-0.2,1.1c0.1,0.4,0.4,0.7,0.6,0.8c0.3,0.6,0.6,1.2,1.1,1.7l-0.5,0.9   c-0.5,0.1-3.3,0.8-3.6,0.9c-0.9,0.4-1.5,1.3-1.5,2.3v11.9c0,0.6,0.7,1,1.6,1c0.3,0,0.5,0,0.8-0.1l1.9,17.6h6.5l1.9-17.6   c0.2,0.1,0.5,0.1,0.8,0.1c0.9,0,1.6-0.5,1.6-1v-11.9C150.5,99.6,149.9,98.7,149,98.3"></path>
	<path style="clip-path:url(#SVGID_00000007422203050508187660000008221341685930007738_);fill:#FFFFFF;" d="M158.1,100.6   c-0.2-0.1-2.4-0.6-2.9-0.8l-0.4-0.7c0.4-0.4,0.7-0.9,0.9-1.4c0.2-0.1,0.4-0.3,0.5-0.7c0.1-0.4,0.1-0.8-0.2-0.9   c0.1-1.7-0.8-3.3-2.8-3.3c-2,0-2.9,1.5-2.8,3.1c1.7,0.9,2.9,2.6,2.9,4.7v12v0c0,0.7-0.2,1.3-0.6,1.7c-0.3,0.5-0.7,0.9-1.1,1.1   c-0.3,0.2-0.6,0.3-0.9,0.4l-0.6,5.8c0.3,3.4,0.4,5.9,0.4,5.9h5.1l1.9-14.6c0.2,0.1,0.4,0.1,0.6,0.1c0.7,0,1.3-0.4,1.3-0.9v-9.8   C159.3,101.7,158.8,100.9,158.1,100.6"></path>
	<path style="clip-path:url(#SVGID_00000007422203050508187660000008221341685930007738_);fill:#FFFFFF;" d="M135.3,116   c-0.1,0-0.2-0.1-0.3-0.1c-0.6-0.3-1.3-0.7-1.7-1.5c-0.3-0.5-0.5-1.2-0.5-1.9v0v-11.8c0-2.1,1.2-3.8,2.9-4.7   c0.1-1.7-0.8-3.1-2.8-3.1c-2,0-2.9,1.6-2.8,3.3c-0.2,0.1-0.3,0.5-0.1,0.9c0.1,0.3,0.3,0.6,0.5,0.7c0.2,0.5,0.5,1,0.9,1.4l-0.4,0.7   c-0.4,0.1-2.7,0.7-3,0.8c-0.7,0.3-1.3,1.1-1.3,1.9v9.8c0,0.5,0.6,0.9,1.3,0.9c0.3,0,0.4,0,0.6-0.1l1.6,14.6h5.4c0,0,0.2-2.6,0.4-6   L135.3,116z"></path>
	<path style="clip-path:url(#SVGID_00000007422203050508187660000008221341685930007738_);fill:#FFFFFF;" d="M159.4,146.7v-0.3   c0-0.9,0.6-1.4,1.6-1.4c1.1,0,1.6,0.5,1.6,1.4v0.3H159.4z M160.9,151.2c1.6,0,2.5-0.5,3-1.3c0.2-0.3,0.2-0.5-0.2-0.7l-0.5-0.3   c-0.3-0.2-0.5-0.1-0.7,0.2c-0.3,0.5-0.8,0.7-1.6,0.7c-1,0-1.6-0.5-1.6-1.4v-0.5h4.2c0.5,0,0.6-0.2,0.6-0.6v-0.8   c0-1.6-1-2.9-3.2-2.9c-2.1,0-3.2,1.1-3.2,3v1.6C157.8,149.9,158.7,151.2,160.9,151.2 M153,149.7c-0.5,0-1-0.1-1.3-0.2v-4.1   c0-0.1,0-0.1,0.1-0.2c0.3-0.1,0.8-0.2,1.3-0.2c1,0,1.5,0.5,1.5,1.4v1.8C154.6,149.3,154.1,149.7,153,149.7 M150.5,154.1h0.8   c0.3,0,0.4-0.1,0.4-0.4V151c0.4,0.1,0.9,0.2,1.4,0.2c2.1,0,3.1-1,3.1-2.9v-1.9c0-1.8-0.9-2.8-2.9-2.8c-1.3,0-2.1,0.2-2.7,0.4   c-0.4,0.2-0.5,0.3-0.5,0.8v8.8C150,153.9,150.1,154.1,150.5,154.1 M146.9,151h0.8c0.3,0,0.4-0.1,0.4-0.4v-6.4   c0-0.3-0.1-0.4-0.4-0.4h-0.8c-0.3,0-0.4,0.1-0.4,0.4v6.4C146.4,150.9,146.5,151,146.9,151 M147.2,142.6h0.1c0.6,0,0.8-0.2,0.8-0.8   v-0.1c0-0.6-0.2-0.8-0.8-0.8h-0.1c-0.6,0-0.8,0.2-0.8,0.8v0.1C146.4,142.4,146.5,142.6,147.2,142.6 M141.2,151.2   c1.3,0,2.2-0.3,2.7-0.5c0.4-0.2,0.5-0.3,0.5-0.8v-5.7c0-0.3-0.1-0.4-0.4-0.4h-0.8c-0.3,0-0.4,0.1-0.4,0.4v5.1c0,0.1,0,0.2-0.2,0.2   c-0.4,0.1-0.7,0.2-1.3,0.2c-1,0-1.5-0.4-1.5-1.4v-4.1c0-0.3-0.1-0.4-0.4-0.4h-0.8c-0.3,0-0.4,0.1-0.4,0.4v4.2   C138.3,150.2,139.2,151.2,141.2,151.2 M133.3,149.7c-1,0-1.5-0.5-1.5-1.4v-1.8c0-1,0.5-1.5,1.7-1.5c0.5,0,0.8,0.1,1.2,0.2   c0.1,0,0.1,0.1,0.1,0.2v4.1C134.4,149.6,133.9,149.7,133.3,149.7 M135.2,154.1h0.8c0.3,0,0.4-0.1,0.4-0.4v-8.8   c0-0.4-0.1-0.6-0.5-0.8c-0.5-0.2-1.4-0.4-2.5-0.4c-2.1,0-3.1,1-3.1,2.9v1.9c0,1.8,0.9,2.8,2.9,2.8c0.7,0,1.3-0.2,1.7-0.3v2.7   C134.7,153.9,134.8,154.1,135.2,154.1 M122.7,151h5.7c0.3,0,0.5-0.1,0.5-0.5v-0.7c0-0.3-0.1-0.5-0.5-0.5h-4.4v-2.6h3.6   c0.4,0,0.5-0.1,0.5-0.5v-0.7c0-0.3-0.1-0.5-0.5-0.5h-3.6v-2.4h4.3c0.3,0,0.5-0.1,0.5-0.5v-0.7c0-0.3-0.1-0.5-0.5-0.5h-5.5   c-0.4,0-0.5,0.1-0.5,0.5v8.9C122.2,150.9,122.3,151,122.7,151"></path>
	<path style="clip-path:url(#SVGID_00000007422203050508187660000008221341685930007738_);fill:#FFFFFF;" d="M239,352.2   c-1.6,1.9-3.1,3.7-4.7,5.6c-1.8,2.2-3.7,4.4-5.5,6.6c0,0-0.1,0.1-0.2,0.2c-1.4-1.5-2.7-3-4-4.6c-0.6-0.7-1.2-1.4-1.9-2.1   c-0.6-0.7-0.6-1.6,0-2.2c0.7-0.6,1.6-0.5,2.2,0.2c1,1.2,2.1,2.3,3.1,3.5c0.1,0.1,0.3,0.3,0.4,0.5c0.5-0.6,1.1-1.2,1.5-1.8   c2.2-2.6,4.4-5.3,6.7-8c0.7-0.9,2-0.8,2.6,0.2C239.6,351,239.5,351.6,239,352.2 M240.7,345.9c-5.9,0-11.8,0-17.7,0l0-5.2   c0-3.6,2.9-6.5,6.5-6.5c3.6,0,6.5,2.9,6.5,6.5l0,0.8c0.4,0.7,1.1,1.1,1.9,1.1c1.2,0,1.8-1,1.8-1.1c0-0.8,0,0,0-0.8   c0-5.6-4.6-10.2-10.2-10.2c-5.6,0-10.2,4.6-10.2,10.2l0,5.2h-0.4c-1.9,0-3.5,1.6-3.5,3.5v15.4c0,1.9,1.6,3.5,3.5,3.5l21.8,0   c1.9,0,3.5-1.6,3.5-3.5v-15.4C244.2,347.5,242.7,345.9,240.7,345.9"></path>
	<path style="clip-path:url(#SVGID_00000007422203050508187660000008221341685930007738_);fill:#FFFFFF;" d="M269.8,384.2v-0.3   c0-0.9,0.6-1.4,1.6-1.4c1.1,0,1.6,0.5,1.6,1.4v0.3H269.8z M271.4,388.7c1.6,0,2.5-0.5,3-1.3c0.2-0.3,0.2-0.5-0.2-0.7l-0.5-0.3   c-0.3-0.2-0.5-0.1-0.7,0.2c-0.3,0.5-0.8,0.7-1.6,0.7c-1,0-1.6-0.5-1.6-1.4v-0.5h4.2c0.5,0,0.6-0.2,0.6-0.6V384c0-1.6-1-2.9-3.2-2.9   c-2.1,0-3.2,1.1-3.2,3v1.6C268.2,387.4,269.1,388.7,271.4,388.7 M263.7,388.7c1.7,0,2.6-0.7,3.1-1.8c0.1-0.3,0-0.5-0.3-0.6   l-0.6-0.2c-0.3-0.1-0.5-0.1-0.6,0.3c-0.2,0.6-0.7,1-1.5,1c-1,0-1.5-0.5-1.5-1.4v-2.1c0-0.9,0.5-1.4,1.5-1.4c0.8,0,1.3,0.3,1.5,0.9   c0.1,0.3,0.3,0.4,0.6,0.3l0.6-0.2c0.3-0.1,0.4-0.3,0.3-0.6c-0.3-1-1.3-1.8-3-1.8c-2.2,0-3.2,1.1-3.2,2.8v1.9   C260.6,387.6,261.6,388.7,263.7,388.7 M253.1,388.5h0.8c0.3,0,0.4-0.1,0.4-0.4v-5.2c0-0.1,0-0.1,0.1-0.1c0.4-0.1,0.8-0.2,1.3-0.2   c1,0,1.5,0.4,1.5,1.4v4.1c0,0.3,0.1,0.4,0.4,0.4h0.8c0.3,0,0.4-0.1,0.4-0.4v-4.2c0-1.8-0.9-2.8-2.9-2.8c-1.3,0-2.2,0.2-2.7,0.5   c-0.4,0.2-0.5,0.3-0.5,0.8v5.7C252.7,388.4,252.8,388.5,253.1,388.5 M247.7,387.4c-1.1,0-1.3-0.4-1.3-0.9c0-0.6,0.3-0.9,1.3-0.9   c0.5,0,1.2,0.1,1.5,0.1v1.5c0,0.1,0,0.2-0.2,0.2C248.8,387.3,248.4,387.4,247.7,387.4 M247.8,388.7c1.1,0,2-0.1,2.5-0.4   c0.4-0.2,0.5-0.3,0.5-0.8v-3.6c0-1.6-0.7-2.9-3-2.9c-1.5,0-2.4,0.5-2.9,1.4c-0.2,0.3-0.1,0.5,0.2,0.6l0.6,0.2   c0.3,0.1,0.4,0.1,0.6-0.2c0.3-0.4,0.8-0.7,1.5-0.7c1.1,0,1.4,0.5,1.4,1.4v0.4c-0.2,0-0.8-0.1-1.3-0.1c-2.2,0-3.1,0.5-3.1,2.2   C244.7,387.9,245.4,388.7,247.8,388.7 M240.1,387.2c-1,0-1.6-0.5-1.6-1.4V384c0-1,0.5-1.5,1.6-1.5c0.5,0,1,0.1,1.3,0.2v4.2   c0,0.1,0,0.1-0.1,0.2C241,387.2,240.6,387.2,240.1,387.2 M240,388.7c1.3,0,2.1-0.2,2.6-0.4c0.4-0.2,0.5-0.3,0.5-0.8v-8.9   c0-0.3-0.1-0.4-0.4-0.4h-0.8c-0.3,0-0.4,0.1-0.4,0.4v2.6c-0.4-0.1-1-0.2-1.7-0.2c-1.9,0-2.9,1-2.9,2.9v1.9   C236.9,387.7,237.9,388.7,240,388.7 M229.5,388.5h0.8c0.3,0,0.4-0.1,0.4-0.4v-5.2c0-0.1,0-0.1,0.1-0.1c0.4-0.1,0.8-0.2,1.3-0.2   c1,0,1.5,0.4,1.5,1.4v4.1c0,0.3,0.1,0.4,0.4,0.4h0.8c0.3,0,0.4-0.1,0.4-0.4v-4.2c0-1.8-0.9-2.8-2.9-2.8c-1.3,0-2.2,0.2-2.7,0.5   c-0.4,0.2-0.5,0.3-0.5,0.8v5.7C229,388.4,229.1,388.5,229.5,388.5 M222.5,384.2v-0.3c0-0.9,0.6-1.4,1.6-1.4c1.1,0,1.6,0.5,1.6,1.4   v0.3H222.5z M224.1,388.7c1.6,0,2.5-0.5,3-1.3c0.2-0.3,0.2-0.5-0.2-0.7l-0.5-0.3c-0.3-0.2-0.5-0.1-0.7,0.2   c-0.3,0.5-0.8,0.7-1.6,0.7c-1,0-1.6-0.5-1.6-1.4v-0.5h4.2c0.5,0,0.6-0.2,0.6-0.6V384c0-1.6-1-2.9-3.2-2.9c-2.1,0-3.2,1.1-3.2,3v1.6   C220.9,387.4,221.8,388.7,224.1,388.7 M216.2,387.2c-0.5,0-1-0.1-1.3-0.2v-4.1c0-0.1,0-0.1,0.1-0.2c0.3-0.1,0.8-0.2,1.3-0.2   c1,0,1.5,0.5,1.5,1.4v1.8C217.8,386.7,217.3,387.2,216.2,387.2 M213.6,391.5h0.8c0.3,0,0.4-0.1,0.4-0.4v-2.7   c0.4,0.1,0.9,0.2,1.4,0.2c2.1,0,3.1-1,3.1-2.9v-1.9c0-1.8-0.9-2.8-2.9-2.8c-1.3,0-2.1,0.2-2.7,0.4c-0.4,0.2-0.5,0.3-0.5,0.8v8.8   C213.2,391.4,213.3,391.5,213.6,391.5 M206.7,384.2v-0.3c0-0.9,0.6-1.4,1.6-1.4c1.1,0,1.6,0.5,1.6,1.4v0.3H206.7z M208.3,388.7   c1.6,0,2.5-0.5,3-1.3c0.2-0.3,0.2-0.5-0.2-0.7l-0.5-0.3c-0.3-0.2-0.5-0.1-0.7,0.2c-0.3,0.5-0.8,0.7-1.6,0.7c-1,0-1.6-0.5-1.6-1.4   v-0.5h4.2c0.5,0,0.6-0.2,0.6-0.6V384c0-1.6-1-2.9-3.2-2.9c-2.1,0-3.2,1.1-3.2,3v1.6C205.1,387.4,206,388.7,208.3,388.7    M207.5,380.3l2.4-1c0.3-0.1,0.3-0.2,0.1-0.5l-0.3-0.4c-0.2-0.3-0.5-0.2-0.8,0l-2,1.2c-0.2,0.1-0.2,0.2,0,0.5l0.2,0.3   C207,380.4,207.2,380.4,207.5,380.3 M200.4,387.2c-1,0-1.6-0.5-1.6-1.4V384c0-1,0.5-1.5,1.6-1.5c0.5,0,1,0.1,1.3,0.2v4.2   c0,0.1,0,0.1-0.1,0.2C201.3,387.2,200.9,387.2,200.4,387.2 M200.2,388.7c1.3,0,2.1-0.2,2.6-0.4c0.4-0.2,0.5-0.3,0.5-0.8v-8.9   c0-0.3-0.1-0.4-0.4-0.4h-0.8c-0.3,0-0.4,0.1-0.4,0.4v2.6c-0.4-0.1-1-0.2-1.7-0.2c-1.9,0-2.9,1-2.9,2.9v1.9   C197.2,387.7,198.1,388.7,200.2,388.7 M189.7,388.5h0.8c0.3,0,0.4-0.1,0.4-0.4v-5.2c0-0.1,0-0.1,0.1-0.1c0.4-0.1,0.8-0.2,1.3-0.2   c1,0,1.5,0.4,1.5,1.4v4.1c0,0.3,0.1,0.4,0.4,0.4h0.8c0.3,0,0.4-0.1,0.4-0.4v-4.2c0-1.8-0.9-2.8-2.9-2.8c-1.3,0-2.2,0.2-2.7,0.5   c-0.4,0.2-0.5,0.3-0.5,0.8v5.7C189.3,388.4,189.4,388.5,189.7,388.5 M185.9,388.5h0.8c0.4,0,0.5-0.1,0.5-0.5v-8.9   c0-0.3-0.1-0.5-0.5-0.5h-0.8c-0.4,0-0.5,0.1-0.5,0.5v8.9C185.4,388.4,185.6,388.5,185.9,388.5"></path>
</g>
<polygon class="st0" points="367.5,258.7 367.5,235.3 359.7,235.3 359.7,258.7 356,258.7 356,243.2 348.2,243.2 348.2,258.7   344.5,258.7 344.5,247.9 336.7,247.9 336.7,258.7 332,258.7 332,262.7 372.2,262.7 372.2,258.7 "></polygon>
<polygon class="st0" points="336.3,245.8 352.8,234.6 355.4,238.6 358.1,227.6 347.4,226.1 350.2,230.5 335.1,244.6 "></polygon>
<g>
	<defs>
		<rect id="SVGID_00000011010681520999924930000005491838859515150777_" x="40.8" y="40.9" width="378.4" height="378.3"></rect>
	</defs>
	<clipPath id="SVGID_00000086673697604211610820000008654647420872832429_">
		<use xlink:href="#SVGID_00000011010681520999924930000005491838859515150777_" style="overflow:visible;"></use>
	</clipPath>
	<path style="clip-path:url(#SVGID_00000086673697604211610820000008654647420872832429_);fill:#FFFFFF;" d="M393.7,299.3   c2,0,3-1,3-2.3c0-1.7-1.2-2.1-2.8-2.2c-1.1-0.1-1.6-0.2-1.6-0.9c0-0.5,0.4-0.8,1.3-0.8c0.9,0,1.3,0.3,1.5,0.7   c0.2,0.3,0.3,0.3,0.6,0.2l0.6-0.3c0.3-0.1,0.4-0.3,0.2-0.6c-0.5-0.9-1.4-1.5-3-1.5c-1.9,0-2.9,0.9-2.9,2.2c0,1.8,1.4,2.1,2.8,2.2   c1.1,0.1,1.7,0.2,1.7,0.9c0,0.5-0.5,0.8-1.5,0.8c-0.8,0-1.3-0.2-1.6-0.8c-0.1-0.3-0.3-0.4-0.6-0.3l-0.6,0.2   c-0.3,0.1-0.4,0.3-0.3,0.6C391,298.7,392,299.3,393.7,299.3 M384.4,294.7v-0.3c0-0.9,0.6-1.4,1.6-1.4c1.1,0,1.6,0.5,1.6,1.4v0.3   H384.4z M386,299.3c1.6,0,2.5-0.5,3-1.3c0.2-0.3,0.2-0.5-0.2-0.7l-0.5-0.3c-0.3-0.2-0.5-0.1-0.7,0.2c-0.3,0.5-0.8,0.7-1.6,0.7   c-1,0-1.6-0.5-1.6-1.4V296h4.2c0.5,0,0.6-0.2,0.6-0.6v-0.8c0-1.6-1-2.9-3.2-2.9c-2.1,0-3.2,1.1-3.2,3v1.6   C382.8,298,383.7,299.3,386,299.3 M378.3,299.3c1.7,0,2.6-0.7,3.1-1.8c0.1-0.3,0-0.5-0.3-0.6l-0.6-0.2c-0.3-0.1-0.5-0.1-0.6,0.3   c-0.2,0.6-0.7,1-1.5,1c-1,0-1.5-0.5-1.5-1.4v-2.1c0-0.9,0.5-1.4,1.5-1.4c0.8,0,1.3,0.3,1.5,0.9c0.1,0.3,0.3,0.4,0.6,0.3l0.6-0.2   c0.3-0.1,0.4-0.3,0.3-0.6c-0.3-1-1.3-1.8-3-1.8c-2.2,0-3.2,1.1-3.2,2.9v1.9C375.2,298.2,376.1,299.3,378.3,299.3 M367.7,299.1h0.8   c0.3,0,0.4-0.1,0.4-0.4v-5.2c0-0.1,0-0.1,0.1-0.1c0.4-0.1,0.8-0.2,1.3-0.2c1,0,1.5,0.4,1.5,1.4v4.1c0,0.3,0.1,0.4,0.4,0.4h0.8   c0.3,0,0.4-0.1,0.4-0.4v-4.2c0-1.8-0.9-2.8-2.9-2.8c-1.3,0-2.2,0.3-2.7,0.5c-0.4,0.2-0.5,0.3-0.5,0.8v5.7   C367.3,299,367.4,299.1,367.7,299.1 M362.3,297.9c-1.1,0-1.3-0.4-1.3-0.9c0-0.6,0.3-0.9,1.3-0.9c0.5,0,1.2,0.1,1.5,0.1v1.5   c0,0.1,0,0.2-0.2,0.2C363.4,297.9,363,297.9,362.3,297.9 M362.4,299.3c1.1,0,2-0.1,2.5-0.4c0.4-0.2,0.5-0.3,0.5-0.8v-3.6   c0-1.6-0.7-2.9-3-2.9c-1.5,0-2.4,0.5-2.9,1.4c-0.2,0.3-0.1,0.5,0.2,0.6l0.6,0.2c0.3,0.1,0.4,0.1,0.6-0.2c0.3-0.4,0.8-0.7,1.5-0.7   c1.1,0,1.4,0.5,1.4,1.4v0.4c-0.2,0-0.8-0.1-1.3-0.1c-2.2,0-3.1,0.5-3.1,2.2C359.3,298.5,359.9,299.3,362.4,299.3 M348.1,299.1h0.8   c0.3,0,0.4-0.1,0.4-0.4v-5.2c0-0.1,0-0.1,0.1-0.2c0.3-0.1,0.7-0.2,1.1-0.2c0.9,0,1.4,0.5,1.4,1.3v4.2c0,0.3,0.1,0.4,0.4,0.4h0.7   c0.3,0,0.4-0.1,0.4-0.4v-4.2c0-0.4,0-0.8-0.2-1c0.3-0.1,0.8-0.3,1.4-0.3c0.9,0,1.4,0.5,1.4,1.3v4.2c0,0.3,0.1,0.4,0.4,0.4h0.8   c0.3,0,0.4-0.1,0.4-0.4v-4.2c0-1.8-0.8-2.8-2.7-2.8c-1.2,0-2,0.3-2.5,0.5c-0.4-0.3-1-0.5-1.7-0.5c-1.2,0-2,0.3-2.5,0.5   c-0.4,0.2-0.5,0.3-0.5,0.8v5.7C347.7,299,347.8,299.1,348.1,299.1 M342.9,299.1h0.8c0.3,0,0.4-0.1,0.4-0.4v-5c0-0.1,0-0.1,0.1-0.2   c0.4-0.1,0.8-0.2,1.3-0.2h0.5c0.3,0,0.4-0.1,0.4-0.4v-0.6c0-0.3-0.1-0.4-0.4-0.4h-0.5c-1.2,0-2.1,0.2-2.6,0.4   c-0.4,0.2-0.5,0.3-0.5,0.8v5.6C342.5,299,342.5,299.1,342.9,299.1 M337.5,297.8c-1,0-1.6-0.5-1.6-1.3v-2.1c0-0.8,0.6-1.3,1.6-1.3   c1,0,1.6,0.5,1.6,1.3v2.1C339.1,297.3,338.5,297.8,337.5,297.8 M337.5,299.3c2.1,0,3.2-1.1,3.2-2.8v-2.1c0-1.7-1.1-2.8-3.2-2.8   c-2.1,0-3.2,1.1-3.2,2.8v2.1C334.3,298.2,335.4,299.3,337.5,299.3 M330.1,299.1h0.7c0.3,0,0.4-0.1,0.4-0.4v-5.3h1.6   c0.3,0,0.4-0.1,0.4-0.4v-0.6c0-0.3-0.1-0.4-0.4-0.4h-1.6v-0.1c0-1,0.4-1.4,1.6-1.4c0.3,0,0.4-0.1,0.4-0.4v-0.6   c0-0.3-0.1-0.4-0.4-0.4h-0.1c-2.1,0-3,1-3,2.9v0.1h-0.8c-0.3,0-0.4,0.1-0.4,0.4v0.6c0,0.3,0.1,0.4,0.4,0.4h0.8v5.3   C329.7,299,329.8,299.1,330.1,299.1 M324.1,299.1h0.8c0.3,0,0.4-0.1,0.4-0.4v-5c0-0.1,0-0.1,0.1-0.2c0.4-0.1,0.8-0.2,1.3-0.2h0.5   c0.3,0,0.4-0.1,0.4-0.4v-0.6c0-0.3-0.1-0.4-0.4-0.4h-0.5c-1.2,0-2.1,0.2-2.6,0.4c-0.4,0.2-0.5,0.3-0.5,0.8v5.6   C323.7,299,323.8,299.1,324.1,299.1 M317.2,294.7v-0.3c0-0.9,0.6-1.4,1.6-1.4c1.1,0,1.6,0.5,1.6,1.4v0.3H317.2z M318.8,299.3   c1.6,0,2.5-0.5,3-1.3c0.2-0.3,0.2-0.5-0.2-0.7l-0.5-0.3c-0.3-0.2-0.5-0.1-0.7,0.2c-0.3,0.5-0.8,0.7-1.6,0.7c-1,0-1.6-0.5-1.6-1.4   V296h4.2c0.5,0,0.6-0.2,0.6-0.6v-0.8c0-1.6-1-2.9-3.2-2.9c-2.1,0-3.2,1.1-3.2,3v1.6C315.6,298,316.5,299.3,318.8,299.3    M310.8,297.8c-0.5,0-1-0.1-1.3-0.2v-4.1c0-0.1,0-0.1,0.1-0.2c0.3-0.1,0.8-0.2,1.3-0.2c1,0,1.5,0.5,1.5,1.4v1.8   C312.4,297.3,311.9,297.8,310.8,297.8 M308.3,302.1h0.8c0.3,0,0.4-0.1,0.4-0.4V299c0.4,0.1,0.9,0.3,1.4,0.3c2.1,0,3.1-1,3.1-2.9   v-1.9c0-1.8-0.9-2.8-2.9-2.8c-1.3,0-2.1,0.2-2.7,0.4c-0.4,0.2-0.5,0.3-0.5,0.8v8.8C307.9,302,308,302.1,308.3,302.1"></path>
	<path style="clip-path:url(#SVGID_00000086673697604211610820000008654647420872832429_);fill:#FFFFFF;" d="M395.7,282.9   c0.3,0,0.4-0.1,0.4-0.4v-0.7c0-0.3-0.1-0.4-0.4-0.4c-1.2,0-1.6-0.2-1.6-1.6v-2.6h1.6c0.3,0,0.4-0.1,0.4-0.4v-0.6   c0-0.3-0.1-0.4-0.4-0.4h-1.6v-1.3c0-0.3-0.1-0.4-0.4-0.4h-0.8c-0.3,0-0.4,0.1-0.4,0.4v1.3h-0.9c-0.3,0-0.4,0.1-0.4,0.4v0.6   c0,0.3,0.1,0.4,0.4,0.4h0.9v2.6C392.5,282.2,393.4,282.9,395.7,282.9 M385.3,278.6v-0.3c0-0.9,0.6-1.4,1.6-1.4   c1.1,0,1.6,0.5,1.6,1.4v0.3H385.3z M386.9,283.1c1.6,0,2.5-0.5,3-1.3c0.2-0.3,0.2-0.5-0.2-0.7l-0.5-0.3c-0.3-0.2-0.5-0.1-0.7,0.2   c-0.3,0.5-0.8,0.7-1.6,0.7c-1,0-1.6-0.5-1.6-1.4v-0.5h4.2c0.5,0,0.6-0.2,0.6-0.6v-0.8c0-1.6-1-2.9-3.2-2.9c-2.1,0-3.2,1.1-3.2,3   v1.6C383.7,281.8,384.6,283.1,386.9,283.1 M374.2,278.6v-0.3c0-0.9,0.6-1.4,1.6-1.4c1.1,0,1.6,0.5,1.6,1.4v0.3H374.2z M375.8,283.1   c1.6,0,2.5-0.5,3-1.3c0.2-0.3,0.2-0.5-0.2-0.7l-0.5-0.3c-0.3-0.2-0.5-0.1-0.7,0.2c-0.3,0.5-0.8,0.7-1.6,0.7c-1,0-1.6-0.5-1.6-1.4   v-0.5h4.2c0.5,0,0.6-0.2,0.6-0.6v-0.8c0-1.6-1-2.9-3.2-2.9c-2.1,0-3.2,1.1-3.2,3v1.6C372.6,281.8,373.5,283.1,375.8,283.1    M368,283.1c1.7,0,2.6-0.7,3.1-1.8c0.1-0.3,0-0.5-0.3-0.6l-0.6-0.2c-0.3-0.1-0.5-0.1-0.6,0.3c-0.2,0.6-0.7,1-1.5,1   c-1,0-1.5-0.5-1.5-1.4v-2.1c0-0.9,0.5-1.4,1.5-1.4c0.8,0,1.3,0.3,1.5,0.9c0.1,0.3,0.3,0.4,0.6,0.3l0.6-0.2c0.3-0.1,0.4-0.3,0.3-0.6   c-0.3-1-1.3-1.8-3-1.8c-2.2,0-3.2,1.1-3.2,2.8v1.9C365,282,365.9,283.1,368,283.1 M357.5,282.9h0.8c0.3,0,0.4-0.1,0.4-0.4v-5.2   c0-0.1,0-0.1,0.1-0.1c0.4-0.1,0.8-0.2,1.3-0.2c1,0,1.5,0.4,1.5,1.4v4.1c0,0.3,0.1,0.4,0.4,0.4h0.8c0.3,0,0.4-0.1,0.4-0.4v-4.2   c0-1.8-0.9-2.8-2.9-2.8c-1.3,0-2.2,0.2-2.7,0.5c-0.4,0.2-0.5,0.3-0.5,0.8v5.7C357.1,282.8,357.2,282.9,357.5,282.9 M352,281.8   c-1.1,0-1.3-0.4-1.3-0.9c0-0.6,0.3-0.9,1.3-0.9c0.5,0,1.2,0.1,1.5,0.1v1.5c0,0.1,0,0.2-0.2,0.2C353.2,281.7,352.7,281.8,352,281.8    M352.2,283.1c1.1,0,2-0.1,2.5-0.4c0.4-0.2,0.5-0.3,0.5-0.8v-3.6c0-1.6-0.7-2.9-3-2.9c-1.5,0-2.4,0.5-2.9,1.4   c-0.2,0.3-0.1,0.5,0.2,0.6l0.6,0.2c0.3,0.1,0.4,0.1,0.6-0.2c0.3-0.4,0.8-0.7,1.5-0.7c1.1,0,1.4,0.5,1.4,1.4v0.4   c-0.2,0-0.8-0.1-1.3-0.1c-2.2,0-3.1,0.5-3.1,2.2C349.1,282.3,349.7,283.1,352.2,283.1 M344.8,283.1c2,0,3-1,3-2.3   c0-1.7-1.2-2.1-2.8-2.2c-1.1-0.1-1.6-0.2-1.6-0.9c0-0.5,0.4-0.8,1.3-0.8c0.9,0,1.3,0.3,1.5,0.7c0.2,0.3,0.3,0.3,0.6,0.2l0.6-0.3   c0.3-0.1,0.4-0.3,0.2-0.6c-0.5-0.9-1.4-1.5-3-1.5c-1.9,0-2.9,0.9-2.9,2.2c0,1.8,1.4,2.1,2.8,2.2c1.1,0.1,1.7,0.2,1.7,0.9   c0,0.5-0.5,0.8-1.5,0.8c-0.8,0-1.3-0.2-1.6-0.8c-0.1-0.3-0.3-0.4-0.6-0.3l-0.6,0.2c-0.3,0.1-0.4,0.3-0.3,0.6   C342.2,282.5,343.2,283.1,344.8,283.1 M337.4,283.1c2,0,3-1,3-2.3c0-1.7-1.2-2.1-2.8-2.2c-1.1-0.1-1.6-0.2-1.6-0.9   c0-0.5,0.4-0.8,1.3-0.8c0.9,0,1.3,0.3,1.5,0.7c0.2,0.3,0.3,0.3,0.6,0.2l0.6-0.3c0.3-0.1,0.4-0.3,0.2-0.6c-0.5-0.9-1.4-1.5-3-1.5   c-1.9,0-2.9,0.9-2.9,2.2c0,1.8,1.4,2.1,2.8,2.2c1.1,0.1,1.7,0.2,1.7,0.9c0,0.5-0.5,0.8-1.5,0.8c-0.8,0-1.3-0.2-1.6-0.8   c-0.1-0.3-0.3-0.4-0.6-0.3l-0.6,0.2c-0.3,0.1-0.4,0.3-0.3,0.6C334.7,282.5,335.8,283.1,337.4,283.1 M331.4,282.9h0.8   c0.3,0,0.4-0.1,0.4-0.4v-6.4c0-0.3-0.1-0.4-0.4-0.4h-0.8c-0.3,0-0.4,0.1-0.4,0.4v6.4C331,282.8,331.1,282.9,331.4,282.9    M331.8,274.4h0.1c0.6,0,0.8-0.2,0.8-0.8v-0.1c0-0.6-0.2-0.8-0.8-0.8h-0.1c-0.6,0-0.8,0.2-0.8,0.8v0.1   C330.9,274.3,331.1,274.4,331.8,274.4 M326,281.6c-1,0-1.6-0.5-1.6-1.3v-2.1c0-0.8,0.6-1.3,1.6-1.3c1,0,1.6,0.5,1.6,1.3v2.1   C327.6,281.1,327,281.6,326,281.6 M326,283.1c2.1,0,3.2-1.1,3.2-2.8v-2.1c0-1.7-1.1-2.8-3.2-2.8c-2.1,0-3.2,1.1-3.2,2.8v2.1   C322.8,282,323.9,283.1,326,283.1 M318.3,282.9h0.8c0.3,0,0.4-0.1,0.4-0.4v-5c0-0.1,0-0.1,0.1-0.2c0.4-0.1,0.8-0.2,1.3-0.2h0.5   c0.3,0,0.4-0.1,0.4-0.4v-0.6c0-0.3-0.1-0.4-0.4-0.4H321c-1.2,0-2.1,0.2-2.6,0.4c-0.4,0.2-0.5,0.3-0.5,0.8v5.6   C317.9,282.8,318,282.9,318.3,282.9 M312.5,283.1c2.1,0,3.3-0.8,3.8-2.3c0.1-0.3,0-0.5-0.3-0.6l-0.8-0.3c-0.3-0.1-0.5-0.1-0.6,0.3   c-0.3,0.8-1,1.3-2.1,1.3c-1.4,0-2.2-0.7-2.2-2v-3.1c0-1.3,0.8-2,2.2-2c1.2,0,1.8,0.4,2.1,1.3c0.1,0.3,0.3,0.4,0.6,0.3l0.8-0.3   c0.3-0.1,0.4-0.3,0.3-0.6c-0.5-1.5-1.7-2.3-3.8-2.3c-2.6,0-4,1.4-4,3.6v3C308.5,281.7,309.9,283.1,312.5,283.1"></path>
</g>
<path class="st0" d="M94.2,231.9l14,6.1v22.1h-4.6v-6.5h-4.8v6.5h-4.6V231.9z M114,249.7h3.2v3.2H114V249.7z M114,242.2h3.2v3.2H114  V242.2z M114,234.6h3.2v3.2H114V234.6z M121.7,260.1v-37.3l-15.5,8.4v2.6l-15.1-6.5v32.9h-3.6v2.4h37.5v-2.4H121.7z"></path>
<rect x="96.7" y="239.3" class="st0" width="3.2" height="3.2"></rect>
<rect x="102.5" y="239.3" class="st0" width="3.2" height="3.2"></rect>
<rect x="96.7" y="245" class="st0" width="3.2" height="3.2"></rect>
<rect x="102.5" y="245" class="st0" width="3.2" height="3.2"></rect>
<g>
	<defs>
		<rect id="SVGID_00000016051743595614100670000016597324135695574712_" x="40.8" y="40.9" width="378.4" height="378.3"></rect>
	</defs>
	<clipPath id="SVGID_00000036967907137274346830000016797338744143996565_">
		<use xlink:href="#SVGID_00000016051743595614100670000016597324135695574712_" style="overflow:visible;"></use>
	</clipPath>
	<path style="clip-path:url(#SVGID_00000036967907137274346830000016797338744143996565_);fill:#FFFFFF;" d="M135.2,294.8v-0.3   c0-0.9,0.6-1.4,1.6-1.4c1.1,0,1.6,0.5,1.6,1.4v0.3H135.2z M136.8,299.3c1.6,0,2.5-0.5,3-1.3c0.2-0.3,0.2-0.5-0.2-0.7l-0.5-0.3   c-0.3-0.2-0.5-0.1-0.7,0.2c-0.3,0.5-0.8,0.7-1.6,0.7c-1,0-1.6-0.5-1.6-1.4V296h4.2c0.5,0,0.6-0.2,0.6-0.6v-0.8c0-1.6-1-2.9-3.2-2.9   c-2.1,0-3.2,1.1-3.2,3v1.6C133.6,298,134.5,299.3,136.8,299.3 M130.6,299.1h0.8c0.3,0,0.4-0.1,0.4-0.4v-9.4c0-0.3-0.1-0.4-0.4-0.4   h-0.8c-0.3,0-0.4,0.1-0.4,0.4v9.4C130.2,299,130.3,299.1,130.6,299.1 M126.9,299.1h0.8c0.3,0,0.4-0.1,0.4-0.4v-9.4   c0-0.3-0.1-0.4-0.4-0.4h-0.8c-0.3,0-0.4,0.1-0.4,0.4v9.4C126.5,299,126.6,299.1,126.9,299.1 M119.9,294.8v-0.3   c0-0.9,0.6-1.4,1.6-1.4c1.1,0,1.6,0.5,1.6,1.4v0.3H119.9z M121.5,299.3c1.6,0,2.5-0.5,3-1.3c0.2-0.3,0.2-0.5-0.2-0.7l-0.5-0.3   c-0.3-0.2-0.5-0.1-0.7,0.2c-0.3,0.5-0.8,0.7-1.6,0.7c-1,0-1.6-0.5-1.6-1.4V296h4.2c0.5,0,0.6-0.2,0.6-0.6v-0.8c0-1.6-1-2.9-3.2-2.9   c-2.1,0-3.2,1.1-3.2,3v1.6C118.3,298,119.2,299.3,121.5,299.3 M115.4,299.1h0.8c0.3,0,0.4-0.1,0.4-0.4v-6.4c0-0.3-0.1-0.4-0.4-0.4   h-0.8c-0.3,0-0.4,0.1-0.4,0.4v6.4C114.9,299,115,299.1,115.4,299.1 M115.7,290.6h0.1c0.6,0,0.8-0.2,0.8-0.8v-0.1   c0-0.6-0.2-0.8-0.8-0.8h-0.1c-0.6,0-0.8,0.2-0.8,0.8v0.1C114.9,290.5,115,290.6,115.7,290.6 M110,299.1h0.8c0.3,0,0.4-0.1,0.4-0.4   v-5c0-0.1,0-0.1,0.1-0.2c0.4-0.1,0.8-0.2,1.3-0.2h0.5c0.3,0,0.4-0.1,0.4-0.4v-0.6c0-0.3-0.1-0.4-0.4-0.4h-0.5   c-1.2,0-2.1,0.2-2.6,0.4c-0.4,0.2-0.5,0.3-0.5,0.8v5.6C109.6,299,109.7,299.1,110,299.1 M104.6,297.8c-1,0-1.6-0.5-1.6-1.3v-2.1   c0-0.8,0.6-1.3,1.6-1.3c1,0,1.6,0.5,1.6,1.3v2.1C106.2,297.3,105.7,297.8,104.6,297.8 M104.6,299.3c2.1,0,3.2-1.1,3.2-2.8v-2.1   c0-1.7-1.1-2.8-3.2-2.8c-2.1,0-3.2,1.1-3.2,2.8v2.1C101.4,298.2,102.6,299.3,104.6,299.3 M99.7,299.1c0.3,0,0.4-0.1,0.4-0.4V298   c0-0.3-0.1-0.4-0.4-0.4c-1.2,0-1.6-0.2-1.6-1.6v-2.6h1.6c0.3,0,0.4-0.1,0.4-0.4v-0.6c0-0.3-0.1-0.4-0.4-0.4h-1.6v-1.3   c0-0.3-0.1-0.4-0.4-0.4H97c-0.3,0-0.4,0.1-0.4,0.4v1.3h-0.9c-0.3,0-0.4,0.1-0.4,0.4v0.6c0,0.3,0.1,0.4,0.4,0.4h0.9v2.6   C96.5,298.4,97.4,299.1,99.7,299.1 M91.1,299.3c1.7,0,2.6-0.7,3.1-1.8c0.1-0.3,0-0.5-0.3-0.6l-0.6-0.2c-0.3-0.1-0.5-0.1-0.6,0.3   c-0.2,0.6-0.7,1-1.5,1c-1,0-1.5-0.5-1.5-1.4v-2.1c0-0.9,0.5-1.4,1.5-1.4c0.8,0,1.3,0.3,1.5,0.9c0.1,0.3,0.3,0.4,0.6,0.3l0.6-0.2   c0.3-0.1,0.4-0.3,0.3-0.6c-0.3-1-1.3-1.8-3-1.8c-2.2,0-3.2,1.1-3.2,2.8v1.9C88,298.2,89,299.3,91.1,299.3 M81.7,294.8v-0.3   c0-0.9,0.6-1.4,1.6-1.4c1.1,0,1.6,0.5,1.6,1.4v0.3H81.7z M83.3,299.3c1.6,0,2.5-0.5,3-1.3c0.2-0.3,0.2-0.5-0.2-0.7l-0.5-0.3   c-0.3-0.2-0.5-0.1-0.7,0.2c-0.3,0.5-0.8,0.7-1.6,0.7c-1,0-1.6-0.5-1.6-1.4V296h4.2c0.5,0,0.6-0.2,0.6-0.6v-0.8c0-1.6-1-2.9-3.2-2.9   c-2.1,0-3.2,1.1-3.2,3v1.6C80.1,298,81,299.3,83.3,299.3 M75.7,299.3c2,0,3-1,3-2.3c0-1.7-1.2-2.1-2.8-2.2   c-1.1-0.1-1.6-0.2-1.6-0.9c0-0.5,0.4-0.8,1.3-0.8c0.9,0,1.3,0.3,1.5,0.7c0.2,0.3,0.3,0.3,0.6,0.2l0.6-0.3c0.3-0.1,0.4-0.3,0.2-0.6   c-0.5-0.9-1.4-1.5-3-1.5c-1.9,0-2.9,0.9-2.9,2.2c0,1.8,1.4,2.1,2.8,2.2c1.1,0.1,1.7,0.2,1.7,0.9c0,0.5-0.5,0.8-1.5,0.8   c-0.8,0-1.3-0.2-1.6-0.8c-0.1-0.3-0.3-0.4-0.6-0.3l-0.6,0.2c-0.3,0.1-0.4,0.3-0.3,0.6C73.1,298.7,74.1,299.3,75.7,299.3"></path>
	<path style="clip-path:url(#SVGID_00000036967907137274346830000016797338744143996565_);fill:#FFFFFF;" d="M142,278.6v-0.3   c0-0.9,0.6-1.4,1.6-1.4c1.1,0,1.6,0.5,1.6,1.4v0.3H142z M143.6,283.1c1.6,0,2.5-0.5,3-1.3c0.2-0.3,0.2-0.5-0.2-0.7l-0.5-0.3   c-0.3-0.2-0.5-0.1-0.7,0.2c-0.3,0.5-0.8,0.7-1.6,0.7c-1,0-1.6-0.5-1.6-1.4v-0.5h4.2c0.5,0,0.6-0.2,0.6-0.6v-0.8   c0-1.6-1-2.9-3.2-2.9c-2.1,0-3.2,1.1-3.2,3v1.6C140.4,281.8,141.3,283.1,143.6,283.1 M135.9,283.1c1.7,0,2.6-0.7,3.1-1.8   c0.1-0.3,0-0.5-0.3-0.6l-0.6-0.2c-0.3-0.1-0.5-0.1-0.6,0.3c-0.2,0.6-0.7,1-1.5,1c-1,0-1.5-0.5-1.5-1.4v-2.1c0-0.9,0.5-1.4,1.5-1.4   c0.8,0,1.3,0.3,1.5,0.9c0.1,0.3,0.3,0.4,0.6,0.3l0.6-0.2c0.3-0.1,0.4-0.3,0.3-0.6c-0.3-1-1.3-1.8-3-1.8c-2.2,0-3.2,1.1-3.2,2.8v1.9   C132.8,282,133.7,283.1,135.9,283.1 M125.3,282.9h0.8c0.3,0,0.4-0.1,0.4-0.4v-5.2c0-0.1,0-0.1,0.1-0.1c0.4-0.1,0.8-0.2,1.3-0.2   c1,0,1.5,0.4,1.5,1.4v4.1c0,0.3,0.1,0.4,0.4,0.4h0.8c0.3,0,0.4-0.1,0.4-0.4v-4.2c0-1.8-0.9-2.8-2.9-2.8c-1.3,0-2.2,0.2-2.7,0.5   c-0.4,0.2-0.5,0.3-0.5,0.8v5.7C124.9,282.8,125,282.9,125.3,282.9 M118.4,278.6v-0.3c0-0.9,0.6-1.4,1.6-1.4c1.1,0,1.6,0.5,1.6,1.4   v0.3H118.4z M120,283.1c1.6,0,2.5-0.5,3-1.3c0.2-0.3,0.2-0.5-0.2-0.7l-0.5-0.3c-0.3-0.2-0.5-0.1-0.7,0.2c-0.3,0.5-0.8,0.7-1.6,0.7   c-1,0-1.6-0.5-1.6-1.4v-0.5h4.2c0.5,0,0.6-0.2,0.6-0.6v-0.8c0-1.6-1-2.9-3.2-2.9c-2.1,0-3.2,1.1-3.2,3v1.6   C116.8,281.8,117.7,283.1,120,283.1 M115.1,282.9c0.3,0,0.4-0.1,0.4-0.4v-0.7c0-0.3-0.1-0.4-0.4-0.4c-1.2,0-1.6-0.2-1.6-1.6v-2.6   h1.6c0.3,0,0.4-0.1,0.4-0.4v-0.6c0-0.3-0.1-0.4-0.4-0.4h-1.6v-1.3c0-0.3-0.1-0.4-0.4-0.4h-0.8c-0.3,0-0.4,0.1-0.4,0.4v1.3H111   c-0.3,0-0.4,0.1-0.4,0.4v0.6c0,0.3,0.1,0.4,0.4,0.4h0.9v2.6C111.9,282.2,112.8,282.9,115.1,282.9 M104.7,278.6v-0.3   c0-0.9,0.6-1.4,1.6-1.4c1.1,0,1.6,0.5,1.6,1.4v0.3H104.7z M106.3,283.1c1.6,0,2.5-0.5,3-1.3c0.2-0.3,0.2-0.5-0.2-0.7l-0.5-0.3   c-0.3-0.2-0.5-0.1-0.7,0.2c-0.3,0.5-0.8,0.7-1.6,0.7c-1,0-1.6-0.5-1.6-1.4v-0.5h4.2c0.5,0,0.6-0.2,0.6-0.6v-0.8   c0-1.6-1-2.9-3.2-2.9c-2.1,0-3.2,1.1-3.2,3v1.6C103.1,281.8,104,283.1,106.3,283.1 M105.5,274.7l2.4-1c0.3-0.1,0.3-0.2,0.1-0.5   l-0.3-0.4c-0.2-0.3-0.5-0.2-0.8,0l-2,1.2c-0.2,0.1-0.2,0.2,0,0.5l0.2,0.3C105,274.8,105.2,274.8,105.5,274.7 M98.3,281.6   c-0.5,0-1-0.1-1.3-0.2v-4.1c0-0.1,0-0.1,0.1-0.2c0.3-0.1,0.8-0.2,1.3-0.2c1,0,1.5,0.5,1.5,1.4v1.8   C99.9,281.1,99.4,281.6,98.3,281.6 M95.8,286h0.8c0.3,0,0.4-0.1,0.4-0.4v-2.7c0.4,0.1,0.9,0.3,1.4,0.3c2.1,0,3.1-1,3.1-2.9v-1.9   c0-1.8-0.9-2.8-2.9-2.8c-1.3,0-2.1,0.2-2.7,0.4c-0.4,0.2-0.5,0.3-0.5,0.8v8.8C95.4,285.8,95.5,286,95.8,286 M83.9,282.9h0.8   c0.3,0,0.4-0.1,0.4-0.4v-5.2c0-0.1,0-0.1,0.1-0.2c0.3-0.1,0.7-0.2,1.1-0.2c0.9,0,1.4,0.5,1.4,1.3v4.2c0,0.3,0.1,0.4,0.4,0.4h0.8   c0.3,0,0.4-0.1,0.4-0.4v-4.2c0-0.4,0-0.8-0.2-1c0.3-0.1,0.8-0.3,1.4-0.3c0.9,0,1.4,0.5,1.4,1.3v4.2c0,0.3,0.1,0.4,0.4,0.4H93   c0.3,0,0.4-0.1,0.4-0.4v-4.2c0-1.8-0.8-2.8-2.7-2.8c-1.2,0-2,0.3-2.5,0.5c-0.4-0.3-1-0.5-1.7-0.5c-1.2,0-2,0.2-2.5,0.5   c-0.4,0.2-0.5,0.3-0.5,0.8v5.7C83.4,282.8,83.5,282.9,83.9,282.9 M78.4,281.7c-1,0-1.6-0.5-1.6-1.3v-2.1c0-0.8,0.6-1.3,1.6-1.3   c1,0,1.6,0.5,1.6,1.3v2.1C80,281.2,79.5,281.7,78.4,281.7 M78.4,283.1c2.1,0,3.2-1.1,3.2-2.8v-2.1c0-1.7-1.1-2.8-3.2-2.8   c-2.1,0-3.2,1.1-3.2,2.8v2.1C75.3,282.1,76.4,283.1,78.4,283.1 M70,283.1c2.1,0,3.3-0.8,3.8-2.3c0.1-0.3,0-0.5-0.3-0.6l-0.8-0.3   c-0.3-0.1-0.5-0.1-0.6,0.3c-0.3,0.8-1,1.3-2.1,1.3c-1.4,0-2.2-0.7-2.2-2v-3.1c0-1.3,0.8-2,2.2-2c1.2,0,1.8,0.4,2.1,1.3   c0.1,0.3,0.3,0.4,0.6,0.3l0.8-0.3c0.3-0.1,0.4-0.3,0.3-0.6c-0.5-1.5-1.7-2.3-3.8-2.3c-2.6,0-4,1.4-4,3.6v3   C66.1,281.7,67.5,283.1,70,283.1"></path>
	<path style="clip-path:url(#SVGID_00000036967907137274346830000016797338744143996565_);fill:#FFFFFF;" d="M322.9,114.5   c-4.5,3.1-6.3,4-8,5c-2.6,1.5-4.2,1.7-8.1,1.8c-2.6,0-4-2.2,3.3-2.6c4.3-0.3,6.4-1.6,6.1-3.5c-0.4-2.1-7.2-1.1-12.7-0.9   c-2.8,0.1-5.7,1.4-7.8,2.5v11.9c7.7,0,15.5-0.2,15.5-0.2c2.3,0,3.1-0.9,3.1-0.9s7.8-6.1,11-9C328.9,115.5,326.2,112.3,322.9,114.5"></path>
	<path style="clip-path:url(#SVGID_00000036967907137274346830000016797338744143996565_);fill:#FFFFFF;" d="M292.5,113.2h-6.2v17.5   h6c0,0,1.3-0.1,1.4-1.2v-14.6C293.8,113.4,292.5,113.2,292.5,113.2"></path>
	<path style="clip-path:url(#SVGID_00000036967907137274346830000016797338744143996565_);fill:#FFFFFF;" d="M306.1,102   c2.2,5.9-0.1,9.5-0.1,9.5h2.5h1.6h1.2c0,0-1-1.7-1.1-3.8c-0.1-1.1-0.1-2.4,0.1-3.6c0.1-0.3,0.7-2.3,4.4-2.1c4,0.2,9.6,0,12.8-6.2   c0,0-2.8-1.7-4.1-2.1c0,0-6-1.9-10.5,2.1c-3,2.7-4,5.7-4.3,7.4c-0.2-0.5-0.3-0.9-0.5-1.4c0,0,0,0,0,0c0,0-0.7-2-3.1-4.4   c-2.5-2.6-5.2-3.9-7-4.6c-0.3-0.1,0-0.2,0.2-0.1c2.3,0.5,5.1,1,8.6,4.4c1.2,1.1,1.7,2,1.9,2.7c0.6-5.1-3-8.3-7-9.5   c-2.6-0.8-5.3-0.7-7.3-0.2c-1.8,0.4-3.4,0.9-3.4,0.9c3.1,10.9,11.8,10.8,11.8,10.8C304,102,305.1,102.1,306.1,102"></path>
	<path style="clip-path:url(#SVGID_00000036967907137274346830000016797338744143996565_);fill:#FFFFFF;" d="M316.1,151.3   c2.6,0,4-1.4,4-3.3v-1.9c0-0.4-0.1-0.5-0.5-0.5h-3.3c-0.3,0-0.5,0.1-0.5,0.5v0.7c0,0.4,0.1,0.5,0.5,0.5h2.1v0.7   c0,0.9-0.8,1.6-2.3,1.6s-2.2-0.7-2.2-2v-3.1c0-1.3,0.8-2,2.2-2c1.2,0,1.8,0.4,2.1,1.3c0.1,0.3,0.3,0.4,0.6,0.3l0.8-0.3   c0.3-0.1,0.4-0.3,0.3-0.6c-0.5-1.5-1.7-2.3-3.8-2.3c-2.6,0-4,1.4-4,3.6v3C312.1,149.9,313.5,151.3,316.1,151.3 M306.6,151.3   c2.6,0,4-1.3,4-3.1c0-2.3-1.9-2.7-3.5-2.9c-1.3-0.1-2.4-0.3-2.4-1.3c0-0.9,0.7-1.3,2-1.3c1.1,0,1.6,0.4,2,1.2   c0.2,0.3,0.3,0.4,0.6,0.2l0.8-0.3c0.3-0.2,0.4-0.3,0.3-0.6c-0.7-1.4-1.7-2.1-3.6-2.1c-2.5,0-3.8,1.3-3.8,3c0,2.4,2.1,2.7,3.8,2.9   c1.2,0.1,2.2,0.3,2.2,1.3c0,1-0.8,1.4-2.2,1.4c-1.1,0-1.8-0.5-2.2-1.3c-0.1-0.3-0.3-0.4-0.6-0.3l-0.8,0.3c-0.3,0.1-0.4,0.3-0.3,0.6   C303.3,150.5,304.4,151.3,306.6,151.3 M295.2,151.1h5.7c0.3,0,0.5-0.1,0.5-0.5v-0.7c0-0.3-0.1-0.5-0.5-0.5h-4.4v-2.6h3.6   c0.4,0,0.5-0.1,0.5-0.5v-0.7c0-0.3-0.1-0.5-0.5-0.5h-3.6v-2.4h4.3c0.3,0,0.5-0.1,0.5-0.5v-0.7c0-0.3-0.1-0.5-0.5-0.5h-5.5   c-0.4,0-0.5,0.1-0.5,0.5v8.9C294.7,150.9,294.8,151.1,295.2,151.1"></path>
	<path style="clip-path:url(#SVGID_00000036967907137274346830000016797338744143996565_);fill:#FFFFFF;" d="M230,299.8   c38.6,0,69.8-31.3,69.8-69.8c0-38.6-31.3-69.8-69.8-69.8c-38.6,0-69.8,31.3-69.8,69.8C160.2,268.6,191.4,299.8,230,299.8"></path>
	<path style="clip-path:url(#SVGID_00000036967907137274346830000016797338744143996565_);fill:#B2B2B2;" d="M279.7,246.4   c2.7,0,4.2-1.5,4.2-3.5v-2c0-0.4-0.1-0.5-0.5-0.5h-3.5c-0.4,0-0.5,0.1-0.5,0.5v0.7c0,0.4,0.1,0.5,0.5,0.5h2.2v0.8   c0,1-0.9,1.7-2.4,1.7c-1.5,0-2.3-0.7-2.3-2.1v-3.2c0-1.3,0.8-2.1,2.3-2.1c1.2,0,1.9,0.5,2.2,1.3c0.1,0.4,0.3,0.4,0.6,0.3l0.8-0.3   c0.4-0.1,0.4-0.3,0.3-0.6c-0.5-1.6-1.8-2.4-4-2.4c-2.7,0-4.2,1.5-4.2,3.8v3.2C275.5,244.9,277,246.4,279.7,246.4 M268.5,242.3   l1.1-3.1c0.3-0.9,0.3-1.8,0.3-1.8h0.1c0,0,0,0.9,0.3,1.8l1.1,3.1H268.5z M265.7,246.2h0.7c0.6,0,0.8-0.1,0.9-0.4l0.7-1.9h4l0.7,1.9   c0.1,0.4,0.3,0.4,0.9,0.4h0.8c0.4,0,0.4-0.2,0.3-0.5l-3.7-9.5c-0.1-0.3-0.3-0.4-0.6-0.4h-0.8c-0.3,0-0.5,0.1-0.6,0.4l-3.6,9.5   C265.2,246,265.3,246.2,265.7,246.2 M261.4,246.2c0.3,0,0.5-0.1,0.5-0.5V245c0-0.3-0.1-0.5-0.5-0.5c-1.2,0-1.7-0.2-1.7-1.7v-2.7   h1.7c0.3,0,0.4-0.1,0.4-0.5V239c0-0.3-0.1-0.4-0.4-0.4h-1.7v-1.3c0-0.3-0.1-0.4-0.4-0.4h-0.8c-0.3,0-0.5,0.1-0.5,0.4v1.3h-1   c-0.3,0-0.5,0.1-0.5,0.4v0.7c0,0.3,0.1,0.5,0.5,0.5h1v2.8C258,245.5,258.9,246.2,261.4,246.2 M249.5,246.2h0.8   c0.3,0,0.5-0.1,0.5-0.5v-5.5c0-0.1,0-0.1,0.1-0.1c0.4-0.1,0.8-0.2,1.4-0.2c1.1,0,1.6,0.5,1.6,1.4v4.4c0,0.3,0.1,0.5,0.5,0.5h0.8   c0.3,0,0.5-0.1,0.5-0.5v-4.4c0-1.9-1-2.9-3-2.9c-1.4,0-2.3,0.3-2.9,0.5c-0.5,0.2-0.6,0.4-0.6,0.8v6   C249.1,246,249.2,246.2,249.5,246.2 M242.4,241.6v-0.3c0-1,0.6-1.5,1.7-1.5c1.1,0,1.7,0.5,1.7,1.5v0.3H242.4z M244.1,246.4   c1.7,0,2.6-0.5,3.2-1.4c0.2-0.3,0.2-0.6-0.2-0.7l-0.5-0.3c-0.4-0.2-0.5-0.1-0.7,0.2c-0.3,0.5-0.9,0.8-1.7,0.8   c-1.1,0-1.7-0.5-1.7-1.5v-0.5h4.4c0.5,0,0.7-0.2,0.7-0.6v-0.9c0-1.7-1.1-3-3.4-3c-2.2,0-3.4,1.1-3.4,3.2v1.7   C240.7,245,241.7,246.4,244.1,246.4 M229,246.2h0.8c0.3,0,0.5-0.1,0.5-0.5v-5.4c0-0.1,0-0.1,0.1-0.2c0.4-0.1,0.7-0.2,1.2-0.2   c1,0,1.4,0.5,1.4,1.4v4.4c0,0.3,0.1,0.5,0.5,0.5h0.8c0.3,0,0.5-0.1,0.5-0.5v-4.4c0-0.4,0-0.8-0.2-1.1c0.3-0.1,0.8-0.3,1.4-0.3   c1,0,1.4,0.5,1.4,1.4v4.4c0,0.3,0.1,0.5,0.5,0.5h0.8c0.3,0,0.5-0.1,0.5-0.5v-4.4c0-1.8-0.9-2.9-2.9-2.9c-1.3,0-2.1,0.3-2.6,0.5   c-0.5-0.3-1-0.5-1.8-0.5c-1.3,0-2.1,0.3-2.7,0.5c-0.5,0.2-0.6,0.4-0.6,0.8v6C228.6,246,228.7,246.2,229,246.2 M222,241.6v-0.3   c0-1,0.6-1.5,1.7-1.5c1.1,0,1.7,0.5,1.7,1.5v0.3H222z M223.6,246.4c1.7,0,2.6-0.5,3.2-1.4c0.2-0.3,0.2-0.6-0.2-0.7l-0.5-0.3   c-0.4-0.2-0.5-0.1-0.7,0.2c-0.3,0.5-0.9,0.8-1.7,0.8c-1.1,0-1.7-0.5-1.7-1.5v-0.5h4.4c0.5,0,0.7-0.2,0.7-0.6v-0.9   c0-1.7-1.1-3-3.4-3c-2.2,0-3.4,1.1-3.4,3.2v1.7C220.3,245,221.2,246.4,223.6,246.4 M215.5,244.5c-1,0-1.6-0.5-1.6-1.4v-1.6   c0-1.1,0.5-1.6,1.7-1.6c0.5,0,0.9,0.1,1.2,0.2c0.1,0,0.1,0.1,0.1,0.2v4C216.6,244.4,216.1,244.5,215.5,244.5 M215.4,249.6   c2.3,0,3.2-1.3,3.2-3.2v-6.8c0-0.5-0.1-0.6-0.5-0.8c-0.5-0.2-1.5-0.5-2.6-0.5c-2.2,0-3.3,1.1-3.3,3.1v1.7c0,1.8,1,2.9,3,2.9   c0.7,0,1.3-0.1,1.8-0.3v0.7c0,1-0.5,1.6-1.6,1.6c-0.8,0-1.2-0.3-1.5-0.7c-0.2-0.3-0.4-0.4-0.7-0.2l-0.6,0.3   c-0.3,0.2-0.4,0.4-0.2,0.7C212.9,249.1,213.9,249.6,215.4,249.6 M207.3,245c-1.1,0-1.4-0.4-1.4-1c0-0.6,0.3-1,1.4-1   c0.6,0,1.3,0.1,1.6,0.1v1.6c0,0.1,0,0.2-0.2,0.2C208.5,244.9,208,245,207.3,245 M207.5,246.4c1.2,0,2.1-0.1,2.6-0.4   c0.4-0.2,0.5-0.3,0.5-0.8v-3.8c0-1.7-0.7-3-3.1-3c-1.5,0-2.5,0.6-3,1.5c-0.2,0.3-0.1,0.5,0.2,0.7l0.6,0.2c0.3,0.1,0.4,0.1,0.6-0.2   c0.3-0.5,0.8-0.7,1.5-0.7c1.1,0,1.5,0.5,1.5,1.5v0.4c-0.2,0-0.8-0.1-1.4-0.1c-2.3,0-3.3,0.6-3.3,2.3   C204.2,245.5,204.9,246.4,207.5,246.4 M196.7,246.2h0.8c0.3,0,0.5-0.1,0.5-0.5v-5.5c0-0.1,0-0.1,0.1-0.1c0.4-0.1,0.8-0.2,1.4-0.2   c1.1,0,1.6,0.5,1.6,1.4v4.4c0,0.3,0.1,0.5,0.5,0.5h0.8c0.3,0,0.5-0.1,0.5-0.5v-4.4c0-1.9-1-2.9-3-2.9c-1.4,0-2.3,0.3-2.9,0.5   c-0.5,0.2-0.6,0.4-0.6,0.8v6C196.3,246,196.4,246.2,196.7,246.2 M191.2,245c-1.1,0-1.4-0.4-1.4-1c0-0.6,0.3-1,1.4-1   c0.6,0,1.3,0.1,1.6,0.1v1.6c0,0.1,0,0.2-0.2,0.2C192.4,244.9,191.9,245,191.2,245 M191.3,246.4c1.2,0,2.1-0.1,2.6-0.4   c0.4-0.2,0.5-0.3,0.5-0.8v-3.8c0-1.7-0.7-3-3.1-3c-1.5,0-2.5,0.6-3,1.5c-0.2,0.3-0.1,0.5,0.2,0.7l0.6,0.2c0.3,0.1,0.4,0.1,0.6-0.2   c0.3-0.5,0.8-0.7,1.5-0.7c1.1,0,1.5,0.5,1.5,1.5v0.4c-0.2,0-0.8-0.1-1.4-0.1c-2.3,0-3.3,0.6-3.3,2.3   C188.1,245.5,188.7,246.4,191.3,246.4 M177.1,246.2h0.7c0.4,0,0.5-0.1,0.5-0.5v-4.4c0-0.9-0.1-1.8-0.3-2.9h0.1   c0.4,1.2,0.6,1.8,1.1,2.7l1.5,2.5c0.2,0.3,0.3,0.4,0.6,0.4h0.5c0.3,0,0.4-0.1,0.6-0.4l1.4-2.5c0.5-0.8,0.8-1.6,1.2-2.7h0.1   c-0.2,1.1-0.4,2.1-0.4,2.9v4.5c0,0.4,0.1,0.5,0.5,0.5h0.7c0.4,0,0.5-0.1,0.5-0.5v-9.4c0-0.4-0.1-0.5-0.5-0.5h-0.7   c-0.4,0-0.5,0.1-0.7,0.4l-3,5.4l-3.1-5.4c-0.2-0.3-0.3-0.4-0.7-0.4h-0.6c-0.4,0-0.5,0.1-0.5,0.5v9.4   C176.6,246,176.7,246.2,177.1,246.2"></path>
	<path style="clip-path:url(#SVGID_00000036967907137274346830000016797338744143996565_);fill:#B2B2B2;" d="M287.3,228.6   c0.3,0,0.5-0.1,0.5-0.5v-0.7c0-0.3-0.1-0.5-0.5-0.5c-1.2,0-1.7-0.2-1.7-1.7v-2.7h1.7c0.3,0,0.4-0.1,0.4-0.5v-0.7   c0-0.3-0.1-0.4-0.4-0.4h-1.7v-1.3c0-0.3-0.1-0.4-0.4-0.4h-0.8c-0.3,0-0.5,0.1-0.5,0.4v1.3h-1c-0.3,0-0.5,0.1-0.5,0.4v0.7   c0,0.3,0.1,0.5,0.5,0.5h1v2.8C284,227.9,284.8,228.6,287.3,228.6 M276.6,224v-0.3c0-1,0.6-1.5,1.7-1.5c1.1,0,1.7,0.5,1.7,1.5v0.3   H276.6z M278.3,228.8c1.7,0,2.6-0.5,3.2-1.4c0.2-0.3,0.2-0.6-0.2-0.7l-0.5-0.3c-0.4-0.2-0.5-0.1-0.7,0.2c-0.3,0.5-0.9,0.8-1.7,0.8   c-1.1,0-1.7-0.5-1.7-1.5v-0.5h4.4c0.5,0,0.7-0.2,0.7-0.6v-0.9c0-1.7-1.1-3-3.4-3c-2.2,0-3.4,1.1-3.4,3.2v1.7   C274.9,227.5,275.9,228.8,278.3,228.8 M270.5,228.8c2.1,0,3.2-1,3.2-2.4c0-1.8-1.2-2.2-3-2.4c-1.1-0.1-1.7-0.2-1.7-0.9   c0-0.5,0.4-0.8,1.4-0.8c0.9,0,1.3,0.3,1.6,0.8c0.2,0.3,0.3,0.4,0.6,0.2l0.6-0.3c0.3-0.1,0.4-0.3,0.2-0.7c-0.5-1-1.4-1.6-3.1-1.6   c-2,0-3,1-3,2.4c0,1.9,1.5,2.2,3,2.4c1.2,0.1,1.8,0.2,1.8,0.9c0,0.6-0.5,0.9-1.6,0.9c-0.9,0-1.4-0.2-1.7-0.8   c-0.1-0.3-0.3-0.4-0.6-0.3l-0.7,0.2c-0.3,0.1-0.4,0.3-0.3,0.6C267.7,228.2,268.8,228.8,270.5,228.8 M262.9,228.8   c2.1,0,3.2-1,3.2-2.4c0-1.8-1.2-2.2-3-2.4c-1.1-0.1-1.7-0.2-1.7-0.9c0-0.5,0.4-0.8,1.4-0.8c0.9,0,1.3,0.3,1.6,0.8   c0.2,0.3,0.3,0.4,0.6,0.2l0.6-0.3c0.3-0.1,0.4-0.3,0.2-0.7c-0.5-1-1.4-1.6-3.1-1.6c-2,0-3,1-3,2.4c0,1.9,1.5,2.2,3,2.4   c1.2,0.1,1.8,0.2,1.8,0.9c0,0.6-0.5,0.9-1.6,0.9c-0.9,0-1.4-0.2-1.7-0.8c-0.1-0.3-0.3-0.4-0.6-0.3l-0.7,0.2   c-0.3,0.1-0.4,0.3-0.3,0.6C260.1,228.2,261.2,228.8,262.9,228.8 M252.7,224.7l1.1-3.1c0.3-0.9,0.3-1.8,0.3-1.8h0.1   c0,0,0,0.9,0.3,1.8l1.1,3.1H252.7z M249.9,228.6h0.7c0.6,0,0.8-0.1,0.9-0.4l0.7-1.9h4l0.7,1.9c0.1,0.4,0.3,0.4,0.9,0.4h0.8   c0.4,0,0.4-0.2,0.3-0.5l-3.7-9.5c-0.1-0.3-0.3-0.4-0.6-0.4h-0.8c-0.3,0-0.5,0.1-0.6,0.4l-3.6,9.5   C249.4,228.4,249.5,228.6,249.9,228.6 M242.8,228.8c2.1,0,3.2-1,3.2-2.4c0-1.8-1.2-2.2-3-2.4c-1.1-0.1-1.7-0.2-1.7-0.9   c0-0.5,0.4-0.8,1.4-0.8c0.9,0,1.3,0.3,1.6,0.8c0.2,0.3,0.3,0.4,0.6,0.2l0.6-0.3c0.3-0.1,0.4-0.3,0.2-0.7c-0.5-1-1.4-1.6-3.1-1.6   c-2,0-3,1-3,2.4c0,1.9,1.5,2.2,3,2.4c1.2,0.1,1.8,0.2,1.8,0.9c0,0.6-0.5,0.9-1.6,0.9c-0.9,0-1.4-0.2-1.7-0.8   c-0.1-0.3-0.3-0.4-0.6-0.3l-0.7,0.2c-0.3,0.1-0.4,0.3-0.3,0.6C240,228.2,241.1,228.8,242.8,228.8 M234.8,227.3   c-1.1,0-1.6-0.5-1.6-1.5v-1.9c0-1,0.5-1.6,1.7-1.6c0.6,0,1.1,0.1,1.4,0.2v4.4c0,0.1,0,0.1-0.1,0.2   C235.8,227.2,235.3,227.3,234.8,227.3 M234.7,228.8c1.3,0,2.2-0.2,2.8-0.5c0.5-0.2,0.6-0.3,0.6-0.8v-9.3c0-0.3-0.1-0.5-0.5-0.5   h-0.8c-0.3,0-0.5,0.1-0.5,0.5v2.8c-0.4-0.1-1-0.2-1.7-0.2c-2,0-3.1,1.1-3.1,3.1v2C231.5,227.7,232.5,228.8,234.7,228.8    M223.8,228.6h0.8c0.3,0,0.5-0.1,0.5-0.5v-5.5c0-0.1,0-0.1,0.1-0.1c0.4-0.1,0.9-0.2,1.4-0.2c1.1,0,1.6,0.5,1.6,1.4v4.4   c0,0.3,0.1,0.5,0.5,0.5h0.8c0.3,0,0.5-0.1,0.5-0.5v-4.4c0-1.9-1-2.9-3-2.9c-1.4,0-2.3,0.3-2.9,0.5c-0.5,0.2-0.6,0.4-0.6,0.8v6   C223.4,228.5,223.5,228.6,223.8,228.6 M218.3,227.3c-1.1,0-1.7-0.5-1.7-1.4v-2.2c0-0.9,0.6-1.4,1.7-1.4c1.1,0,1.7,0.5,1.7,1.4v2.2   C220,226.8,219.4,227.3,218.3,227.3 M218.3,228.8c2.2,0,3.4-1.1,3.4-2.9v-2.2c0-1.8-1.2-2.9-3.4-2.9c-2.2,0-3.4,1.1-3.4,2.9v2.2   C215,227.7,216.2,228.8,218.3,228.8 M210.8,228.6h0.8c0.4,0,0.5-0.1,0.5-0.5v-5.6h1.7c0.3,0,0.5-0.1,0.5-0.5v-0.7   c0-0.3-0.1-0.4-0.5-0.4h-1.7v-0.1c0-1.1,0.4-1.5,1.7-1.5c0.4,0,0.5-0.1,0.5-0.5v-0.6c0-0.4-0.1-0.5-0.5-0.5h-0.1   c-2.2,0-3.2,1.1-3.2,3.1v0.1h-0.9c-0.3,0-0.5,0.1-0.5,0.4v0.7c0,0.3,0.1,0.5,0.5,0.5h0.9v5.6C210.4,228.5,210.5,228.6,210.8,228.6    M204.7,227.3c-1.1,0-1.7-0.5-1.7-1.4v-2.2c0-0.9,0.6-1.4,1.7-1.4c1.1,0,1.7,0.5,1.7,1.4v2.2C206.3,226.8,205.8,227.3,204.7,227.3    M204.7,228.8c2.2,0,3.4-1.1,3.4-2.9v-2.2c0-1.8-1.2-2.9-3.4-2.9c-2.2,0-3.4,1.1-3.4,2.9v2.2C201.3,227.7,202.5,228.8,204.7,228.8    M189.6,228.6h0.8c0.3,0,0.5-0.1,0.5-0.5v-5.4c0-0.1,0-0.1,0.1-0.2c0.4-0.1,0.7-0.2,1.2-0.2c1,0,1.5,0.5,1.5,1.4v4.4   c0,0.3,0.1,0.5,0.5,0.5h0.8c0.3,0,0.5-0.1,0.5-0.5v-4.4c0-0.4,0-0.8-0.2-1.1c0.3-0.1,0.8-0.3,1.4-0.3c1,0,1.4,0.5,1.4,1.4v4.4   c0,0.3,0.1,0.5,0.5,0.5h0.8c0.3,0,0.5-0.1,0.5-0.5v-4.4c0-1.8-0.9-2.9-2.9-2.9c-1.3,0-2.1,0.3-2.6,0.5c-0.5-0.3-1-0.5-1.8-0.5   c-1.3,0-2.1,0.3-2.7,0.5c-0.5,0.2-0.6,0.4-0.6,0.8v6C189.2,228.5,189.3,228.6,189.6,228.6 M177.2,228.6h0.8c0.3,0,0.5-0.1,0.5-0.5   v-5.4c0-0.1,0-0.1,0.1-0.2c0.4-0.1,0.7-0.2,1.2-0.2c1,0,1.5,0.5,1.5,1.4v4.4c0,0.3,0.1,0.5,0.5,0.5h0.8c0.3,0,0.5-0.1,0.5-0.5v-4.4   c0-0.4,0-0.8-0.2-1.1c0.3-0.1,0.8-0.3,1.4-0.3c1,0,1.4,0.5,1.4,1.4v4.4c0,0.3,0.1,0.5,0.5,0.5h0.8c0.3,0,0.5-0.1,0.5-0.5v-4.4   c0-1.8-0.9-2.9-2.9-2.9c-1.3,0-2.1,0.3-2.6,0.5c-0.5-0.3-1-0.5-1.8-0.5c-1.3,0-2.1,0.3-2.7,0.5c-0.5,0.2-0.6,0.4-0.6,0.8v6   C176.8,228.5,176.9,228.6,177.2,228.6 M173.5,228.6h0.8c0.4,0,0.5-0.1,0.5-0.5v-9.4c0-0.4-0.1-0.5-0.5-0.5h-0.8   c-0.4,0-0.5,0.1-0.5,0.5v9.4C173,228.5,173.1,228.6,173.5,228.6"></path>
</g>
</svg>
