<?xml version="1.0" encoding="UTF-8"?>
<!-- Generator: Adobe Illustrator 26.0.2, SVG Export Plug-In . SVG Version: 6.00 Build 0)  -->
<svg xmlns="http://www.w3.org/2000/svg" xmlns:xlink="http://www.w3.org/1999/xlink" version="1.1" id="Ebene_1" x="0px" y="0px" viewBox="0 0 32.9 29.8" style="enable-background:new 0 0 32.9 29.8;" xml:space="preserve">
<style type="text/css">
	.st0{fill:#EFEFEF;}
</style>
<path class="st0" d="M32.1,13L18,0.9c-0.8-0.7-2.1-0.7-3,0L0.9,13c-0.4,0.4-0.7,0.9-0.7,1.4s0.2,1.1,0.6,1.5l1.5,1.4  c0.4,0.4,0.9,0.6,1.5,0.6l0,0c0.4,0,0.7-0.1,1-0.2v9.8c0,1.1,0.9,2.1,2.1,2.1h6.2l0,0h6.7l0,0H26c1.1,0,2.1-0.9,2.1-2.1v-10  c0.8,0.3,1.7,0.2,2.3-0.3L32,16c0.5-0.4,0.7-0.9,0.7-1.4C32.8,13.9,32.5,13.4,32.1,13z M19,27.7h-4.9v-9H19V27.7z M26,27.7h-5.3  v-9.9c0-0.5-0.4-0.9-0.9-0.9h-6.7c-0.5,0-0.9,0.4-0.9,0.9v9.9H6.9c-0.1,0-0.3-0.1-0.3-0.3V16.2l9.5-7.8c0.1-0.1,0.5-0.1,0.7,0  l9.5,7.7v11.3C26.3,27.5,26.2,27.7,26,27.7z M30.9,14.5l-1.6,1.2c-0.2,0.1-0.5,0.1-0.7,0L17.9,7c-0.8-0.6-2.1-0.6-3,0L4.1,15.9  C4,15.9,3.9,16,3.8,16s-0.2,0-0.3-0.1L2,14.5l-0.1-0.1c0,0,0-0.1,0.1-0.1L16.1,2.2c0.1-0.1,0.2-0.1,0.3-0.1s0.2,0,0.3,0.1L30.9,14.5  C31,14.4,31,14.4,30.9,14.5C31,14.4,30.9,14.4,30.9,14.5z"></path>
</svg>
