<?xml version="1.0" encoding="UTF-8"?>
<!-- Generator: Adobe Illustrator 26.0.2, SVG Export Plug-In . SVG Version: 6.00 Build 0)  -->
<svg xmlns="http://www.w3.org/2000/svg" xmlns:xlink="http://www.w3.org/1999/xlink" version="1.1" id="Ebene_1" x="0px" y="0px" viewBox="0 0 460 460" style="enable-background:new 0 0 460 460;" xml:space="preserve">
<style type="text/css">
	.st0{fill:#FFFFFF;}
	.st1{clip-path:url(#SVGID_00000148622413711395101950000009560026068450885532_);fill:#B2B2B2;}
	.st2{clip-path:url(#SVGID_00000148622413711395101950000009560026068450885532_);fill:#C8C8C8;}
	.st3{clip-path:url(#SVGID_00000148622413711395101950000009560026068450885532_);fill:#FFFFFF;}
	.st4{clip-path:url(#SVGID_00000065066412478888836970000016396046157130858410_);fill:#FFFFFF;}
	.st5{clip-path:url(#SVGID_00000114752620565954316750000006677270227499353728_);fill:#FFFFFF;}
	.st6{clip-path:url(#SVGID_00000114752620565954316750000006677270227499353728_);fill:#B2B2B2;}
</style>
<rect class="st0" width="460" height="460"></rect>
<g>
	<defs>
		<rect id="SVGID_1_" x="40.98" y="41.03" width="378.03" height="377.95"></rect>
	</defs>
	<clipPath id="SVGID_00000116213154638728876100000016604843300193856141_">
		<use xlink:href="#SVGID_1_" style="overflow:visible;"></use>
	</clipPath>
	<path style="clip-path:url(#SVGID_00000116213154638728876100000016604843300193856141_);fill:#B2B2B2;" d="M289.42,216.5   c0.97,4.31,1.49,8.79,1.49,13.4c0,18.23-8.03,34.58-20.72,45.75l75.43,103.83c44.64-34.57,73.39-88.68,73.39-149.52   c0-18.44-2.65-36.25-7.57-53.1L289.42,216.5z"></path>
	<path style="clip-path:url(#SVGID_00000116213154638728876100000016604843300193856141_);fill:#B2B2B2;" d="M261.1,282.28   c-9.11,5.42-19.74,8.54-31.1,8.54c-11.37,0-22-3.12-31.1-8.54L123.46,386.1c30.34,20.74,67.02,32.87,106.54,32.87   c39.53,0,76.2-12.14,106.54-32.87L261.1,282.28z"></path>
	<path style="clip-path:url(#SVGID_00000116213154638728876100000016604843300193856141_);fill:#B2B2B2;" d="M189.81,275.65   c-12.7-11.16-20.72-27.52-20.72-45.75c0-4.61,0.52-9.09,1.49-13.4L48.56,176.85c-4.92,16.85-7.57,34.66-7.57,53.1   c0,60.84,28.75,114.95,73.39,149.52L189.81,275.65z"></path>
	<path style="clip-path:url(#SVGID_00000116213154638728876100000016604843300193856141_);fill:#B2B2B2;" d="M174.05,205.8   c8.64-20.01,27.68-34.48,50.32-36.55V41.03C144.82,43.35,77.6,94.83,52.03,166.16L174.05,205.8z"></path>
	<path style="clip-path:url(#SVGID_00000116213154638728876100000016604843300193856141_);fill:#B2B2B2;" d="M235.62,169.25   c22.65,2.07,41.69,16.54,50.33,36.55l122.02-39.64C382.4,94.83,315.18,43.35,235.62,41.03V169.25z"></path>
	<path style="clip-path:url(#SVGID_00000116213154638728876100000016604843300193856141_);fill:#C8C8C8;" d="M307.3,210.7   l-17.88,5.81c0.97,4.31,1.49,8.79,1.49,13.4c0,18.23-8.03,34.58-20.72,45.75l11.07,15.26c17.36-14.61,28.4-36.49,28.4-60.95   C309.67,223.31,308.83,216.86,307.3,210.7"></path>
	<path style="clip-path:url(#SVGID_00000116213154638728876100000016604843300193856141_);fill:#C8C8C8;" d="M235.62,150.52v18.73   c22.65,2.07,41.69,16.54,50.33,36.55l17.86-5.8C292.65,172.51,266.58,152.67,235.62,150.52"></path>
	<path style="clip-path:url(#SVGID_00000116213154638728876100000016604843300193856141_);fill:#C8C8C8;" d="M156.19,200l17.87,5.8   c8.64-20.01,27.68-34.48,50.32-36.55v-18.74C193.42,152.67,167.35,172.51,156.19,200"></path>
	<path style="clip-path:url(#SVGID_00000116213154638728876100000016604843300193856141_);fill:#C8C8C8;" d="M169.09,229.9   c0-4.61,0.52-9.09,1.49-13.4l-17.88-5.81c-1.54,6.17-2.36,12.61-2.36,19.26c0,24.46,11.03,46.33,28.39,60.95l11.08-15.25   C177.11,264.48,169.09,248.13,169.09,229.9"></path>
	<path style="clip-path:url(#SVGID_00000116213154638728876100000016604843300193856141_);fill:#C8C8C8;" d="M230,309.62   c15.5,0,29.95-4.44,42.18-12.1l-11.08-15.24c-9.11,5.42-19.74,8.54-31.1,8.54c-11.37,0-22-3.12-31.1-8.54l-11.09,15.24   C200.05,305.17,214.5,309.62,230,309.62"></path>
	<path style="clip-path:url(#SVGID_00000116213154638728876100000016604843300193856141_);fill:#FFFFFF;" d="M149.71,151.07h0.76   c0.32,0,0.43-0.11,0.43-0.43v-5.17c0-0.07,0.01-0.13,0.1-0.17c0.35-0.11,0.68-0.17,1.12-0.17c0.9,0,1.38,0.46,1.38,1.35v4.15   c0,0.32,0.11,0.43,0.43,0.43h0.75c0.32,0,0.43-0.11,0.43-0.43v-4.21c0-0.39-0.04-0.75-0.15-1.04c0.32-0.11,0.79-0.25,1.36-0.25   c0.9,0,1.36,0.46,1.36,1.35v4.15c0,0.32,0.11,0.43,0.43,0.43h0.75c0.32,0,0.43-0.11,0.43-0.43v-4.21c0-1.75-0.83-2.76-2.74-2.76   c-1.21,0-1.97,0.26-2.46,0.46c-0.43-0.31-0.99-0.46-1.74-0.46c-1.24,0-1.99,0.25-2.54,0.47c-0.43,0.18-0.53,0.35-0.53,0.79v5.71   C149.29,150.96,149.39,151.07,149.71,151.07 M144.25,149.95c-1.08,0-1.31-0.38-1.31-0.93c0-0.58,0.28-0.93,1.33-0.93   c0.54,0,1.24,0.05,1.51,0.07v1.49c0,0.13-0.04,0.15-0.15,0.19C145.4,149.9,144.95,149.95,144.25,149.95 M144.4,151.28   c1.14,0,1.99-0.14,2.5-0.36c0.39-0.17,0.5-0.31,0.5-0.79v-3.6c0-1.64-0.68-2.86-2.96-2.86c-1.46,0-2.4,0.54-2.89,1.44   c-0.17,0.32-0.07,0.49,0.24,0.63l0.57,0.22c0.31,0.13,0.39,0.08,0.58-0.21c0.31-0.45,0.76-0.67,1.46-0.67   c1.06,0,1.39,0.51,1.39,1.39v0.42c-0.24-0.03-0.79-0.07-1.33-0.07c-2.22,0-3.14,0.54-3.14,2.21   C141.32,150.48,141.94,151.28,144.4,151.28 M135.16,146.76v-0.31c0-0.9,0.57-1.42,1.61-1.42c1.06,0,1.61,0.51,1.61,1.42v0.31   H135.16z M136.74,151.28c1.58,0,2.5-0.51,3-1.33c0.19-0.31,0.15-0.54-0.17-0.69l-0.49-0.26c-0.33-0.18-0.49-0.14-0.7,0.17   c-0.31,0.46-0.83,0.74-1.64,0.74c-1.03,0-1.6-0.49-1.6-1.39v-0.51h4.21c0.47,0,0.62-0.24,0.62-0.6v-0.85c0-1.6-1.01-2.87-3.22-2.87   c-2.1,0-3.22,1.07-3.22,3v1.64C133.55,150.02,134.47,151.28,136.74,151.28 M129.59,151.07h0.79c0.36,0,0.47-0.13,0.47-0.47v-7.76   h2.42c0.36,0,0.47-0.13,0.47-0.47v-0.68c0-0.35-0.11-0.47-0.47-0.47h-6.57c-0.35,0-0.47,0.13-0.47,0.47v0.68   c0,0.35,0.13,0.47,0.47,0.47h2.42v7.76C129.12,150.95,129.24,151.07,129.59,151.07"></path>
	<path style="clip-path:url(#SVGID_00000116213154638728876100000016604843300193856141_);fill:#FFFFFF;" d="M149.04,98.46   c-0.27-0.11-2.93-0.76-3.57-0.93l-0.52-0.89c0.47-0.47,0.82-1.1,1.08-1.72c0.24-0.08,0.49-0.39,0.62-0.78   c0.15-0.51,0.07-1-0.2-1.12c0.12-2.08-0.99-3.94-3.4-3.94c-2.42,0-3.51,1.86-3.41,3.94c-0.25,0.13-0.36,0.62-0.18,1.12   c0.12,0.39,0.38,0.7,0.6,0.78c0.27,0.61,0.61,1.25,1.09,1.72l-0.53,0.88c-0.54,0.13-3.32,0.83-3.59,0.94   c-0.9,0.38-1.53,1.27-1.53,2.31v11.85c0,0.56,0.7,1.03,1.57,1.03c0.3,0,0.53-0.04,0.78-0.13l1.92,17.57h6.51l1.92-17.57   c0.25,0.09,0.49,0.13,0.77,0.13c0.87,0,1.58-0.47,1.58-1.03v-11.85C150.57,99.73,149.94,98.84,149.04,98.46"></path>
	<path style="clip-path:url(#SVGID_00000116213154638728876100000016604843300193856141_);fill:#FFFFFF;" d="M158.13,100.75   c-0.23-0.09-2.44-0.64-2.93-0.76l-0.44-0.75c0.39-0.39,0.69-0.91,0.88-1.42c0.2-0.07,0.41-0.31,0.5-0.65   c0.15-0.42,0.07-0.81-0.15-0.93c0.1-1.71-0.81-3.26-2.81-3.26c-1.95,0-2.86,1.46-2.82,3.12c1.73,0.86,2.91,2.62,2.91,4.67v11.96   v0.02c-0.03,0.66-0.24,1.26-0.55,1.74c-0.33,0.49-0.73,0.86-1.13,1.14c-0.31,0.18-0.59,0.33-0.92,0.45l-0.64,5.77   c0.26,3.39,0.43,5.92,0.43,5.92h5.14l1.85-14.55c0.21,0.07,0.4,0.11,0.64,0.11c0.73,0,1.31-0.38,1.31-0.85v-9.79   C159.4,101.8,158.88,101.06,158.13,100.75"></path>
	<path style="clip-path:url(#SVGID_00000116213154638728876100000016604843300193856141_);fill:#FFFFFF;" d="M135.42,116.06   c-0.1-0.04-0.22-0.08-0.32-0.12c-0.6-0.28-1.26-0.72-1.74-1.46c-0.32-0.5-0.53-1.16-0.53-1.85v-0.04v-11.81   c0-2.05,1.18-3.81,2.89-4.67c0.05-1.66-0.85-3.12-2.8-3.12c-2.01,0-2.91,1.55-2.83,3.26c-0.21,0.11-0.28,0.51-0.14,0.93   c0.11,0.34,0.3,0.58,0.5,0.65c0.21,0.51,0.5,1.03,0.89,1.42l-0.44,0.74c-0.44,0.11-2.74,0.69-2.96,0.78   c-0.74,0.31-1.26,1.05-1.26,1.92v9.79c0,0.47,0.57,0.85,1.29,0.85c0.25,0,0.45-0.04,0.64-0.11l1.6,14.55h5.4   c0,0,0.17-2.56,0.44-6.01L135.42,116.06z"></path>
	<path style="clip-path:url(#SVGID_00000116213154638728876100000016604843300193856141_);fill:#FFFFFF;" d="M279.73,388.34   c0.32,0,0.43-0.13,0.43-0.44v-0.65c0-0.32-0.11-0.43-0.43-0.43c-1.17,0-1.58-0.24-1.58-1.6v-2.58h1.6c0.32,0,0.42-0.11,0.42-0.43   v-0.64c0-0.32-0.1-0.42-0.42-0.42h-1.6v-1.25c0-0.32-0.1-0.42-0.42-0.42h-0.76c-0.32,0-0.43,0.1-0.43,0.42v1.25h-0.94   c-0.32,0-0.43,0.1-0.43,0.42v0.64c0,0.32,0.11,0.43,0.43,0.43h0.94v2.64C276.53,387.68,277.38,388.34,279.73,388.34 M272.64,388.34   h0.75c0.32,0,0.43-0.11,0.43-0.43v-6.35c0-0.32-0.11-0.42-0.43-0.42h-0.75c-0.32,0-0.43,0.1-0.43,0.42v6.35   C272.21,388.23,272.32,388.34,272.64,388.34 M272.96,379.91h0.11c0.64,0,0.82-0.17,0.82-0.81v-0.13c0-0.64-0.18-0.79-0.82-0.79   h-0.11c-0.64,0-0.82,0.15-0.82,0.79v0.13C272.14,379.74,272.32,379.91,272.96,379.91 M265.7,384.02v-0.31   c0-0.9,0.57-1.42,1.61-1.42c1.06,0,1.61,0.51,1.61,1.42v0.31H265.7z M267.28,388.55c1.58,0,2.5-0.51,3-1.33   c0.19-0.31,0.15-0.54-0.17-0.69l-0.49-0.26c-0.33-0.18-0.49-0.14-0.69,0.17c-0.31,0.46-0.83,0.74-1.64,0.74   c-1.03,0-1.6-0.49-1.6-1.39v-0.51h4.21c0.47,0,0.62-0.24,0.62-0.6v-0.85c0-1.6-1.01-2.87-3.22-2.87c-2.1,0-3.22,1.07-3.22,3v1.64   C264.09,387.29,265,388.55,267.28,388.55 M257.25,388.34h0.71c0.35,0,0.46-0.11,0.46-0.44v-2.47h0.83c0.58,0,0.87,0.2,1.1,0.68   l0.86,1.85c0.17,0.33,0.26,0.39,0.75,0.39h0.69c0.42,0,0.46-0.14,0.28-0.51l-1.22-2.43c-0.28-0.57-0.57-0.94-1-1.15l2.1-2.6   c0.25-0.32,0.15-0.5-0.28-0.5h-0.68c-0.47,0-0.61,0-0.83,0.32l-1.87,2.46h-0.11h-0.61v-5.42c0-0.33-0.11-0.44-0.46-0.44h-0.71   c-0.35,0-0.44,0.11-0.44,0.44v9.39C256.81,388.23,256.91,388.34,257.25,388.34 M251.75,386.75c-0.99,0-1.5-0.49-1.5-1.36v-1.47   c0-1.03,0.51-1.5,1.64-1.5c0.44,0,0.86,0.07,1.18,0.15c0.1,0.04,0.11,0.07,0.11,0.17v3.82   C252.84,386.63,252.35,386.75,251.75,386.75 M251.74,391.61c2.18,0,3.06-1.21,3.06-3.03v-6.45c0-0.44-0.07-0.56-0.51-0.76   c-0.49-0.22-1.39-0.43-2.51-0.43c-2.11,0-3.13,1.03-3.13,2.92v1.57c0,1.75,0.9,2.79,2.88,2.79c0.67,0,1.25-0.14,1.67-0.25v0.69   c0,0.97-0.5,1.5-1.47,1.5c-0.76,0-1.17-0.25-1.46-0.71c-0.21-0.29-0.36-0.33-0.69-0.17l-0.53,0.29c-0.32,0.17-0.38,0.39-0.17,0.69   C249.35,391.09,250.24,391.61,251.74,391.61 M245.67,388.34h0.75c0.32,0,0.43-0.11,0.43-0.43v-6.35c0-0.32-0.11-0.42-0.43-0.42   h-0.75c-0.32,0-0.43,0.1-0.43,0.42v6.35C245.24,388.23,245.35,388.34,245.67,388.34 M245.99,379.91h0.11   c0.64,0,0.82-0.17,0.82-0.81v-0.13c0-0.64-0.18-0.79-0.82-0.79h-0.11c-0.64,0-0.82,0.15-0.82,0.79v0.13   C245.17,379.74,245.35,379.91,245.99,379.91 M240.19,386.75c-0.99,0-1.5-0.49-1.5-1.36v-1.47c0-1.03,0.51-1.5,1.64-1.5   c0.45,0,0.86,0.07,1.18,0.15c0.1,0.04,0.11,0.07,0.11,0.17v3.82C241.28,386.63,240.79,386.75,240.19,386.75 M240.18,391.61   c2.18,0,3.05-1.21,3.05-3.03v-6.45c0-0.44-0.07-0.56-0.51-0.76c-0.49-0.22-1.39-0.43-2.51-0.43c-2.11,0-3.12,1.03-3.12,2.92v1.57   c0,1.75,0.9,2.79,2.87,2.79c0.67,0,1.25-0.14,1.67-0.25v0.69c0,0.97-0.5,1.5-1.47,1.5c-0.76,0-1.17-0.25-1.46-0.71   c-0.21-0.29-0.36-0.33-0.69-0.17l-0.53,0.29c-0.32,0.17-0.38,0.39-0.17,0.69C237.79,391.09,238.68,391.61,240.18,391.61    M229.61,388.34h0.76c0.32,0,0.43-0.11,0.43-0.43v-5.18c0-0.06,0.03-0.11,0.08-0.14c0.36-0.1,0.81-0.18,1.33-0.18   c1.03,0,1.51,0.45,1.51,1.36v4.14c0,0.32,0.11,0.43,0.43,0.43h0.75c0.32,0,0.43-0.11,0.43-0.43v-4.18c0-1.76-0.9-2.79-2.89-2.79   c-1.33,0-2.17,0.25-2.74,0.47c-0.43,0.18-0.53,0.35-0.53,0.79v5.71C229.19,388.23,229.29,388.34,229.61,388.34 M224.15,387.22   c-1.08,0-1.31-0.38-1.31-0.93c0-0.58,0.28-0.93,1.33-0.93c0.54,0,1.24,0.05,1.52,0.07v1.49c0,0.13-0.04,0.15-0.15,0.2   C225.3,387.16,224.86,387.22,224.15,387.22 M224.3,388.55c1.14,0,1.99-0.14,2.5-0.36c0.39-0.17,0.5-0.31,0.5-0.79v-3.6   c0-1.64-0.68-2.86-2.96-2.86c-1.46,0-2.4,0.54-2.89,1.44c-0.17,0.32-0.07,0.49,0.24,0.62l0.57,0.22c0.31,0.13,0.39,0.08,0.58-0.21   c0.31-0.44,0.76-0.67,1.46-0.67c1.06,0,1.39,0.51,1.39,1.39v0.42c-0.24-0.03-0.79-0.07-1.33-0.07c-2.22,0-3.14,0.54-3.14,2.21   C221.22,387.75,221.84,388.55,224.3,388.55 M225.68,380.01h0.08c0.57,0,0.73-0.18,0.73-0.72v-0.13c0-0.55-0.17-0.74-0.74-0.74   h-0.08c-0.56,0-0.74,0.18-0.74,0.74v0.13C224.94,379.83,225.12,380.01,225.68,380.01 M222.9,380.01h0.08   c0.56,0,0.74-0.18,0.74-0.72v-0.13c0-0.55-0.18-0.74-0.74-0.74h-0.08c-0.57,0-0.74,0.18-0.74,0.74v0.13   C222.16,379.83,222.33,380.01,222.9,380.01z M213.88,388.34h0.76c0.32,0,0.43-0.11,0.43-0.43v-5.29c0.13-0.07,0.74-0.21,1.42-0.21   c0.99,0,1.52,0.47,1.52,1.36v4.14c0,0.32,0.11,0.43,0.43,0.43h0.75c0.33,0,0.43-0.11,0.43-0.43v-4.18c0-1.76-0.9-2.79-2.89-2.79   c-0.82,0-1.53,0.12-1.65,0.19v-2.64c0-0.32-0.11-0.43-0.43-0.43h-0.76c-0.32,0-0.42,0.11-0.42,0.43v9.42   C213.47,388.23,213.56,388.34,213.88,388.34 M208.41,387.08c-0.46,0-0.86-0.05-1.2-0.17c-0.1-0.04-0.1-0.08-0.1-0.15v-4.1   c0.33-0.11,0.85-0.25,1.43-0.25c0.97,0,1.5,0.49,1.5,1.36v1.79C210.05,386.59,209.54,387.08,208.41,387.08 M208.52,388.55   c2.12,0,3.14-1.04,3.14-2.94v-1.88c0-1.76-0.9-2.79-2.89-2.79c-0.68,0-1.25,0.14-1.66,0.23v-2.68c0-0.32-0.11-0.43-0.43-0.43h-0.76   c-0.32,0-0.42,0.11-0.42,0.43v8.85c0,0.44,0.05,0.55,0.5,0.76C206.49,388.31,207.41,388.55,208.52,388.55 M200.46,387.22   c-1.08,0-1.31-0.38-1.31-0.93c0-0.58,0.28-0.93,1.33-0.93c0.54,0,1.24,0.05,1.51,0.07v1.49c0,0.13-0.04,0.15-0.15,0.2   C201.62,387.16,201.17,387.22,200.46,387.22 M200.62,388.55c1.14,0,1.99-0.14,2.5-0.36c0.39-0.17,0.5-0.31,0.5-0.79v-3.6   c0-1.64-0.68-2.86-2.96-2.86c-1.46,0-2.4,0.54-2.89,1.44c-0.17,0.32-0.07,0.49,0.24,0.62l0.57,0.22c0.31,0.13,0.39,0.08,0.58-0.21   c0.31-0.44,0.76-0.67,1.46-0.67c1.06,0,1.39,0.51,1.39,1.39v0.42c-0.24-0.03-0.79-0.07-1.33-0.07c-2.22,0-3.14,0.54-3.14,2.21   C197.53,387.75,198.16,388.55,200.62,388.55 M190.2,388.34h0.76c0.32,0,0.43-0.11,0.43-0.43v-5.18c0-0.06,0.03-0.11,0.08-0.14   c0.36-0.1,0.81-0.18,1.33-0.18c1.03,0,1.51,0.45,1.51,1.36v4.14c0,0.32,0.11,0.43,0.43,0.43h0.75c0.32,0,0.43-0.11,0.43-0.43v-4.18   c0-1.76-0.9-2.79-2.89-2.79c-1.33,0-2.17,0.25-2.74,0.47c-0.43,0.18-0.53,0.35-0.53,0.79v5.71   C189.78,388.23,189.88,388.34,190.2,388.34 M183.93,388.55c2.56,0,3.89-1.42,3.89-3.6v-6c0-0.35-0.12-0.47-0.47-0.47h-0.8   c-0.35,0-0.47,0.13-0.47,0.47v6.01c0,1.24-0.71,1.96-2.14,1.96c-1.43,0-2.14-0.72-2.14-1.96v-6.01c0-0.35-0.13-0.47-0.47-0.47   h-0.79c-0.36,0-0.47,0.13-0.47,0.47v6C180.06,387.13,181.38,388.55,183.93,388.55"></path>
	<path style="clip-path:url(#SVGID_00000116213154638728876100000016604843300193856141_);fill:#FFFFFF;" d="M239.03,352.1   c-1.59,1.89-3.13,3.73-4.71,5.62c-1.81,2.2-3.65,4.44-5.51,6.64c-0.04,0.04-0.09,0.09-0.18,0.22c-1.37-1.54-2.69-3.03-4.01-4.57   c-0.62-0.7-1.23-1.4-1.85-2.11c-0.62-0.7-0.57-1.63,0.04-2.2c0.66-0.62,1.59-0.53,2.25,0.22c1.01,1.19,2.07,2.33,3.08,3.52   c0.13,0.13,0.26,0.26,0.4,0.49c0.53-0.62,1.06-1.23,1.54-1.85c2.2-2.64,4.4-5.32,6.65-7.95c0.75-0.88,2.02-0.79,2.55,0.22   C239.6,350.91,239.52,351.53,239.03,352.1 M240.71,345.81c-5.9,0-11.8,0.01-17.7,0.01l-0.01-5.17c0-3.56,2.89-6.45,6.45-6.46   c3.56,0,6.45,2.89,6.45,6.45l0,0.8c0.41,0.68,1.14,1.09,1.93,1.07c1.18-0.03,1.8-1.01,1.84-1.07c0-0.77,0-0.04,0-0.8   c0-5.63-4.59-10.21-10.22-10.21c-5.63,0-10.21,4.59-10.21,10.22l0.01,5.17h-0.37c-1.94,0-3.51,1.57-3.5,3.51v15.39   c0,1.94,1.57,3.51,3.51,3.51l21.83-0.01c1.94,0,3.51-1.57,3.5-3.51v-15.39C244.22,347.37,242.64,345.81,240.71,345.81"></path>
	<path style="clip-path:url(#SVGID_00000116213154638728876100000016604843300193856141_);fill:#FFFFFF;" d="M388.51,294.68v-0.31   c0-0.9,0.57-1.42,1.61-1.42c1.06,0,1.61,0.51,1.61,1.42v0.31H388.51z M390.1,299.21c1.58,0,2.5-0.51,3-1.33   c0.19-0.31,0.15-0.54-0.17-0.69l-0.49-0.26c-0.33-0.18-0.49-0.14-0.7,0.17c-0.31,0.46-0.83,0.74-1.64,0.74   c-1.03,0-1.6-0.49-1.6-1.39v-0.51h4.21c0.47,0,0.62-0.24,0.62-0.6v-0.85c0-1.6-1.01-2.87-3.22-2.87c-2.1,0-3.22,1.07-3.22,3v1.64   C386.9,297.95,387.82,299.21,390.1,299.21 M382.4,299.21c1.67,0,2.64-0.67,3.1-1.85c0.14-0.35,0.01-0.5-0.31-0.62l-0.61-0.18   c-0.35-0.11-0.49-0.05-0.63,0.28c-0.22,0.6-0.69,0.96-1.5,0.96c-1.01,0-1.53-0.5-1.53-1.36v-2.06c0-0.88,0.51-1.36,1.53-1.36   c0.82,0,1.28,0.35,1.5,0.93c0.13,0.33,0.26,0.42,0.61,0.29l0.61-0.2c0.32-0.11,0.42-0.28,0.29-0.62c-0.35-1.04-1.3-1.82-2.96-1.82   c-2.18,0-3.19,1.08-3.19,2.85v1.92C379.32,298.13,380.28,299.21,382.4,299.21 M371.86,299h0.76c0.32,0,0.43-0.11,0.43-0.43v-5.18   c0-0.06,0.03-0.11,0.08-0.14c0.36-0.1,0.81-0.18,1.33-0.18c1.03,0,1.51,0.44,1.51,1.36v4.14c0,0.32,0.11,0.43,0.43,0.43h0.75   c0.32,0,0.43-0.11,0.43-0.43v-4.18c0-1.76-0.9-2.79-2.89-2.79c-1.33,0-2.17,0.25-2.74,0.47c-0.43,0.18-0.53,0.35-0.53,0.79v5.71   C371.44,298.89,371.54,299,371.86,299 M366.4,297.88c-1.08,0-1.31-0.38-1.31-0.93c0-0.58,0.28-0.93,1.33-0.93   c0.54,0,1.24,0.05,1.51,0.07v1.49c0,0.13-0.04,0.15-0.15,0.19C367.55,297.82,367.11,297.88,366.4,297.88 M366.55,299.21   c1.14,0,1.99-0.14,2.5-0.36c0.39-0.17,0.5-0.31,0.5-0.79v-3.6c0-1.64-0.68-2.86-2.96-2.86c-1.46,0-2.4,0.54-2.89,1.44   c-0.17,0.32-0.07,0.49,0.24,0.63l0.57,0.22c0.31,0.13,0.39,0.08,0.58-0.21c0.31-0.45,0.76-0.67,1.46-0.67   c1.06,0,1.39,0.51,1.39,1.39v0.42c-0.24-0.03-0.79-0.07-1.33-0.07c-2.22,0-3.14,0.54-3.14,2.21   C363.47,298.41,364.09,299.21,366.55,299.21 M352.29,299h0.76c0.32,0,0.43-0.11,0.43-0.43v-5.17c0-0.07,0.01-0.13,0.1-0.17   c0.35-0.11,0.68-0.17,1.13-0.17c0.9,0,1.38,0.46,1.38,1.35v4.15c0,0.32,0.11,0.43,0.43,0.43h0.75c0.32,0,0.43-0.11,0.43-0.43v-4.21   c0-0.39-0.04-0.75-0.15-1.04c0.32-0.11,0.79-0.25,1.36-0.25c0.9,0,1.36,0.46,1.36,1.35v4.15c0,0.32,0.11,0.43,0.43,0.43h0.75   c0.32,0,0.43-0.11,0.43-0.43v-4.21c0-1.75-0.83-2.76-2.74-2.76c-1.21,0-1.97,0.26-2.46,0.46c-0.43-0.31-0.99-0.46-1.74-0.46   c-1.24,0-1.99,0.25-2.54,0.47c-0.43,0.18-0.53,0.35-0.53,0.79v5.71C351.87,298.89,351.97,299,352.29,299 M347.03,299h0.76   c0.32,0,0.43-0.11,0.43-0.43v-4.96c0-0.08,0.01-0.14,0.13-0.18c0.36-0.1,0.78-0.17,1.33-0.17h0.5c0.32,0,0.42-0.1,0.42-0.42v-0.62   c0-0.32-0.1-0.42-0.42-0.42h-0.46c-1.24,0-2.07,0.22-2.58,0.42c-0.43,0.17-0.53,0.35-0.53,0.78v5.57   C346.62,298.89,346.72,299,347.03,299 M341.63,297.75c-1.02,0-1.57-0.49-1.57-1.32v-2.06c0-0.85,0.56-1.32,1.57-1.32   c1.04,0,1.6,0.47,1.6,1.32v2.06C343.23,297.27,342.67,297.75,341.63,297.75 M341.63,299.21c2.1,0,3.21-1.05,3.21-2.78v-2.06   c0-1.72-1.11-2.78-3.21-2.78c-2.06,0-3.18,1.05-3.18,2.78v2.06C338.45,298.15,339.57,299.21,341.63,299.21 M334.27,299H335   c0.33,0,0.44-0.11,0.44-0.43v-5.28h1.58c0.32,0,0.43-0.11,0.43-0.43v-0.64c0-0.32-0.11-0.42-0.43-0.42h-1.58v-0.14   c0-1.04,0.4-1.44,1.57-1.44c0.33,0,0.43-0.11,0.43-0.44v-0.61c0-0.33-0.1-0.44-0.43-0.44h-0.14c-2.1,0.04-3.04,1.03-3.04,2.94v0.14   H333c-0.32,0-0.43,0.1-0.43,0.42v0.64c0,0.32,0.11,0.43,0.43,0.43h0.83v5.28C333.84,298.89,333.93,299,334.27,299 M328.32,299h0.76   c0.32,0,0.43-0.11,0.43-0.43v-4.96c0-0.08,0.01-0.14,0.13-0.18c0.36-0.1,0.78-0.17,1.33-0.17h0.5c0.32,0,0.42-0.1,0.42-0.42v-0.62   c0-0.32-0.1-0.42-0.42-0.42h-0.46c-1.24,0-2.07,0.22-2.58,0.42c-0.43,0.17-0.53,0.35-0.53,0.78v5.57   C327.91,298.89,328,299,328.32,299 M321.4,294.68v-0.31c0-0.9,0.57-1.42,1.61-1.42c1.06,0,1.61,0.51,1.61,1.42v0.31H321.4z    M322.99,299.21c1.58,0,2.5-0.51,3-1.33c0.19-0.31,0.15-0.54-0.17-0.69l-0.49-0.26c-0.33-0.18-0.49-0.14-0.69,0.17   c-0.31,0.46-0.83,0.74-1.64,0.74c-1.03,0-1.6-0.49-1.6-1.39v-0.51h4.21c0.47,0,0.62-0.24,0.62-0.6v-0.85c0-1.6-1.01-2.87-3.22-2.87   c-2.1,0-3.22,1.07-3.22,3v1.64C319.79,297.95,320.71,299.21,322.99,299.21 M312.87,293.95v-3.18h2.25c1.02,0,1.63,0.6,1.63,1.6   c0,1-0.61,1.58-1.63,1.58H312.87z M311.61,299h0.79c0.36,0,0.47-0.13,0.47-0.47v-2.96h2.42c2.01,0,3.28-1.19,3.28-3.21   c0-2.01-1.26-3.22-3.28-3.22h-3.68c-0.36,0-0.47,0.13-0.47,0.47v8.92C311.14,298.88,311.25,299,311.61,299"></path>
	<path style="clip-path:url(#SVGID_00000116213154638728876100000016604843300193856141_);fill:#FFFFFF;" d="M396.24,281.57   c-1,0-1.56-0.49-1.56-1.39v-1.81c0-0.99,0.51-1.47,1.61-1.47c0.54,0,1.02,0.11,1.33,0.18v4.18c0,0.08-0.01,0.11-0.11,0.15   C397.17,281.51,396.74,281.57,396.24,281.57 M396.09,283.04c1.27,0,2.06-0.24,2.61-0.44c0.44-0.18,0.54-0.31,0.54-0.76v-8.85   c0-0.32-0.11-0.43-0.43-0.43h-0.75c-0.32,0-0.43,0.11-0.43,0.43v2.63c-0.38-0.07-0.96-0.18-1.65-0.18c-1.92,0-2.9,1.03-2.9,2.9v1.9   C393.07,282.01,394.03,283.04,396.09,283.04 M385.6,282.83h0.76c0.32,0,0.43-0.11,0.43-0.43v-5.18c0-0.06,0.03-0.11,0.08-0.14   c0.36-0.1,0.81-0.18,1.33-0.18c1.03,0,1.51,0.44,1.51,1.36v4.14c0,0.32,0.11,0.43,0.43,0.43h0.75c0.32,0,0.43-0.11,0.43-0.43v-4.18   c0-1.76-0.9-2.79-2.89-2.79c-1.33,0-2.17,0.25-2.74,0.47c-0.43,0.18-0.53,0.35-0.53,0.79v5.71   C385.18,282.72,385.28,282.83,385.6,282.83 M379.93,283.04c1.33,0,2.17-0.26,2.74-0.49c0.43-0.18,0.53-0.35,0.53-0.78v-5.72   c0-0.32-0.11-0.42-0.43-0.42h-0.75c-0.32,0-0.43,0.1-0.43,0.42v5.11c0,0.11-0.03,0.19-0.15,0.24c-0.36,0.11-0.74,0.17-1.27,0.17   c-1.03,0-1.51-0.44-1.51-1.38v-4.14c0-0.32-0.11-0.42-0.43-0.42h-0.76c-0.32,0-0.42,0.1-0.42,0.42v4.2   C377.04,282,377.94,283.04,379.93,283.04 M362.3,282.83h0.76c0.32,0,0.43-0.11,0.43-0.43v-5.17c0-0.07,0.01-0.13,0.1-0.17   c0.35-0.11,0.68-0.17,1.13-0.17c0.9,0,1.38,0.46,1.38,1.35v4.15c0,0.32,0.11,0.43,0.43,0.43h0.75c0.32,0,0.43-0.11,0.43-0.43v-4.21   c0-0.39-0.04-0.75-0.15-1.04c0.32-0.11,0.79-0.25,1.36-0.25c0.9,0,1.36,0.46,1.36,1.35v4.15c0,0.32,0.11,0.43,0.43,0.43h0.75   c0.32,0,0.43-0.11,0.43-0.43v-4.21c0-1.75-0.83-2.76-2.74-2.76c-1.21,0-1.97,0.26-2.46,0.46c-0.43-0.31-0.99-0.46-1.74-0.46   c-1.24,0-1.99,0.25-2.54,0.47c-0.43,0.18-0.53,0.35-0.53,0.79v5.71C361.89,282.72,361.98,282.83,362.3,282.83 M356.63,283.04   c1.33,0,2.17-0.26,2.74-0.49c0.43-0.18,0.53-0.35,0.53-0.78v-5.72c0-0.32-0.11-0.42-0.43-0.42h-0.75c-0.32,0-0.43,0.1-0.43,0.42   v5.11c0,0.11-0.03,0.19-0.15,0.24c-0.36,0.11-0.74,0.17-1.27,0.17c-1.03,0-1.51-0.44-1.51-1.38v-4.14c0-0.32-0.11-0.42-0.43-0.42   h-0.76c-0.32,0-0.42,0.1-0.42,0.42v4.2C353.74,282,354.65,283.04,356.63,283.04 M351.88,282.83c0.32,0,0.43-0.13,0.43-0.44v-0.65   c0-0.32-0.11-0.43-0.43-0.43c-1.17,0-1.58-0.24-1.58-1.6v-2.58h1.6c0.32,0,0.42-0.11,0.42-0.43v-0.64c0-0.32-0.1-0.42-0.42-0.42   h-1.6v-1.25c0-0.32-0.1-0.42-0.42-0.42h-0.76c-0.32,0-0.43,0.1-0.43,0.42v1.25h-0.94c-0.32,0-0.43,0.1-0.43,0.42v0.64   c0,0.32,0.11,0.43,0.43,0.43h0.94v2.64C348.69,282.16,349.53,282.83,351.88,282.83 M343.35,283.04c1.97,0,3.01-0.96,3.01-2.32   c0-1.69-1.17-2.07-2.83-2.24c-1.07-0.1-1.63-0.21-1.63-0.86c0-0.5,0.4-0.76,1.31-0.76c0.89,0,1.27,0.32,1.5,0.74   c0.18,0.29,0.28,0.33,0.6,0.19l0.61-0.25c0.31-0.14,0.4-0.31,0.23-0.62c-0.46-0.9-1.37-1.48-2.97-1.48c-1.92,0-2.88,0.92-2.88,2.23   c0,1.81,1.44,2.1,2.82,2.24c1.11,0.11,1.67,0.24,1.67,0.89c0,0.54-0.5,0.82-1.49,0.82c-0.85,0-1.35-0.22-1.57-0.76   c-0.14-0.32-0.28-0.36-0.57-0.26l-0.62,0.19c-0.31,0.11-0.39,0.29-0.28,0.58C340.7,282.44,341.73,283.04,343.35,283.04    M332.89,282.83h0.76c0.32,0,0.43-0.11,0.43-0.43v-5.29c0.13-0.07,0.74-0.21,1.42-0.21c0.99,0,1.51,0.47,1.51,1.36v4.14   c0,0.32,0.11,0.43,0.43,0.43h0.75c0.33,0,0.43-0.11,0.43-0.43v-4.18c0-1.76-0.9-2.79-2.89-2.79c-0.82,0-1.53,0.13-1.66,0.19v-2.64   c0-0.32-0.11-0.43-0.43-0.43h-0.76c-0.32,0-0.42,0.11-0.42,0.43v9.42C332.48,282.72,332.57,282.83,332.89,282.83 M327.71,283.04   c1.67,0,2.64-0.67,3.1-1.85c0.14-0.35,0.01-0.5-0.31-0.62l-0.61-0.18c-0.35-0.11-0.49-0.05-0.63,0.28c-0.22,0.6-0.69,0.96-1.5,0.96   c-1.02,0-1.53-0.5-1.53-1.36v-2.06c0-0.88,0.51-1.36,1.53-1.36c0.82,0,1.28,0.35,1.5,0.93c0.13,0.33,0.26,0.42,0.61,0.29l0.61-0.2   c0.32-0.11,0.42-0.28,0.29-0.62c-0.35-1.04-1.3-1.82-2.96-1.82c-2.18,0-3.19,1.08-3.19,2.85v1.92   C324.63,281.96,325.59,283.04,327.71,283.04 M319.81,281.71c-1.09,0-1.31-0.38-1.31-0.93c0-0.58,0.28-0.93,1.33-0.93   c0.54,0,1.24,0.05,1.52,0.07v1.49c0,0.13-0.04,0.15-0.15,0.19C320.96,281.65,320.52,281.71,319.81,281.71 M319.96,283.04   c1.14,0,1.99-0.14,2.5-0.36c0.39-0.17,0.5-0.31,0.5-0.79v-3.6c0-1.64-0.68-2.86-2.96-2.86c-1.46,0-2.4,0.54-2.89,1.44   c-0.17,0.32-0.07,0.49,0.24,0.63l0.57,0.22c0.31,0.13,0.39,0.08,0.58-0.21c0.31-0.45,0.76-0.67,1.46-0.67   c1.06,0,1.39,0.51,1.39,1.39v0.42c-0.24-0.03-0.79-0.07-1.33-0.07c-2.22,0-3.14,0.54-3.14,2.21   C316.88,282.23,317.5,283.04,319.96,283.04 M307.15,282.83h0.75c0.33,0,0.5-0.05,0.58-0.39l1.47-5.51   c0.13-0.47,0.22-1.03,0.25-1.56h0.08c0.03,0.53,0.13,1.12,0.24,1.57l1.44,5.51c0.07,0.31,0.26,0.38,0.58,0.38h0.76   c0.32,0,0.5-0.05,0.58-0.39l2.29-9.02c0.08-0.32,0.04-0.46-0.31-0.46h-0.85c-0.39,0-0.56,0.07-0.62,0.42l-1.11,5.19   c-0.11,0.54-0.22,1.63-0.24,1.85h-0.08c-0.03-0.26-0.14-1.26-0.31-1.86l-1.36-5.14c-0.08-0.35-0.28-0.42-0.64-0.42h-0.74   c-0.36,0-0.54,0.07-0.64,0.42l-1.4,5.14c-0.14,0.54-0.26,1.57-0.28,1.86h-0.08c-0.01-0.24-0.12-1.38-0.22-1.86l-1.14-5.18   c-0.07-0.35-0.24-0.42-0.63-0.42h-0.97c-0.35,0-0.39,0.14-0.31,0.46l2.29,9.03C306.63,282.78,306.83,282.83,307.15,282.83"></path>
</g>
<polygon class="st0" points="367.42,258.64 367.42,235.28 359.61,235.28 359.61,258.64 355.9,258.64 355.9,243.18 348.09,243.18   348.09,258.64 344.38,258.64 344.38,247.93 336.57,247.93 336.57,258.64 331.92,258.64 331.92,262.71 372.06,262.71 372.06,258.64   "></polygon>
<polygon class="st0" points="336.23,245.82 352.66,234.56 355.24,238.6 357.98,227.58 347.28,226.11 350.07,230.49 334.97,244.57   "></polygon>
<g>
	<defs>
		<rect id="SVGID_00000094579942278415893460000017557462787588174245_" x="40.98" y="41.03" width="378.03" height="377.95"></rect>
	</defs>
	<clipPath id="SVGID_00000007408064188164423450000006521352454246540934_">
		<use xlink:href="#SVGID_00000094579942278415893460000017557462787588174245_" style="overflow:visible;"></use>
	</clipPath>
	<path style="clip-path:url(#SVGID_00000007408064188164423450000006521352454246540934_);fill:#FFFFFF;" d="M136.54,299.02h4.86   c0.32,0,0.43-0.11,0.43-0.43V298c0-0.32-0.11-0.43-0.43-0.43h-3.24l3.43-4.25c0.13-0.15,0.17-0.25,0.17-0.46v-0.61   c0-0.32-0.11-0.42-0.43-0.42h-4.72c-0.32,0-0.43,0.1-0.43,0.42v0.61c0,0.32,0.11,0.43,0.43,0.43h3.06l-3.4,4.28   c-0.13,0.14-0.15,0.21-0.15,0.43v0.6C136.11,298.91,136.22,299.02,136.54,299.02 M128.8,299.02h0.76c0.32,0,0.43-0.11,0.43-0.43   v-5.18c0-0.06,0.03-0.11,0.08-0.14c0.36-0.1,0.81-0.18,1.33-0.18c1.03,0,1.51,0.44,1.51,1.36v4.14c0,0.32,0.11,0.43,0.43,0.43h0.75   c0.32,0,0.43-0.11,0.43-0.43v-4.18c0-1.76-0.9-2.79-2.89-2.79c-1.33,0-2.17,0.25-2.74,0.47c-0.43,0.18-0.53,0.35-0.53,0.79v5.71   C128.38,298.91,128.48,299.02,128.8,299.02 M121.88,294.7v-0.31c0-0.9,0.57-1.42,1.61-1.42c1.06,0,1.61,0.51,1.61,1.42v0.31H121.88   z M123.47,299.23c1.58,0,2.5-0.51,3-1.33c0.19-0.31,0.15-0.54-0.17-0.69l-0.49-0.26c-0.33-0.18-0.49-0.14-0.69,0.17   c-0.31,0.46-0.83,0.74-1.64,0.74c-1.03,0-1.6-0.49-1.6-1.39v-0.51h4.21c0.47,0,0.62-0.24,0.62-0.6v-0.85c0-1.6-1.01-2.87-3.22-2.87   c-2.1,0-3.22,1.07-3.22,3v1.64C120.27,297.97,121.19,299.23,123.47,299.23 M118.6,299.02c0.32,0,0.43-0.13,0.43-0.44v-0.65   c0-0.32-0.11-0.43-0.43-0.43c-1.17,0-1.58-0.24-1.58-1.6v-2.58h1.6c0.32,0,0.42-0.11,0.42-0.43v-0.64c0-0.32-0.1-0.42-0.42-0.42   h-1.6v-1.25c0-0.32-0.1-0.42-0.42-0.42h-0.76c-0.32,0-0.43,0.1-0.43,0.42v1.25h-0.94c-0.32,0-0.43,0.1-0.43,0.42v0.64   c0,0.32,0.11,0.43,0.43,0.43h0.94v2.64C115.41,298.36,116.26,299.02,118.6,299.02 M108.21,294.7v-0.31c0-0.9,0.57-1.42,1.61-1.42   c1.06,0,1.61,0.51,1.61,1.42v0.31H108.21z M109.8,299.23c1.58,0,2.5-0.51,3-1.33c0.19-0.31,0.15-0.54-0.17-0.69l-0.49-0.26   c-0.33-0.18-0.49-0.14-0.7,0.17c-0.31,0.46-0.83,0.74-1.64,0.74c-1.03,0-1.6-0.49-1.6-1.39v-0.51h4.21c0.47,0,0.62-0.24,0.62-0.6   v-0.85c0-1.6-1.01-2.87-3.22-2.87c-2.1,0-3.22,1.07-3.22,3v1.64C106.6,297.97,107.52,299.23,109.8,299.23 M101.85,297.76   c-0.54,0-1.02-0.13-1.33-0.21v-4.13c0-0.1,0.01-0.14,0.13-0.18c0.35-0.1,0.75-0.15,1.26-0.15c1,0,1.54,0.47,1.54,1.38v1.81   C103.45,297.27,102.95,297.76,101.85,297.76 M99.32,302.08h0.76c0.32,0,0.43-0.11,0.43-0.43v-2.67c0.36,0.1,0.88,0.25,1.45,0.25   c2.1,0,3.1-1.04,3.1-2.9v-1.9c0-1.78-0.92-2.8-2.93-2.8c-1.29,0-2.12,0.19-2.68,0.4c-0.44,0.18-0.54,0.35-0.54,0.79v8.84   C98.91,301.97,99,302.08,99.32,302.08 M87.38,299.02h0.76c0.32,0,0.43-0.11,0.43-0.43v-5.17c0-0.07,0.01-0.13,0.1-0.17   c0.35-0.11,0.68-0.17,1.13-0.17c0.9,0,1.38,0.46,1.38,1.35v4.15c0,0.32,0.11,0.43,0.43,0.43h0.75c0.32,0,0.43-0.11,0.43-0.43v-4.21   c0-0.39-0.04-0.75-0.15-1.04c0.32-0.11,0.79-0.25,1.36-0.25c0.9,0,1.36,0.46,1.36,1.35v4.15c0,0.32,0.11,0.43,0.43,0.43h0.75   c0.32,0,0.43-0.11,0.43-0.43v-4.21c0-1.75-0.83-2.76-2.74-2.76c-1.21,0-1.97,0.26-2.46,0.46c-0.43-0.31-0.99-0.46-1.74-0.46   c-1.24,0-1.99,0.25-2.54,0.47c-0.43,0.18-0.53,0.35-0.53,0.79v5.71C86.96,298.91,87.06,299.02,87.38,299.02 M81.97,297.77   c-1.01,0-1.57-0.49-1.57-1.32v-2.06c0-0.85,0.56-1.32,1.57-1.32c1.04,0,1.6,0.47,1.6,1.32v2.06   C83.57,297.29,83.01,297.77,81.97,297.77 M81.97,299.23c2.1,0,3.21-1.05,3.21-2.78v-2.06c0-1.72-1.11-2.78-3.21-2.78   c-2.06,0-3.18,1.05-3.18,2.78v2.06C78.79,298.18,79.92,299.23,81.97,299.23 M71.93,299.02h0.71c0.35,0,0.46-0.11,0.46-0.44v-2.47   h0.83c0.58,0,0.87,0.2,1.1,0.68l0.86,1.85c0.17,0.33,0.26,0.39,0.75,0.39h0.69c0.42,0,0.46-0.14,0.28-0.51l-1.22-2.43   c-0.28-0.57-0.57-0.94-1-1.15l2.1-2.6c0.25-0.32,0.15-0.5-0.28-0.5h-0.68c-0.47,0-0.61,0-0.83,0.32l-1.87,2.46h-0.11h-0.61v-5.42   c0-0.33-0.11-0.44-0.46-0.44h-0.71c-0.35,0-0.44,0.11-0.44,0.44v9.39C71.48,298.91,71.58,299.02,71.93,299.02"></path>
	<path style="clip-path:url(#SVGID_00000007408064188164423450000006521352454246540934_);fill:#FFFFFF;" d="M135.88,279.93h3.19   c0.36,0,0.47-0.12,0.47-0.49v-0.6c0-0.36-0.11-0.47-0.47-0.47h-3.19c-0.35,0-0.47,0.11-0.47,0.47v0.6   C135.41,279.81,135.53,279.93,135.88,279.93 M127.72,282.85h0.76c0.32,0,0.43-0.11,0.43-0.43v-5.18c0-0.06,0.03-0.11,0.08-0.14   c0.36-0.1,0.81-0.18,1.33-0.18c1.03,0,1.52,0.44,1.52,1.36v4.14c0,0.32,0.11,0.43,0.43,0.43h0.75c0.32,0,0.43-0.11,0.43-0.43v-4.18   c0-1.76-0.9-2.79-2.89-2.79c-1.33,0-2.17,0.25-2.74,0.47c-0.43,0.18-0.53,0.35-0.53,0.79v5.71   C127.31,282.74,127.41,282.85,127.72,282.85 M120.8,278.53v-0.31c0-0.9,0.57-1.42,1.61-1.42c1.06,0,1.61,0.51,1.61,1.42v0.31H120.8   z M122.39,283.06c1.58,0,2.5-0.51,3-1.33c0.19-0.31,0.15-0.54-0.17-0.69l-0.49-0.26c-0.33-0.18-0.49-0.14-0.69,0.17   c-0.31,0.46-0.83,0.74-1.64,0.74c-1.03,0-1.6-0.49-1.6-1.39v-0.51h4.21c0.47,0,0.62-0.24,0.62-0.6v-0.85c0-1.6-1.01-2.87-3.22-2.87   c-2.1,0-3.22,1.07-3.22,3v1.64C119.19,281.8,120.11,283.06,122.39,283.06 M111.75,282.85h0.76c0.32,0,0.43-0.11,0.43-0.43v-5.29   c0.13-0.07,0.74-0.21,1.42-0.21c0.99,0,1.51,0.47,1.51,1.36v4.14c0,0.32,0.11,0.43,0.43,0.43h0.75c0.33,0,0.43-0.11,0.43-0.43   v-4.18c0-1.76-0.9-2.79-2.89-2.79c-0.82,0-1.53,0.13-1.65,0.19V273c0-0.32-0.11-0.43-0.43-0.43h-0.76c-0.32,0-0.42,0.11-0.42,0.43   v9.42C111.33,282.74,111.43,282.85,111.75,282.85 M106.57,283.06c1.67,0,2.64-0.67,3.1-1.85c0.14-0.35,0.01-0.5-0.31-0.62   l-0.61-0.18c-0.35-0.11-0.49-0.05-0.62,0.28c-0.22,0.6-0.69,0.96-1.5,0.96c-1.01,0-1.53-0.5-1.53-1.36v-2.06   c0-0.88,0.51-1.36,1.53-1.36c0.82,0,1.28,0.35,1.5,0.93c0.13,0.33,0.26,0.42,0.61,0.29l0.61-0.2c0.32-0.11,0.42-0.28,0.29-0.62   c-0.35-1.04-1.3-1.82-2.96-1.82c-2.18,0-3.19,1.08-3.19,2.85v1.92C103.48,281.98,104.44,283.06,106.57,283.06 M96.02,282.85h0.76   c0.32,0,0.43-0.11,0.43-0.43v-5.18c0-0.06,0.03-0.11,0.08-0.14c0.36-0.1,0.81-0.18,1.33-0.18c1.03,0,1.51,0.44,1.51,1.36v4.14   c0,0.32,0.11,0.43,0.43,0.43h0.75c0.32,0,0.43-0.11,0.43-0.43v-4.18c0-1.76-0.9-2.79-2.89-2.79c-1.33,0-2.17,0.25-2.74,0.47   c-0.43,0.18-0.53,0.35-0.53,0.79v5.71C95.61,282.74,95.7,282.85,96.02,282.85 M90.56,281.73c-1.08,0-1.31-0.38-1.31-0.93   c0-0.58,0.28-0.93,1.33-0.93c0.54,0,1.24,0.05,1.52,0.07v1.49c0,0.13-0.04,0.15-0.15,0.19C91.72,281.67,91.27,281.73,90.56,281.73    M90.72,283.06c1.14,0,1.99-0.14,2.5-0.36c0.39-0.17,0.5-0.31,0.5-0.79v-3.6c0-1.64-0.68-2.86-2.96-2.86   c-1.46,0-2.4,0.54-2.89,1.44c-0.17,0.32-0.07,0.49,0.24,0.63l0.57,0.22c0.31,0.13,0.39,0.08,0.58-0.21   c0.31-0.45,0.76-0.67,1.46-0.67c1.06,0,1.39,0.51,1.39,1.39v0.42c-0.24-0.03-0.79-0.07-1.33-0.07c-2.22,0-3.14,0.54-3.14,2.21   C87.63,282.25,88.26,283.06,90.72,283.06 M83.22,282.85h0.76c0.32,0,0.43-0.11,0.43-0.43v-4.96c0-0.08,0.01-0.14,0.13-0.18   c0.36-0.1,0.78-0.17,1.33-0.17h0.5c0.32,0,0.42-0.1,0.42-0.42v-0.62c0-0.32-0.1-0.42-0.42-0.42h-0.46c-1.24,0-2.07,0.22-2.58,0.42   c-0.43,0.17-0.53,0.35-0.53,0.78v5.57C82.8,282.74,82.9,282.85,83.22,282.85 M75.27,281.23v-2.58h2.63c0.88,0,1.33,0.46,1.33,1.31   c0,0.85-0.46,1.28-1.33,1.28H75.27z M75.27,277.06v-2.45h2.38c0.83,0,1.28,0.4,1.28,1.22c0,0.83-0.44,1.22-1.28,1.22H75.27z    M74.01,282.85h3.95c1.81,0,3.12-0.96,3.12-2.71c0-1.25-0.53-2.09-1.41-2.4v-0.05c0.72-0.43,1.04-1.1,1.04-2.1   c0-1.67-1.05-2.6-2.83-2.6h-3.86c-0.36,0-0.47,0.13-0.47,0.47v8.92C73.53,282.73,73.64,282.85,74.01,282.85"></path>
</g>
<path class="st0" d="M94.3,231.88l14.04,6.09v22.12h-4.61v-6.46h-4.82v6.46H94.3V231.88z M114.1,249.71h3.16v3.16h-3.16V249.71z   M114.1,242.17h3.16v3.16h-3.16V242.17z M114.1,234.63h3.16v3.16h-3.16V234.63z M121.84,260.08v-37.26l-15.49,8.39v2.58l-15.09-6.54  v32.83H87.7v2.4h37.51v-2.4H121.84z"></path>
<rect x="96.86" y="239.33" class="st0" width="3.16" height="3.16"></rect>
<rect x="102.61" y="239.33" class="st0" width="3.16" height="3.16"></rect>
<rect x="96.86" y="244.96" class="st0" width="3.16" height="3.16"></rect>
<rect x="102.61" y="244.96" class="st0" width="3.16" height="3.16"></rect>
<g>
	<defs>
		<rect id="SVGID_00000008855472770534979650000016607066001211841458_" x="40.98" y="41.03" width="378.03" height="377.95"></rect>
	</defs>
	<clipPath id="SVGID_00000159440709045393520450000010595987452827093170_">
		<use xlink:href="#SVGID_00000008855472770534979650000016607066001211841458_" style="overflow:visible;"></use>
	</clipPath>
	<path style="clip-path:url(#SVGID_00000159440709045393520450000010595987452827093170_);fill:#FFFFFF;" d="M316.01,151.35   c2.56,0,3.97-1.39,3.97-3.28v-1.86c0-0.36-0.12-0.47-0.49-0.47h-3.33c-0.35,0-0.47,0.11-0.47,0.47v0.67c0,0.36,0.13,0.49,0.47,0.49   h2.1v0.72c0,0.94-0.82,1.64-2.25,1.64c-1.43,0-2.22-0.7-2.22-1.99v-3.07c0-1.28,0.79-1.97,2.22-1.97c1.17,0,1.82,0.43,2.13,1.28   c0.13,0.35,0.28,0.42,0.61,0.29l0.75-0.26c0.33-0.13,0.42-0.28,0.29-0.61c-0.51-1.5-1.74-2.32-3.78-2.32   c-2.56,0-3.97,1.39-3.97,3.61v3.04C312.04,149.96,313.46,151.35,316.01,151.35 M306.51,151.35c2.56,0,3.96-1.26,3.96-3.11   c0-2.32-1.89-2.72-3.53-2.9c-1.27-0.14-2.4-0.32-2.4-1.32c0-0.86,0.67-1.28,2.03-1.28c1.1,0,1.64,0.43,2.02,1.17   c0.17,0.32,0.29,0.38,0.6,0.24l0.78-0.33c0.33-0.15,0.42-0.32,0.25-0.64c-0.65-1.38-1.67-2.1-3.64-2.1c-2.51,0-3.81,1.28-3.81,3.04   c0,2.43,2.07,2.7,3.76,2.88c1.18,0.13,2.2,0.33,2.2,1.29c0,1-0.78,1.45-2.21,1.45c-1.08,0-1.81-0.47-2.17-1.29   c-0.14-0.33-0.26-0.4-0.6-0.29l-0.75,0.28c-0.35,0.11-0.42,0.26-0.31,0.61C303.26,150.53,304.36,151.35,306.51,151.35    M295.13,151.14h5.68c0.35,0,0.47-0.13,0.47-0.47v-0.68c0-0.35-0.12-0.47-0.47-0.47h-4.42v-2.56h3.6c0.36,0,0.47-0.12,0.47-0.47   v-0.68c0-0.35-0.11-0.47-0.47-0.47h-3.6v-2.43h4.26c0.35,0,0.47-0.13,0.47-0.47v-0.68c0-0.35-0.13-0.47-0.47-0.47h-5.53   c-0.36,0-0.47,0.13-0.47,0.47v8.92C294.66,151.01,294.77,151.14,295.13,151.14"></path>
	<path style="clip-path:url(#SVGID_00000159440709045393520450000010595987452827093170_);fill:#FFFFFF;" d="M322.86,114.61   c-4.53,3.05-6.29,3.98-8.03,5.02c-2.57,1.54-4.19,1.75-8.11,1.77c-2.64-0.04-4-2.17,3.32-2.64c4.3-0.28,6.42-1.6,6.07-3.45   c-0.4-2.13-7.19-1.08-12.64-0.92c-2.82,0.08-5.73,1.37-7.8,2.54v11.89c7.68-0.03,15.53-0.23,15.53-0.23c2.32,0,3.15-0.85,3.15-0.85   s7.75-6.09,10.97-9.02C328.76,115.58,326.16,112.39,322.86,114.61"></path>
	<path style="clip-path:url(#SVGID_00000159440709045393520450000010595987452827093170_);fill:#FFFFFF;" d="M292.43,113.3h-6.18   v17.43h6.03c0,0,1.33-0.14,1.41-1.25v-14.58C293.7,113.53,292.43,113.3,292.43,113.3"></path>
	<path style="clip-path:url(#SVGID_00000159440709045393520450000010595987452827093170_);fill:#FFFFFF;" d="M305.99,102.17   c2.17,5.94-0.14,9.51-0.14,9.51h2.52h1.59h1.21c0,0-0.99-1.72-1.11-3.8c-0.06-1.14-0.07-2.38,0.13-3.61   c0.07-0.29,0.67-2.3,4.39-2.09c3.95,0.23,9.61,0,12.78-6.16c0,0-2.76-1.69-4.14-2.06c0,0-6.03-1.92-10.47,2.06   c-3.02,2.7-3.96,5.71-4.25,7.37c-0.16-0.47-0.34-0.94-0.55-1.4c0,0,0,0,0,0c0,0-0.74-2-3.11-4.44c-2.53-2.59-5.22-3.93-6.96-4.58   c-0.28-0.11-0.03-0.19,0.24-0.13c2.27,0.51,5.06,0.96,8.63,4.44c1.17,1.14,1.67,2.04,1.89,2.74c0.59-5.12-2.98-8.27-6.98-9.54   c-2.57-0.82-5.27-0.72-7.33-0.22c-1.79,0.44-3.37,0.86-3.37,0.86c3.09,10.84,11.81,10.82,11.81,10.82   C303.92,102.16,305.05,102.2,305.99,102.17"></path>
	<path style="clip-path:url(#SVGID_00000159440709045393520450000010595987452827093170_);fill:#FFFFFF;" d="M230,299.76   c38.53,0,69.76-31.23,69.76-69.76c0-38.53-31.23-69.76-69.76-69.76c-38.53,0-69.76,31.23-69.76,69.76   C160.25,268.52,191.48,299.76,230,299.76"></path>
	<path style="clip-path:url(#SVGID_00000159440709045393520450000010595987452827093170_);fill:#B2B2B2;" d="M279.62,246.36   c2.69,0,4.18-1.46,4.18-3.45v-1.96c0-0.38-0.13-0.5-0.51-0.5h-3.51c-0.37,0-0.5,0.12-0.5,0.5v0.7c0,0.38,0.13,0.51,0.5,0.51h2.21   v0.76c0,1-0.86,1.73-2.37,1.73c-1.51,0-2.34-0.73-2.34-2.09v-3.23c0-1.35,0.83-2.08,2.34-2.08c1.23,0,1.92,0.45,2.24,1.35   c0.13,0.37,0.29,0.44,0.64,0.31l0.79-0.28c0.35-0.13,0.44-0.29,0.31-0.64c-0.54-1.58-1.83-2.44-3.98-2.44   c-2.69,0-4.18,1.46-4.18,3.8v3.2C275.44,244.9,276.93,246.36,279.62,246.36 M268.42,242.31l1.12-3.09   c0.31-0.89,0.31-1.75,0.31-1.76h0.12c0,0.02,0.03,0.88,0.34,1.78l1.11,3.08H268.42z M265.62,246.14h0.67   c0.63,0,0.79-0.09,0.91-0.44l0.7-1.89h4.02l0.69,1.89c0.1,0.35,0.28,0.44,0.91,0.44h0.76c0.37,0,0.44-0.16,0.32-0.48l-3.65-9.5   c-0.1-0.32-0.28-0.4-0.61-0.4h-0.77c-0.34,0-0.48,0.07-0.61,0.41l-3.64,9.49C265.17,245.98,265.26,246.14,265.62,246.14    M261.38,246.14c0.34,0,0.45-0.13,0.45-0.47v-0.69c0-0.34-0.12-0.45-0.45-0.45c-1.23,0-1.67-0.25-1.67-1.68v-2.72h1.68   c0.34,0,0.44-0.12,0.44-0.45v-0.67c0-0.34-0.1-0.44-0.44-0.44h-1.68v-1.32c0-0.34-0.1-0.44-0.44-0.44h-0.8   c-0.34,0-0.45,0.1-0.45,0.44v1.32h-0.99c-0.34,0-0.45,0.1-0.45,0.44v0.67c0,0.34,0.12,0.45,0.45,0.45h0.99v2.78   C258.02,245.44,258.91,246.14,261.38,246.14 M249.48,246.14h0.8c0.34,0,0.45-0.12,0.45-0.45v-5.46c0-0.06,0.03-0.12,0.09-0.15   c0.38-0.1,0.85-0.19,1.4-0.19c1.08,0,1.59,0.47,1.59,1.43v4.36c0,0.34,0.12,0.45,0.45,0.45h0.79c0.34,0,0.45-0.12,0.45-0.45v-4.4   c0-1.86-0.95-2.94-3.04-2.94c-1.4,0-2.28,0.26-2.88,0.5c-0.45,0.19-0.56,0.37-0.56,0.83v6.01   C249.04,246.03,249.14,246.14,249.48,246.14 M242.42,241.6v-0.32c0-0.95,0.6-1.49,1.7-1.49c1.11,0,1.7,0.54,1.7,1.49v0.32H242.42z    M244.08,246.36c1.67,0,2.63-0.54,3.16-1.4c0.21-0.32,0.16-0.57-0.17-0.73l-0.51-0.28c-0.35-0.19-0.51-0.15-0.73,0.18   c-0.32,0.48-0.88,0.77-1.73,0.77c-1.08,0-1.68-0.51-1.68-1.46v-0.54h4.43c0.5,0,0.66-0.25,0.66-0.63v-0.89   c0-1.68-1.07-3.03-3.39-3.03c-2.21,0-3.39,1.12-3.39,3.16v1.73C240.72,245.03,241.68,246.36,244.08,246.36 M229.05,246.14h0.8   c0.34,0,0.45-0.12,0.45-0.45v-5.44c0-0.07,0.01-0.13,0.1-0.18c0.37-0.12,0.72-0.18,1.19-0.18c0.95,0,1.45,0.48,1.45,1.42v4.37   c0,0.34,0.12,0.45,0.45,0.45h0.79c0.34,0,0.45-0.12,0.45-0.45v-4.43c0-0.41-0.04-0.79-0.16-1.1c0.34-0.12,0.83-0.26,1.43-0.26   c0.95,0,1.43,0.48,1.43,1.42v4.37c0,0.34,0.12,0.45,0.45,0.45h0.79c0.34,0,0.45-0.12,0.45-0.45v-4.43c0-1.84-0.88-2.91-2.88-2.91   c-1.27,0-2.08,0.28-2.59,0.48c-0.45-0.32-1.04-0.48-1.83-0.48c-1.3,0-2.09,0.26-2.68,0.5c-0.45,0.19-0.56,0.37-0.56,0.83v6.01   C228.61,246.03,228.72,246.14,229.05,246.14 M221.99,241.6v-0.32c0-0.95,0.6-1.49,1.7-1.49c1.11,0,1.7,0.54,1.7,1.49v0.32H221.99z    M223.65,246.36c1.67,0,2.63-0.54,3.16-1.4c0.2-0.32,0.16-0.57-0.17-0.73l-0.51-0.28c-0.35-0.19-0.51-0.15-0.73,0.18   c-0.32,0.48-0.88,0.77-1.73,0.77c-1.08,0-1.68-0.51-1.68-1.46v-0.54h4.43c0.5,0,0.66-0.25,0.66-0.63v-0.89   c0-1.68-1.07-3.03-3.39-3.03c-2.21,0-3.39,1.12-3.39,3.16v1.73C220.29,245.03,221.26,246.36,223.65,246.36 M215.46,244.46   c-1.04,0-1.58-0.51-1.58-1.43v-1.55c0-1.08,0.54-1.58,1.73-1.58c0.47,0,0.91,0.07,1.24,0.16c0.1,0.04,0.12,0.07,0.12,0.18v4.02   C216.61,244.35,216.09,244.46,215.46,244.46 M215.45,249.58c2.3,0,3.22-1.27,3.22-3.19v-6.79c0-0.47-0.07-0.58-0.54-0.8   c-0.51-0.23-1.46-0.45-2.65-0.45c-2.22,0-3.29,1.08-3.29,3.07v1.65c0,1.84,0.95,2.94,3.03,2.94c0.7,0,1.32-0.14,1.76-0.26v0.73   c0,1.02-0.53,1.58-1.55,1.58c-0.81,0-1.23-0.26-1.54-0.75c-0.22-0.31-0.38-0.35-0.73-0.18l-0.55,0.31   c-0.34,0.17-0.4,0.41-0.18,0.73C212.93,249.04,213.87,249.58,215.45,249.58 M207.32,244.96c-1.14,0-1.38-0.4-1.38-0.98   c0-0.61,0.29-0.98,1.4-0.98c0.57,0,1.3,0.06,1.59,0.07v1.57c0,0.13-0.04,0.16-0.16,0.21C208.53,244.9,208.07,244.96,207.32,244.96    M207.48,246.36c1.2,0,2.09-0.15,2.63-0.38c0.41-0.18,0.53-0.32,0.53-0.83v-3.79c0-1.73-0.72-3.01-3.11-3.01   c-1.54,0-2.53,0.57-3.04,1.52c-0.18,0.34-0.07,0.51,0.25,0.66l0.6,0.23c0.32,0.13,0.41,0.09,0.61-0.22c0.32-0.47,0.8-0.7,1.54-0.7   c1.11,0,1.46,0.54,1.46,1.46v0.44c-0.25-0.03-0.83-0.07-1.4-0.07c-2.34,0-3.3,0.57-3.3,2.33   C204.23,245.52,204.89,246.36,207.48,246.36 M196.73,246.14h0.8c0.34,0,0.45-0.12,0.45-0.45v-5.46c0-0.06,0.03-0.12,0.09-0.15   c0.38-0.1,0.85-0.19,1.4-0.19c1.08,0,1.59,0.47,1.59,1.43v4.36c0,0.34,0.12,0.45,0.45,0.45h0.79c0.34,0,0.45-0.12,0.45-0.45v-4.4   c0-1.86-0.95-2.94-3.04-2.94c-1.4,0-2.28,0.26-2.88,0.5c-0.45,0.19-0.56,0.37-0.56,0.83v6.01   C196.29,246.03,196.4,246.14,196.73,246.14 M191.2,244.96c-1.14,0-1.38-0.4-1.38-0.98c0-0.61,0.29-0.98,1.4-0.98   c0.57,0,1.3,0.06,1.59,0.07v1.57c0,0.13-0.04,0.16-0.16,0.21C192.42,244.9,191.95,244.96,191.2,244.96 M191.36,246.36   c1.2,0,2.09-0.15,2.63-0.38c0.41-0.18,0.53-0.32,0.53-0.83v-3.79c0-1.73-0.72-3.01-3.11-3.01c-1.54,0-2.53,0.57-3.04,1.52   c-0.18,0.34-0.07,0.51,0.25,0.66l0.6,0.23c0.32,0.13,0.41,0.09,0.61-0.22c0.32-0.47,0.8-0.7,1.54-0.7c1.11,0,1.46,0.54,1.46,1.46   v0.44c-0.25-0.03-0.83-0.07-1.4-0.07c-2.34,0-3.3,0.57-3.3,2.33C188.12,245.52,188.78,246.36,191.36,246.36 M177.11,246.14h0.72   c0.37,0,0.5-0.13,0.5-0.5v-4.44c0-0.92-0.09-1.78-0.32-2.94h0.1c0.37,1.19,0.63,1.83,1.13,2.68l1.46,2.55   c0.17,0.29,0.28,0.35,0.57,0.35h0.47c0.31,0,0.42-0.09,0.57-0.35l1.43-2.55c0.47-0.83,0.83-1.56,1.21-2.66h0.09   c-0.23,1.12-0.35,2.08-0.35,2.91v4.46c0,0.37,0.13,0.5,0.5,0.5h0.75c0.38,0,0.51-0.13,0.51-0.5v-9.39c0-0.37-0.13-0.5-0.51-0.5   h-0.72c-0.4,0-0.5,0.07-0.67,0.4l-3.03,5.43l-3.06-5.44c-0.16-0.31-0.28-0.38-0.7-0.38h-0.64c-0.38,0-0.5,0.13-0.5,0.5v9.39   C176.61,246.01,176.73,246.14,177.11,246.14"></path>
	<path style="clip-path:url(#SVGID_00000159440709045393520450000010595987452827093170_);fill:#B2B2B2;" d="M287.27,228.58   c0.34,0,0.45-0.13,0.45-0.47v-0.69c0-0.34-0.12-0.45-0.45-0.45c-1.23,0-1.67-0.25-1.67-1.68v-2.72h1.68c0.34,0,0.44-0.12,0.44-0.45   v-0.67c0-0.34-0.1-0.44-0.44-0.44h-1.68v-1.32c0-0.34-0.1-0.44-0.44-0.44h-0.8c-0.34,0-0.45,0.1-0.45,0.44v1.32h-0.99   c-0.34,0-0.45,0.1-0.45,0.44v0.67c0,0.34,0.12,0.45,0.45,0.45h0.99v2.78C283.91,227.88,284.8,228.58,287.27,228.58 M276.55,224.04   v-0.32c0-0.95,0.6-1.49,1.7-1.49c1.11,0,1.7,0.54,1.7,1.49v0.32H276.55z M278.22,228.8c1.67,0,2.63-0.54,3.16-1.4   c0.2-0.32,0.16-0.57-0.17-0.73l-0.51-0.28c-0.35-0.19-0.51-0.15-0.73,0.18c-0.32,0.48-0.88,0.77-1.73,0.77   c-1.08,0-1.68-0.51-1.68-1.46v-0.54h4.43c0.5,0,0.66-0.25,0.66-0.63v-0.89c0-1.68-1.07-3.03-3.39-3.03c-2.21,0-3.39,1.12-3.39,3.16   v1.73C274.85,227.47,275.82,228.8,278.22,228.8 M270.45,228.8c2.08,0,3.17-1.01,3.17-2.44c0-1.78-1.23-2.18-2.98-2.36   c-1.13-0.1-1.71-0.22-1.71-0.91c0-0.53,0.42-0.8,1.38-0.8c0.94,0,1.33,0.34,1.58,0.77c0.19,0.31,0.29,0.35,0.63,0.21l0.64-0.26   c0.32-0.15,0.42-0.32,0.25-0.66c-0.48-0.95-1.45-1.56-3.13-1.56c-2.02,0-3.03,0.96-3.03,2.35c0,1.9,1.52,2.21,2.97,2.36   c1.17,0.12,1.76,0.25,1.76,0.94c0,0.57-0.53,0.86-1.57,0.86c-0.89,0-1.42-0.23-1.65-0.8c-0.15-0.34-0.29-0.38-0.6-0.28l-0.66,0.21   c-0.32,0.12-0.41,0.31-0.29,0.61C267.66,228.17,268.74,228.8,270.45,228.8 M262.88,228.8c2.08,0,3.17-1.01,3.17-2.44   c0-1.78-1.23-2.18-2.98-2.36c-1.13-0.1-1.71-0.22-1.71-0.91c0-0.53,0.42-0.8,1.38-0.8c0.94,0,1.33,0.34,1.58,0.77   c0.19,0.31,0.29,0.35,0.63,0.21l0.64-0.26c0.32-0.15,0.42-0.32,0.25-0.66c-0.48-0.95-1.45-1.56-3.13-1.56   c-2.02,0-3.03,0.96-3.03,2.35c0,1.9,1.52,2.21,2.97,2.36c1.17,0.12,1.76,0.25,1.76,0.94c0,0.57-0.53,0.86-1.57,0.86   c-0.89,0-1.42-0.23-1.65-0.8c-0.15-0.34-0.29-0.38-0.6-0.28l-0.66,0.21c-0.32,0.12-0.41,0.31-0.29,0.61   C260.08,228.17,261.16,228.8,262.88,228.8 M252.65,224.75l1.12-3.09c0.31-0.89,0.31-1.75,0.31-1.76h0.12   c0,0.02,0.03,0.88,0.34,1.78l1.11,3.08H252.65z M249.86,228.58h0.67c0.63,0,0.79-0.09,0.91-0.44l0.7-1.89h4.02l0.69,1.89   c0.1,0.35,0.28,0.44,0.91,0.44h0.76c0.37,0,0.44-0.16,0.32-0.48l-3.65-9.5c-0.1-0.32-0.28-0.4-0.61-0.4h-0.77   c-0.34,0-0.48,0.07-0.61,0.41l-3.64,9.49C249.41,228.42,249.49,228.58,249.86,228.58 M242.75,228.8c2.08,0,3.17-1.01,3.17-2.44   c0-1.78-1.23-2.18-2.98-2.36c-1.13-0.1-1.71-0.22-1.71-0.91c0-0.53,0.42-0.8,1.38-0.8c0.94,0,1.33,0.34,1.58,0.77   c0.19,0.31,0.29,0.35,0.63,0.21l0.64-0.26c0.32-0.15,0.42-0.32,0.25-0.66c-0.48-0.95-1.45-1.56-3.13-1.56   c-2.02,0-3.03,0.96-3.03,2.35c0,1.9,1.52,2.21,2.97,2.36c1.17,0.12,1.76,0.25,1.76,0.94c0,0.57-0.53,0.86-1.57,0.86   c-0.89,0-1.42-0.23-1.65-0.8c-0.14-0.34-0.29-0.38-0.6-0.28l-0.66,0.21c-0.32,0.12-0.41,0.31-0.29,0.61   C239.96,228.17,241.04,228.8,242.75,228.8 M234.81,227.25c-1.05,0-1.64-0.51-1.64-1.46v-1.9c0-1.04,0.54-1.55,1.7-1.55   c0.57,0,1.07,0.12,1.4,0.19v4.4c0,0.09-0.02,0.12-0.12,0.16C235.79,227.2,235.34,227.25,234.81,227.25 M234.65,228.8   c1.33,0,2.16-0.25,2.75-0.47c0.47-0.19,0.57-0.32,0.57-0.8v-9.31c0-0.34-0.12-0.45-0.45-0.45h-0.79c-0.34,0-0.45,0.12-0.45,0.45   v2.76c-0.4-0.07-1.01-0.19-1.74-0.19c-2.02,0-3.05,1.08-3.05,3.06v2C231.48,227.72,232.49,228.8,234.65,228.8 M223.83,228.58h0.8   c0.33,0,0.45-0.12,0.45-0.45v-5.46c0-0.06,0.03-0.12,0.09-0.15c0.38-0.1,0.85-0.19,1.4-0.19c1.08,0,1.59,0.47,1.59,1.43v4.36   c0,0.34,0.12,0.45,0.45,0.45h0.79c0.34,0,0.45-0.12,0.45-0.45v-4.4c0-1.86-0.95-2.94-3.04-2.94c-1.4,0-2.28,0.26-2.88,0.5   c-0.45,0.19-0.56,0.37-0.56,0.83v6.01C223.39,228.47,223.49,228.58,223.83,228.58 M218.36,227.27c-1.07,0-1.65-0.51-1.65-1.39   v-2.17c0-0.89,0.59-1.39,1.65-1.39c1.1,0,1.68,0.5,1.68,1.39v2.17C220.04,226.76,219.46,227.27,218.36,227.27 M218.36,228.8   c2.21,0,3.38-1.11,3.38-2.92v-2.17c0-1.81-1.17-2.92-3.38-2.92c-2.16,0-3.35,1.11-3.35,2.92v2.17   C215.01,227.69,216.2,228.8,218.36,228.8 M210.83,228.58h0.77c0.35,0,0.47-0.12,0.47-0.45v-5.56h1.67c0.34,0,0.45-0.12,0.45-0.45   v-0.67c0-0.34-0.12-0.44-0.45-0.44h-1.67v-0.15c0-1.1,0.42-1.52,1.65-1.52c0.35,0,0.45-0.12,0.45-0.47v-0.64   c0-0.35-0.1-0.47-0.45-0.47h-0.15c-2.21,0.04-3.2,1.08-3.2,3.1v0.15h-0.88c-0.34,0-0.45,0.1-0.45,0.44v0.67   c0,0.34,0.12,0.45,0.45,0.45h0.88v5.56C210.37,228.47,210.48,228.58,210.83,228.58 M204.69,227.27c-1.07,0-1.65-0.51-1.65-1.39   v-2.17c0-0.89,0.59-1.39,1.65-1.39c1.1,0,1.68,0.5,1.68,1.39v2.17C206.37,226.76,205.78,227.27,204.69,227.27 M204.69,228.8   c2.21,0,3.38-1.11,3.38-2.92v-2.17c0-1.81-1.17-2.92-3.38-2.92c-2.16,0-3.35,1.11-3.35,2.92v2.17   C201.34,227.69,202.52,228.8,204.69,228.8 M189.64,228.58h0.8c0.34,0,0.45-0.12,0.45-0.45v-5.44c0-0.07,0.02-0.13,0.1-0.18   c0.37-0.12,0.72-0.18,1.19-0.18c0.95,0,1.45,0.48,1.45,1.42v4.37c0,0.34,0.12,0.45,0.45,0.45h0.79c0.34,0,0.45-0.12,0.45-0.45   v-4.43c0-0.41-0.04-0.79-0.16-1.1c0.34-0.12,0.83-0.26,1.43-0.26c0.95,0,1.43,0.48,1.43,1.42v4.37c0,0.34,0.12,0.45,0.45,0.45h0.79   c0.34,0,0.45-0.12,0.45-0.45v-4.43c0-1.84-0.88-2.91-2.88-2.91c-1.27,0-2.08,0.28-2.59,0.48c-0.45-0.32-1.04-0.48-1.83-0.48   c-1.3,0-2.09,0.26-2.68,0.5c-0.45,0.19-0.56,0.37-0.56,0.83v6.01C189.2,228.47,189.3,228.58,189.64,228.58 M177.28,228.58h0.8   c0.33,0,0.45-0.12,0.45-0.45v-5.44c0-0.07,0.01-0.13,0.1-0.18c0.37-0.12,0.72-0.18,1.19-0.18c0.95,0,1.45,0.48,1.45,1.42v4.37   c0,0.34,0.12,0.45,0.45,0.45h0.79c0.34,0,0.45-0.12,0.45-0.45v-4.43c0-0.41-0.04-0.79-0.16-1.1c0.34-0.12,0.83-0.26,1.43-0.26   c0.95,0,1.43,0.48,1.43,1.42v4.37c0,0.34,0.12,0.45,0.45,0.45h0.79c0.34,0,0.45-0.12,0.45-0.45v-4.43c0-1.84-0.88-2.91-2.88-2.91   c-1.27,0-2.08,0.28-2.59,0.48c-0.45-0.32-1.04-0.48-1.83-0.48c-1.3,0-2.09,0.26-2.68,0.5c-0.45,0.19-0.56,0.37-0.56,0.83v6.01   C176.84,228.47,176.94,228.58,177.28,228.58 M173.51,228.58h0.83c0.38,0,0.5-0.13,0.5-0.5v-9.39c0-0.37-0.12-0.5-0.5-0.5h-0.83   c-0.38,0-0.5,0.13-0.5,0.5v9.39C173.01,228.45,173.13,228.58,173.51,228.58"></path>
</g>
</svg>
