<?xml version="1.0" encoding="UTF-8"?>
<svg xmlns="http://www.w3.org/2000/svg" xmlns:xlink="http://www.w3.org/1999/xlink" id="Ebene_1" version="1.1" viewBox="0 0 860 460">
  <defs>
    <style>
      .st0, .st1 {
        fill: none;
      }

      .st2 {
        fill: #ebebeb;
      }

      .st3 {
        clip-path: url(#clippath-1);
      }

      .st4 {
        fill: #fff;
      }

      .st5 {
        clip-path: url(#clippath);
      }

      .st1 {
        stroke: #fff;
      }

      .st6 {
        fill: #b2b2b2;
      }
    </style>
    <clipPath id="clippath">
      <rect class="st0" x="178" y="58.2" width="505.9" height="342.2"></rect>
    </clipPath>
    <clipPath id="clippath-1">
      <rect class="st0" x="178" y="58.2" width="505.9" height="342.2"></rect>
    </clipPath>
  </defs>
  <rect class="st4" y="0" width="860" height="460"></rect>
  <rect class="st2" x="178" y="84.7" width="505.9" height="315.8"></rect>
  <line class="st1" x1="254.2" y1="153.2" x2="669.7" y2="153.2"></line>
  <line class="st1" x1="254.2" y1="187.9" x2="669.7" y2="187.9"></line>
  <line class="st1" x1="254.2" y1="222.6" x2="669.7" y2="222.6"></line>
  <line class="st1" x1="254.2" y1="257.3" x2="669.7" y2="257.3"></line>
  <line class="st1" x1="254.2" y1="292.1" x2="669.7" y2="292.1"></line>
  <line class="st1" x1="254.2" y1="326.8" x2="669.7" y2="326.8"></line>
  <line class="st1" x1="254.2" y1="361.5" x2="669.7" y2="361.5"></line>
  <g class="st5">
    <path class="st6" d="M241.2,116h0c.5,0,.6-.2.6-.6h0c0-.6-.2-.7-.6-.7h0c-.5,0-.6.2-.6.6h0c0,.6.1.7.6.7M237.2,115c-.7,0-1.1-.3-1.1-.9v-1.5c0-.6.4-.9,1.1-.9s1.1.3,1.1.9v1.5c0,.6-.4.9-1.1.9M237.2,116.1c1.5,0,2.3-.7,2.3-2v-1.5c0-1.2-.8-2-2.3-2s-2.3.8-2.3,2v1.5c0,1.2.8,2,2.3,2M232.9,115.9h.5c.2,0,.3,0,.3-.3v-4.5c0-.2,0-.3-.3-.3h-.5c-.2,0-.3,0-.3.3v4.5c0,.2,0,.3.3.3M233.1,109.9h0c.5,0,.6-.1.6-.6h0c0-.5-.1-.7-.6-.7h0c-.5,0-.6.1-.6.6h0c0,.5.1.7.6.7M224.9,115.9h.5c.2,0,.3,0,.3-.3v-3c0-.6,0-1.2-.2-2h0c.2.8.4,1.2.8,1.8l1,1.7c.1.2.2.2.4.2h.3c.2,0,.3,0,.4-.2l1-1.7c.3-.6.6-1.1.8-1.8h0c-.2.8-.2,1.4-.2,2v3c0,.2,0,.3.3.3h.5c.3,0,.3,0,.3-.3v-6.3c0-.2,0-.3-.3-.3h-.5c-.3,0-.3,0-.5.3l-2,3.7-2.1-3.7c-.1-.2-.2-.3-.5-.3h-.4c-.3,0-.3,0-.3.3v6.3c0,.2,0,.3.3.3M217.1,115.9h.6c.3,0,.3,0,.3-.3v-2.5h2.5c.2,0,.3,0,.3-.3v-.5c0-.2,0-.3-.3-.3h-2.5v-1.8h3c.2,0,.3,0,.3-.3v-.5c0-.2,0-.3-.3-.3h-3.9c-.3,0-.3,0-.3.3v6.3c0,.2,0,.3.3.3M210.1,115.9h.6c.3,0,.3,0,.3-.3v-2.6h2.9v2.6c0,.2,0,.3.3.3h.6c.2,0,.3,0,.3-.3v-6.3c0-.2,0-.3-.3-.3h-.6c-.3,0-.3,0-.3.3v2.5h-2.9v-2.5c0-.2,0-.3-.3-.3h-.6c-.3,0-.3,0-.3.3v6.3c0,.2,0,.3.3.3M205.9,116.1c1.5,0,2.3-.6,2.7-1.7,0-.2,0-.3-.2-.4l-.5-.2c-.2,0-.3,0-.4.2-.2.6-.7.9-1.5.9s-1.6-.5-1.6-1.4v-2.2c0-.9.6-1.4,1.6-1.4s1.3.3,1.5.9c0,.2.2.3.4.2l.5-.2c.2,0,.3-.2.2-.4-.4-1.1-1.2-1.6-2.7-1.6s-2.8,1-2.8,2.6v2.2c0,1.6,1,2.6,2.8,2.6M195.6,115.9h.5c.2,0,.3,0,.3-.3v-3.7s0,0,0,0c.3,0,.6-.1.9-.1.7,0,1.1.3,1.1,1v2.9c0,.2,0,.3.3.3h.5c.2,0,.3,0,.3-.3v-3c0-1.3-.6-2-2.1-2s-1.5.2-1.9.3c-.3.1-.4.2-.4.6v4.1c0,.2,0,.3.3.3M193.1,115.9h.5c.2,0,.3,0,.3-.3v-4.5c0-.2,0-.3-.3-.3h-.5c-.2,0-.3,0-.3.3v4.5c0,.2,0,.3.3.3M193.3,109.9h0c.5,0,.6-.1.6-.6h0c0-.5-.1-.7-.6-.7h0c-.5,0-.6.1-.6.6h0c0,.5.1.7.6.7"></path>
    <path class="st6" d="M348.6,68.6c.3,0,.4-.1.4-.4v-.7c0-.3-.1-.4-.4-.4-1.2,0-1.6-.2-1.6-1.6v-2.6h1.6c.3,0,.4-.1.4-.4v-.6c0-.3,0-.4-.4-.4h-1.6v-1.3c0-.3,0-.4-.4-.4h-.8c-.3,0-.4,0-.4.4v1.3h-1c-.3,0-.4,0-.4.4v.6c0,.3.1.4.4.4h1v2.7c0,2.4.9,3.1,3.2,3.1M337.2,68.6h.8c.3,0,.4-.1.4-.4v-5.2c0,0,0-.1,0-.1.4,0,.8-.2,1.3-.2,1,0,1.5.4,1.5,1.4v4.2c0,.3.1.4.4.4h.8c.3,0,.4-.1.4-.4v-4.2c0-1.8-.9-2.8-2.9-2.8s-2.2.3-2.8.5c-.4.2-.5.3-.5.8v5.8c0,.3,0,.4.4.4M330.3,64.3v-.3c0-.9.6-1.4,1.6-1.4s1.6.5,1.6,1.4v.3h-3.2ZM331.9,68.8c1.6,0,2.5-.5,3-1.3.2-.3.2-.5-.2-.7l-.5-.3c-.3-.2-.5-.1-.7.2-.3.5-.8.7-1.7.7s-1.6-.5-1.6-1.4v-.5h4.2c.5,0,.6-.2.6-.6v-.9c0-1.6-1-2.9-3.2-2.9s-3.2,1.1-3.2,3v1.7c0,1.7.9,3,3.2,3M317.5,68.6h.8c.3,0,.4-.1.4-.4v-5.2c0,0,0-.1,0-.2.4-.1.7-.2,1.1-.2.9,0,1.4.5,1.4,1.4v4.2c0,.3.1.4.4.4h.8c.3,0,.4-.1.4-.4v-4.2c0-.4,0-.8-.2-1.1.3-.1.8-.3,1.4-.3.9,0,1.4.5,1.4,1.4v4.2c0,.3.1.4.4.4h.8c.3,0,.4-.1.4-.4v-4.2c0-1.8-.8-2.8-2.8-2.8s-2,.3-2.5.5c-.4-.3-1-.5-1.8-.5-1.2,0-2,.3-2.6.5-.4.2-.5.3-.5.8v5.8c0,.3,0,.4.4.4M310.6,64.3v-.3c0-.9.6-1.4,1.6-1.4s1.6.5,1.6,1.4v.3h-3.2ZM312.2,68.8c1.6,0,2.5-.5,3-1.3.2-.3.2-.5-.2-.7l-.5-.3c-.3-.2-.5-.1-.7.2-.3.5-.8.7-1.7.7s-1.6-.5-1.6-1.4v-.5h4.2c.5,0,.6-.2.6-.6v-.9c0-1.6-1-2.9-3.2-2.9s-3.2,1.1-3.2,3v1.7c0,1.7.9,3,3.2,3M304.3,67c-1,0-1.5-.5-1.5-1.4v-1.5c0-1,.5-1.5,1.7-1.5s.9,0,1.2.2c0,0,.1,0,.1.2v3.9c-.3,0-.8.2-1.4.2M304.3,71.9c2.2,0,3.1-1.2,3.1-3.1v-6.5c0-.4,0-.6-.5-.8-.5-.2-1.4-.4-2.5-.4-2.1,0-3.1,1-3.1,2.9v1.6c0,1.8.9,2.8,2.9,2.8s1.3-.1,1.7-.3v.7c0,1-.5,1.5-1.5,1.5s-1.2-.3-1.5-.7c-.2-.3-.4-.3-.7-.2l-.5.3c-.3.2-.4.4-.2.7.5.8,1.4,1.3,2.9,1.3M296.4,67.5c-1.1,0-1.3-.4-1.3-.9s.3-.9,1.3-.9,1.2,0,1.5,0v1.5c0,.1,0,.2-.2.2-.2,0-.7.1-1.4.1M296.6,68.8c1.1,0,2-.1,2.5-.4.4-.2.5-.3.5-.8v-3.6c0-1.7-.7-2.9-3-2.9s-2.4.5-2.9,1.5c-.2.3,0,.5.2.6l.6.2c.3.1.4,0,.6-.2.3-.4.8-.7,1.5-.7,1.1,0,1.4.5,1.4,1.4v.4c-.2,0-.8,0-1.3,0-2.2,0-3.2.5-3.2,2.2s.6,2.3,3.1,2.3M286.2,68.6h.8c.3,0,.4-.1.4-.4v-5.2c0,0,0-.1,0-.1.4,0,.8-.2,1.3-.2,1,0,1.5.4,1.5,1.4v4.2c0,.3.1.4.4.4h.8c.3,0,.4-.1.4-.4v-4.2c0-1.8-.9-2.8-2.9-2.8s-2.2.3-2.8.5c-.4.2-.5.3-.5.8v5.8c0,.3,0,.4.4.4M280.9,67.5c-1.1,0-1.3-.4-1.3-.9s.3-.9,1.3-.9,1.2,0,1.5,0v1.5c0,.1,0,.2-.2.2-.2,0-.7.1-1.4.1M281,68.8c1.1,0,2-.1,2.5-.4.4-.2.5-.3.5-.8v-3.6c0-1.7-.7-2.9-3-2.9s-2.4.5-2.9,1.5c-.2.3,0,.5.2.6l.6.2c.3.1.4,0,.6-.2.3-.4.8-.7,1.5-.7,1.1,0,1.4.5,1.4,1.4v.4c-.2,0-.8,0-1.3,0-2.2,0-3.2.5-3.2,2.2s.6,2.3,3.1,2.3M267.3,68.6h.7c.3,0,.5-.1.5-.5v-4.3c0-.9,0-1.7-.3-2.8h0c.3,1.1.6,1.8,1.1,2.6l1.4,2.4c.2.3.3.3.5.3h.4c.3,0,.4,0,.5-.3l1.4-2.4c.4-.8.8-1.5,1.2-2.5h0c-.2,1.1-.3,2-.3,2.8v4.3c0,.4.1.5.5.5h.7c.4,0,.5-.1.5-.5v-9c0-.4-.1-.5-.5-.5h-.7c-.4,0-.5,0-.6.4l-2.9,5.2-2.9-5.2c-.2-.3-.3-.4-.7-.4h-.6c-.4,0-.5.1-.5.5v9c0,.4.1.5.5.5M259,68.6h.8c.3,0,.4-.1.4-.4v-5c0,0,0-.1.1-.2.4,0,.8-.2,1.3-.2h.5c.3,0,.4,0,.4-.4v-.6c0-.3,0-.4-.4-.4h-.5c-1.2,0-2.1.2-2.6.4-.4.2-.5.4-.5.8v5.6c0,.3,0,.4.4.4M252.2,64.3v-.3c0-.9.6-1.4,1.6-1.4s1.6.5,1.6,1.4v.3h-3.2ZM253.8,68.8c1.6,0,2.5-.5,3-1.3.2-.3.2-.5-.2-.7l-.5-.3c-.3-.2-.5-.1-.7.2-.3.5-.8.7-1.7.7s-1.6-.5-1.6-1.4v-.5h4.2c.5,0,.6-.2.6-.6v-.9c0-1.6-1-2.9-3.2-2.9s-3.2,1.1-3.2,3v1.7c0,1.7.9,3,3.2,3M246,67.3c-1,0-1.6-.5-1.6-1.4v-1.8c0-1,.5-1.5,1.6-1.5s1,.1,1.3.2v4.2c0,0,0,.1-.1.2-.3,0-.8.2-1.3.2M245.8,68.8c1.3,0,2.1-.2,2.6-.4.4-.2.5-.3.5-.8v-8.9c0-.3-.1-.4-.4-.4h-.8c-.3,0-.4.1-.4.4v2.6c-.4,0-1-.2-1.7-.2-1.9,0-2.9,1-2.9,2.9v1.9c0,1.8,1,2.8,3,2.8M235.4,68.6h.8c.3,0,.4-.1.4-.4v-5.2c0,0,0-.1,0-.1.4,0,.8-.2,1.3-.2,1,0,1.5.4,1.5,1.4v4.2c0,.3.1.4.4.4h.8c.3,0,.4-.1.4-.4v-4.2c0-1.8-.9-2.8-2.9-2.8s-2.2.3-2.8.5c-.4.2-.5.3-.5.8v5.8c0,.3,0,.4.4.4M229.8,68.8c1.3,0,2.2-.3,2.8-.5.4-.2.5-.4.5-.8v-5.8c0-.3-.1-.4-.4-.4h-.8c-.3,0-.4,0-.4.4v5.2c0,.1,0,.2-.2.2-.4.1-.7.2-1.3.2-1,0-1.5-.4-1.5-1.4v-4.2c0-.3-.1-.4-.4-.4h-.8c-.3,0-.4,0-.4.4v4.2c0,1.8.9,2.8,2.9,2.8M219.3,68.8c2,0,3-1,3-2.3s-1.2-2.1-2.9-2.3c-1.1,0-1.6-.2-1.6-.9s.4-.8,1.3-.8,1.3.3,1.5.7c.2.3.3.3.6.2l.6-.3c.3-.1.4-.3.2-.6-.5-.9-1.4-1.5-3-1.5s-2.9.9-2.9,2.3,1.5,2.1,2.8,2.3c1.1.1,1.7.2,1.7.9s-.5.8-1.5.8-1.4-.2-1.6-.8c-.1-.3-.3-.4-.6-.3l-.6.2c-.3.1-.4.3-.3.6.4,1.1,1.5,1.7,3.1,1.7M214.7,68.6c.3,0,.4-.1.4-.4v-.7c0-.3-.1-.4-.4-.4-1.2,0-1.6-.2-1.6-1.6v-2.6h1.6c.3,0,.4-.1.4-.4v-.6c0-.3,0-.4-.4-.4h-1.6v-1.3c0-.3,0-.4-.4-.4h-.8c-.3,0-.4,0-.4.4v1.3h-1c-.3,0-.4,0-.4.4v.6c0,.3.1.4.4.4h1v2.7c0,2.4.9,3.1,3.2,3.1M204.4,64.3v-.3c0-.9.6-1.4,1.6-1.4s1.6.5,1.6,1.4v.3h-3.2ZM206,68.8c1.6,0,2.5-.5,3-1.3.2-.3.2-.5-.2-.7l-.5-.3c-.3-.2-.5-.1-.7.2-.3.5-.8.7-1.7.7s-1.6-.5-1.6-1.4v-.5h4.2c.5,0,.6-.2.6-.6v-.9c0-1.6-1-2.9-3.2-2.9s-3.2,1.1-3.2,3v1.7c0,1.7.9,3,3.2,3M198.5,68.8c2,0,3-1,3-2.3s-1.2-2.1-2.9-2.3c-1.1,0-1.6-.2-1.6-.9s.4-.8,1.3-.8,1.3.3,1.5.7c.2.3.3.3.6.2l.6-.3c.3-.1.4-.3.2-.6-.5-.9-1.4-1.5-3-1.5s-2.9.9-2.9,2.3,1.5,2.1,2.8,2.3c1.1.1,1.7.2,1.7.9s-.5.8-1.5.8-1.4-.2-1.6-.8c-.1-.3-.3-.4-.6-.3l-.6.2c-.3.1-.4.3-.3.6.4,1.1,1.5,1.7,3.1,1.7M191.1,68.8c2,0,3-1,3-2.3s-1.2-2.1-2.9-2.3c-1.1,0-1.6-.2-1.6-.9s.4-.8,1.3-.8,1.3.3,1.5.7c.2.3.3.3.6.2l.6-.3c.3-.1.4-.3.2-.6-.5-.9-1.4-1.5-3-1.5s-2.9.9-2.9,2.3,1.5,2.1,2.8,2.3c1.1.1,1.7.2,1.7.9s-.5.8-1.5.8-1.4-.2-1.6-.8c-.1-.3-.3-.4-.6-.3l-.6.2c-.3.1-.4.3-.3.6.4,1.1,1.5,1.7,3.1,1.7M181.3,64.9l1.1-3c.3-.9.3-1.7.3-1.7h.1s0,.8.3,1.7l1.1,2.9h-2.9ZM178.6,68.6h.6c.6,0,.8,0,.9-.4l.7-1.8h3.8l.7,1.8c0,.3.3.4.9.4h.7c.4,0,.4-.2.3-.5l-3.5-9.1c0-.3-.3-.4-.6-.4h-.7c-.3,0-.5,0-.6.4l-3.5,9.1c-.1.3,0,.5.3.5"></path>
    <path class="st6" d="M589.1,376.2h4.3c.3,0,.3,0,.3-.3v-.5c0-.2,0-.3-.3-.3h-3.3v-.2c0-.5.6-.6,1-.8,2-.8,2.8-1.4,2.8-2.9s-.9-2.2-2.4-2.2-2.2.7-2.6,1.6c-.1.2,0,.3.2.4l.5.2c.2,0,.3,0,.4-.2.3-.6.7-.9,1.4-.9s1.2.5,1.2,1.1c0,1-.9,1.3-1.8,1.7-1,.4-2,.9-2,2.2v.7c0,.2,0,.3.4.3M583,376.2h4.3c.3,0,.3,0,.3-.3v-.5c0-.2,0-.3-.3-.3h-3.3v-.2c0-.5.6-.6,1-.8,2-.8,2.8-1.4,2.8-2.9s-.9-2.2-2.4-2.2-2.2.7-2.6,1.6c-.1.2,0,.3.2.4l.5.2c.2,0,.3,0,.4-.2.3-.6.7-.9,1.4-.9s1.2.5,1.2,1.1c0,1-.9,1.3-1.8,1.7-1,.4-2,.9-2,2.2v.7c0,.2,0,.3.4.3M578.9,375.2c-.9,0-1.4-.5-1.4-1.2v-2.6c0-.8.5-1.2,1.4-1.2s1.4.4,1.4,1.2v2.6c0,.8-.5,1.2-1.4,1.2M578.9,376.4c1.7,0,2.6-.9,2.6-2.4v-2.6c0-1.5-1-2.4-2.6-2.4s-2.7.9-2.7,2.4v2.6c0,1.5,1,2.4,2.7,2.4M570.4,376.2h4.3c.3,0,.3,0,.3-.3v-.5c0-.2,0-.3-.3-.3h-3.3v-.2c0-.5.6-.6,1-.8,2-.8,2.8-1.4,2.8-2.9s-.9-2.2-2.4-2.2-2.2.7-2.6,1.6c-.1.2,0,.3.2.4l.5.2c.2,0,.3,0,.4-.2.3-.6.7-.9,1.4-.9s1.2.5,1.2,1.1c0,1-.9,1.3-1.8,1.7-1,.4-2,.9-2,2.2v.7c0,.2,0,.3.4.3"></path>
    <path class="st6" d="M529.4,376.2h.5c.4,0,.5,0,.6-.3l2.6-5.6c0-.2.1-.3.1-.5v-.3c0-.2,0-.3-.3-.3h-4.3c-.3,0-.3,0-.3.3v.5c0,.2,0,.3.3.3h3.2l-2.6,5.6c0,.2,0,.3.2.3M526.1,376.2h.6c.3,0,.3,0,.3-.3v-6.4c0-.2,0-.3-.3-.3h-.5c-.2,0-.3,0-.5.1l-2,1.1c-.2.1-.3.2-.2.5l.2.4c.1.2.2.3.5.1l1.4-.8v5.2c0,.2,0,.3.3.3M520.1,375.2c-.9,0-1.4-.5-1.4-1.2v-2.6c0-.8.5-1.2,1.4-1.2s1.4.4,1.4,1.2v2.6c0,.8-.5,1.2-1.4,1.2M520.1,376.4c1.7,0,2.6-.9,2.6-2.4v-2.6c0-1.5-1-2.4-2.6-2.4s-2.7.9-2.7,2.4v2.6c0,1.5,1,2.4,2.7,2.4M511.6,376.2h4.3c.3,0,.3,0,.3-.3v-.5c0-.2,0-.3-.3-.3h-3.3v-.2c0-.5.6-.6,1-.8,2-.8,2.8-1.4,2.8-2.9s-.9-2.2-2.4-2.2-2.2.7-2.6,1.6c-.1.2,0,.3.2.4l.5.2c.2,0,.3,0,.4-.2.3-.6.7-.9,1.4-.9s1.2.5,1.2,1.1c0,1-.9,1.3-1.8,1.7-1,.4-2,.9-2,2.2v.7c0,.2,0,.3.4.3"></path>
    <path class="st6" d="M468.6,376.2h4.3c.3,0,.3,0,.3-.3v-.5c0-.2,0-.3-.3-.3h-3.3v-.2c0-.5.6-.6,1-.8,2-.8,2.8-1.4,2.8-2.9s-.9-2.2-2.4-2.2-2.2.7-2.6,1.6c0,.2,0,.3.2.4l.5.2c.2,0,.3,0,.4-.2.3-.6.7-.9,1.4-.9s1.2.5,1.2,1.1c0,1-.9,1.3-1.8,1.7-1,.4-2,.9-2,2.2v.7c0,.2,0,.3.4.3M466,376.2h.6c.3,0,.3,0,.3-.3v-6.4c0-.2,0-.3-.3-.3h-.5c-.2,0-.3,0-.5.1l-2,1.1c-.2.1-.3.2-.2.5l.2.4c.1.2.2.3.5.1l1.4-.8v5.2c0,.2,0,.3.3.3M460,375.2c-.9,0-1.4-.5-1.4-1.2v-2.6c0-.8.5-1.2,1.4-1.2s1.4.4,1.4,1.2v2.6c0,.8-.5,1.2-1.4,1.2M460,376.4c1.7,0,2.6-.9,2.6-2.4v-2.6c0-1.5-1-2.4-2.6-2.4s-2.7.9-2.7,2.4v2.6c0,1.5,1,2.4,2.7,2.4M451.4,376.2h4.3c.3,0,.3,0,.3-.3v-.5c0-.2,0-.3-.3-.3h-3.3v-.2c0-.5.6-.6,1-.8,2-.8,2.8-1.4,2.8-2.9s-.9-2.2-2.4-2.2-2.2.7-2.6,1.6c-.1.2,0,.3.2.4l.5.2c.2,0,.3,0,.4-.2.3-.6.7-.9,1.4-.9s1.2.5,1.2,1.1c0,1-.9,1.3-1.8,1.7-1,.4-2,.9-2,2.2v.7c0,.2,0,.3.4.3"></path>
    <path class="st6" d="M410.6,376.2h.6c.4,0,.5,0,.6-.3l2.5-5.6c0-.2.1-.3.1-.5v-.3c0-.2,0-.3-.3-.3h-4.3c-.3,0-.3,0-.3.3v.5c0,.2,0,.3.3.3h3.2l-2.6,5.6c-.1.2,0,.3.2.3M405.9,375.2c-.9,0-1.4-.5-1.4-1.2v-2.6c0-.8.5-1.2,1.4-1.2s1.4.4,1.4,1.2v2.6c0,.8-.5,1.2-1.4,1.2M405.9,376.4c1.7,0,2.6-.9,2.6-2.4v-2.6c0-1.5-1-2.4-2.6-2.4s-2.6.9-2.6,2.4v2.6c0,1.5,1,2.4,2.6,2.4M399.4,375.2c-.9,0-1.4-.5-1.4-1.2v-2.6c0-.8.5-1.2,1.4-1.2s1.4.4,1.4,1.2v2.6c0,.8-.5,1.2-1.4,1.2M399.4,376.4c1.7,0,2.6-.9,2.6-2.4v-2.6c0-1.5-1-2.4-2.6-2.4s-2.6.9-2.6,2.4v2.6c0,1.5,1,2.4,2.6,2.4M390.9,376.2h4.3c.3,0,.3,0,.3-.3v-.5c0-.2,0-.3-.3-.3h-3.3v-.2c0-.5.6-.6,1-.8,2-.8,2.8-1.4,2.8-2.9s-.9-2.2-2.4-2.2-2.2.7-2.6,1.6c-.1.2,0,.3.2.4l.5.2c.2,0,.3,0,.4-.2.3-.6.7-.9,1.4-.9s1.2.5,1.2,1.1c0,1-.9,1.3-1.8,1.7-1,.4-2,.9-2,2.2v.7c0,.2,0,.3.4.3"></path>
    <path class="st6" d="M349.9,376.2h4.3c.3,0,.3,0,.3-.3v-.5c0-.2,0-.3-.3-.3h-3.3v-.2c0-.5.6-.6,1-.8,2-.8,2.8-1.4,2.8-2.9s-.9-2.2-2.4-2.2-2.2.7-2.6,1.6c0,.2,0,.3.2.4l.5.2c.2,0,.3,0,.4-.2.3-.6.7-.9,1.4-.9s1.2.5,1.2,1.1c0,1-.9,1.3-1.8,1.7-1,.4-2,.9-2,2.2v.7c0,.2,0,.3.4.3M345.8,375.2c-.9,0-1.4-.5-1.4-1.2v-2.6c0-.8.5-1.2,1.4-1.2s1.4.4,1.4,1.2v2.6c0,.8-.5,1.2-1.4,1.2M345.8,376.4c1.7,0,2.6-.9,2.6-2.4v-2.6c0-1.5-1-2.4-2.6-2.4s-2.6.9-2.6,2.4v2.6c0,1.5,1,2.4,2.6,2.4M339.3,375.2c-.9,0-1.4-.5-1.4-1.2v-2.6c0-.8.5-1.2,1.4-1.2s1.4.4,1.4,1.2v2.6c0,.8-.5,1.2-1.4,1.2M339.3,376.4c1.7,0,2.6-.9,2.6-2.4v-2.6c0-1.5-1-2.4-2.6-2.4s-2.6.9-2.6,2.4v2.6c0,1.5,1,2.4,2.6,2.4M330.8,376.2h4.3c.3,0,.3,0,.3-.3v-.5c0-.2,0-.3-.3-.3h-3.3v-.2c0-.5.6-.6,1-.8,2-.8,2.8-1.4,2.8-2.9s-.9-2.2-2.4-2.2-2.2.7-2.6,1.6c-.1.2,0,.3.2.4l.5.2c.2,0,.3,0,.4-.2.3-.6.7-.9,1.4-.9s1.2.5,1.2,1.1c0,1-.9,1.3-1.8,1.7-1,.4-2,.9-2,2.2v.7c0,.2,0,.3.4.3"></path>
    <path class="st6" d="M290.1,376.2h.5c.4,0,.5,0,.6-.3l2.5-5.6c0-.2,0-.3,0-.5v-.3c0-.2,0-.3-.3-.3h-4.3c-.3,0-.3,0-.3.3v.5c0,.2,0,.3.3.3h3.2l-2.6,5.6c-.1.2,0,.3.2.3M285.4,372.4c-1,0-1.4-.4-1.4-1.1s.5-1.1,1.4-1.1,1.4.5,1.4,1.4v.6c-.1,0-.6.2-1.4.2M285.4,376.4c1.8,0,2.7-1,2.7-2.6v-2.2c0-1.6-.9-2.6-2.7-2.6s-2.7.9-2.7,2.3.8,2.3,2.6,2.3,1.3-.1,1.5-.2v.5c0,.9-.5,1.4-1.4,1.4s-1.2-.3-1.4-.8c0-.2-.2-.3-.4-.2l-.5.2c-.2,0-.3.2-.2.4.4,1,1.2,1.6,2.6,1.6M278.9,372.4c-1,0-1.4-.4-1.4-1.1s.5-1.1,1.4-1.1,1.4.5,1.4,1.4v.6c-.1,0-.6.2-1.5.2M278.9,376.4c1.8,0,2.7-1,2.7-2.6v-2.2c0-1.6-.9-2.6-2.7-2.6s-2.7.9-2.7,2.3.8,2.3,2.6,2.3,1.3-.1,1.5-.2v.5c0,.9-.5,1.4-1.4,1.4s-1.2-.3-1.4-.8c-.1-.2-.2-.3-.4-.2l-.5.2c-.2,0-.3.2-.2.4.4,1,1.2,1.6,2.6,1.6M273.9,376.2h.6c.3,0,.3,0,.3-.3v-6.4c0-.2,0-.3-.3-.3h-.5c-.2,0-.3,0-.5.1l-1.9,1.1c-.2.1-.3.2-.2.5l.2.4c.1.2.2.3.5.1l1.4-.8v5.2c0,.2,0,.3.3.3"></path>
    <path class="st6" d="M651.2,376.4c1.6,0,2.5-1.1,2.5-2.4s-.8-2.3-2.4-2.3h-1.2v-1.5h3c.2,0,.3,0,.3-.3v-.5c0-.2,0-.3-.3-.3h-3.5c-.4,0-.5.1-.5.5l-.3,2.9c0,.3,0,.4.4.4h2.1c.7,0,1.2.4,1.2,1.1s-.5,1.2-1.2,1.2-1.3-.3-1.5-.9c-.1-.2-.2-.3-.4-.2l-.5.2c-.2,0-.3.2-.2.4.4,1,1.2,1.6,2.7,1.6M642.8,376.2h4.3c.3,0,.3,0,.3-.3v-.5c0-.2,0-.3-.3-.3h-3.3v-.2c0-.5.6-.6,1-.8,2-.8,2.8-1.4,2.8-2.9s-.9-2.2-2.4-2.2-2.2.7-2.6,1.6c-.1.2,0,.3.2.4l.5.2c.2,0,.3,0,.4-.2.3-.6.7-.9,1.4-.9s1.2.5,1.2,1.1c0,1-.9,1.3-1.8,1.7-1,.4-2,.9-2,2.2v.7c0,.2,0,.3.4.3M638.7,375.2c-.9,0-1.4-.5-1.4-1.2v-2.6c0-.8.5-1.2,1.4-1.2s1.4.4,1.4,1.2v2.6c0,.8-.5,1.2-1.4,1.2M638.7,376.4c1.7,0,2.6-.9,2.6-2.4v-2.6c0-1.5-1-2.4-2.6-2.4s-2.7.9-2.7,2.4v2.6c0,1.5,1,2.4,2.7,2.4M630.2,376.2h4.3c.3,0,.3,0,.3-.3v-.5c0-.2,0-.3-.3-.3h-3.3v-.2c0-.5.6-.6,1-.8,2-.8,2.8-1.4,2.8-2.9s-.9-2.2-2.4-2.2-2.2.7-2.6,1.6c-.1.2,0,.3.2.4l.5.2c.2,0,.3,0,.4-.2.3-.6.7-.9,1.4-.9s1.2.5,1.2,1.1c0,1-.9,1.3-1.8,1.7-1,.4-2,.9-2,2.2v.7c0,.2,0,.3.4.3"></path>
  </g>
  <rect class="st6" x="264.3" y="340.9" width="36.6" height="21.1"></rect>
  <rect class="st6" x="324.2" y="318.4" width="36.6" height="43.6"></rect>
  <rect class="st6" x="384.1" y="296.2" width="36.6" height="65.8"></rect>
  <rect class="st6" x="443.9" y="274" width="36.6" height="88"></rect>
  <rect class="st6" x="503.8" y="265.6" width="36.6" height="96.4"></rect>
  <rect class="st6" x="563.6" y="205.9" width="36.6" height="156.1"></rect>
  <rect class="st6" x="623.5" y="187.9" width="36.6" height="174.1"></rect>
  <g class="st3">
    <path class="st6" d="M239.2,328.1c-.9,0-1.4-.5-1.4-1.2v-2.5c0-.8.5-1.2,1.4-1.2s1.4.4,1.4,1.2v2.5c0,.8-.5,1.2-1.4,1.2M239.2,329.3c1.7,0,2.6-.9,2.6-2.4v-2.5c0-1.5-.9-2.4-2.6-2.4s-2.6.9-2.6,2.4v2.5c0,1.5.9,2.4,2.6,2.4M232.7,328.1c-.9,0-1.4-.5-1.4-1.2v-2.5c0-.8.5-1.2,1.4-1.2s1.4.4,1.4,1.2v2.5c0,.8-.5,1.2-1.4,1.2M232.7,329.3c1.7,0,2.6-.9,2.6-2.4v-2.5c0-1.5-.9-2.4-2.6-2.4s-2.6.9-2.6,2.4v2.5c0,1.5.9,2.4,2.6,2.4M226.5,329.3c1.6,0,2.5-1.1,2.5-2.3s-.8-2.2-2.4-2.2h-1.2v-1.5h3c.2,0,.3,0,.3-.3v-.5c0-.2,0-.3-.3-.3h-3.5c-.4,0-.5.1-.5.5l-.3,2.9c0,.3,0,.4.4.4h2.1c.7,0,1.2.4,1.2,1.1s-.5,1.2-1.2,1.2-1.3-.3-1.5-.9c0-.2-.2-.3-.4-.2l-.5.2c-.2,0-.3.2-.2.4.4,1,1.2,1.6,2.7,1.6"></path>
    <path class="st6" d="M239.2,293.4c-.9,0-1.4-.5-1.4-1.2v-2.5c0-.8.5-1.2,1.4-1.2s1.4.4,1.4,1.2v2.5c0,.8-.5,1.2-1.4,1.2M239.2,294.5c1.7,0,2.6-.9,2.6-2.4v-2.5c0-1.5-.9-2.4-2.6-2.4s-2.6.9-2.6,2.4v2.5c0,1.5.9,2.4,2.6,2.4M232.7,293.4c-.9,0-1.4-.5-1.4-1.2v-2.5c0-.8.5-1.2,1.4-1.2s1.4.4,1.4,1.2v2.5c0,.8-.5,1.2-1.4,1.2M232.7,294.5c1.7,0,2.6-.9,2.6-2.4v-2.5c0-1.5-.9-2.4-2.6-2.4s-2.6.9-2.6,2.4v2.5c0,1.5.9,2.4,2.6,2.4M226.2,293.4c-.9,0-1.4-.5-1.4-1.2v-2.5c0-.8.5-1.2,1.4-1.2s1.4.4,1.4,1.2v2.5c0,.8-.5,1.2-1.4,1.2M226.2,294.5c1.7,0,2.6-.9,2.6-2.4v-2.5c0-1.5-.9-2.4-2.6-2.4s-2.6.9-2.6,2.4v2.5c0,1.5.9,2.4,2.6,2.4M221.2,294.4h.6c.3,0,.3,0,.3-.3v-6.3c0-.2,0-.3-.3-.3h-.5c-.2,0-.3,0-.5.1l-1.9,1.1c-.2.1-.3.2-.2.5l.2.4c.1.2.2.3.5.1l1.4-.8v5.2c0,.2,0,.3.3.3"></path>
    <path class="st6" d="M239.2,258.7c-.9,0-1.4-.5-1.4-1.2v-2.5c0-.8.5-1.2,1.4-1.2s1.4.4,1.4,1.2v2.5c0,.8-.5,1.2-1.4,1.2M239.2,259.8c1.7,0,2.6-.9,2.6-2.4v-2.5c0-1.5-.9-2.4-2.6-2.4s-2.6.9-2.6,2.4v2.5c0,1.5.9,2.4,2.6,2.4M232.7,258.7c-.9,0-1.4-.5-1.4-1.2v-2.5c0-.8.5-1.2,1.4-1.2s1.4.4,1.4,1.2v2.5c0,.8-.5,1.2-1.4,1.2M232.7,259.8c1.7,0,2.6-.9,2.6-2.4v-2.5c0-1.5-.9-2.4-2.6-2.4s-2.6.9-2.6,2.4v2.5c0,1.5.9,2.4,2.6,2.4M226.5,259.8c1.6,0,2.5-1.1,2.5-2.3s-.8-2.2-2.4-2.2h-1.2v-1.5h3c.2,0,.3,0,.3-.3v-.5c0-.2,0-.3-.3-.3h-3.5c-.4,0-.5.1-.5.5l-.3,2.9c0,.3,0,.4.4.4h2.1c.7,0,1.2.4,1.2,1.1s-.5,1.2-1.2,1.2-1.3-.3-1.5-.9c0-.2-.2-.3-.4-.2l-.5.2c-.2,0-.3.2-.2.4.4,1,1.2,1.6,2.7,1.6M221.6,259.7h.6c.3,0,.3,0,.3-.3v-6.3c0-.2,0-.3-.3-.3h-.5c-.2,0-.3,0-.5.1l-1.9,1.1c-.2.1-.3.2-.2.5l.2.4c.1.2.2.3.5.1l1.4-.8v5.2c0,.2,0,.3.3.3"></path>
    <path class="st6" d="M239.2,224c-.9,0-1.4-.5-1.4-1.2v-2.5c0-.8.5-1.2,1.4-1.2s1.4.4,1.4,1.2v2.5c0,.8-.5,1.2-1.4,1.2M239.2,225.1c1.7,0,2.6-.9,2.6-2.4v-2.5c0-1.5-.9-2.4-2.6-2.4s-2.6.9-2.6,2.4v2.5c0,1.5.9,2.4,2.6,2.4M232.7,224c-.9,0-1.4-.5-1.4-1.2v-2.5c0-.8.5-1.2,1.4-1.2s1.4.4,1.4,1.2v2.5c0,.8-.5,1.2-1.4,1.2M232.7,225.1c1.7,0,2.6-.9,2.6-2.4v-2.5c0-1.5-.9-2.4-2.6-2.4s-2.6.9-2.6,2.4v2.5c0,1.5.9,2.4,2.6,2.4M226.2,224c-.9,0-1.4-.5-1.4-1.2v-2.5c0-.8.5-1.2,1.4-1.2s1.4.4,1.4,1.2v2.5c0,.8-.5,1.2-1.4,1.2M226.2,225.1c1.7,0,2.6-.9,2.6-2.4v-2.5c0-1.5-.9-2.4-2.6-2.4s-2.6.9-2.6,2.4v2.5c0,1.5.9,2.4,2.6,2.4M217.8,225h4.2c.3,0,.3,0,.3-.3v-.5c0-.2,0-.3-.3-.3h-3.3v-.2c0-.5.6-.6,1-.8,2-.8,2.7-1.4,2.7-2.8s-.9-2.2-2.4-2.2-2.2.6-2.6,1.6c0,.2,0,.3.2.4l.5.2c.2,0,.3,0,.4-.2.3-.6.7-.9,1.4-.9s1.1.5,1.1,1.1c0,1-.9,1.3-1.8,1.6-1,.4-1.9.8-1.9,2.2v.7c0,.2,0,.3.3.3"></path>
    <path class="st6" d="M239.2,189.3c-.9,0-1.4-.5-1.4-1.2v-2.5c0-.8.5-1.2,1.4-1.2s1.4.4,1.4,1.2v2.5c0,.8-.5,1.2-1.4,1.2M239.2,190.4c1.7,0,2.6-.9,2.6-2.4v-2.5c0-1.5-.9-2.4-2.6-2.4s-2.6.9-2.6,2.4v2.5c0,1.5.9,2.4,2.6,2.4M232.7,189.3c-.9,0-1.4-.5-1.4-1.2v-2.5c0-.8.5-1.2,1.4-1.2s1.4.4,1.4,1.2v2.5c0,.8-.5,1.2-1.4,1.2M232.7,190.4c1.7,0,2.6-.9,2.6-2.4v-2.5c0-1.5-.9-2.4-2.6-2.4s-2.6.9-2.6,2.4v2.5c0,1.5.9,2.4,2.6,2.4M226.5,190.4c1.6,0,2.5-1.1,2.5-2.3s-.8-2.2-2.4-2.2h-1.2v-1.5h3c.2,0,.3,0,.3-.3v-.5c0-.2,0-.3-.3-.3h-3.5c-.4,0-.5.1-.5.5l-.3,2.9c0,.3,0,.4.4.4h2.1c.7,0,1.2.4,1.2,1.1s-.5,1.2-1.2,1.2-1.3-.3-1.5-.9c0-.2-.2-.3-.4-.2l-.5.2c-.2,0-.3.2-.2.4.4,1,1.2,1.6,2.7,1.6M218.2,190.3h4.2c.3,0,.3,0,.3-.3v-.5c0-.2,0-.3-.3-.3h-3.3v-.2c0-.5.6-.6,1-.8,2-.8,2.7-1.4,2.7-2.8s-.9-2.2-2.4-2.2-2.2.6-2.6,1.6c0,.2,0,.3.2.4l.5.2c.2,0,.3,0,.4-.2.3-.6.7-.9,1.4-.9s1.1.5,1.1,1.1c0,1-.9,1.3-1.8,1.6-1,.4-1.9.8-1.9,2.2v.7c0,.2,0,.3.3.3"></path>
    <path class="st6" d="M239.2,154.6c-.9,0-1.4-.5-1.4-1.2v-2.5c0-.8.5-1.2,1.4-1.2s1.4.4,1.4,1.2v2.5c0,.8-.5,1.2-1.4,1.2M239.2,155.7c1.7,0,2.6-.9,2.6-2.4v-2.5c0-1.5-.9-2.4-2.6-2.4s-2.6.9-2.6,2.4v2.5c0,1.5.9,2.4,2.6,2.4M232.7,154.6c-.9,0-1.4-.5-1.4-1.2v-2.5c0-.8.5-1.2,1.4-1.2s1.4.4,1.4,1.2v2.5c0,.8-.5,1.2-1.4,1.2M232.7,155.7c1.7,0,2.6-.9,2.6-2.4v-2.5c0-1.5-.9-2.4-2.6-2.4s-2.6.9-2.6,2.4v2.5c0,1.5.9,2.4,2.6,2.4M226.2,154.6c-.9,0-1.4-.5-1.4-1.2v-2.5c0-.8.5-1.2,1.4-1.2s1.4.4,1.4,1.2v2.5c0,.8-.5,1.2-1.4,1.2M226.2,155.7c1.7,0,2.6-.9,2.6-2.4v-2.5c0-1.5-.9-2.4-2.6-2.4s-2.6.9-2.6,2.4v2.5c0,1.5.9,2.4,2.6,2.4M219.9,155.7c1.7,0,2.5-.9,2.5-2.1s-.3-1.4-1-1.7c.5-.3.8-.8.8-1.5,0-1.2-.8-2-2.3-2s-2.2.6-2.6,1.7c0,.2,0,.3.2.4l.5.2c.2,0,.3,0,.4-.2.2-.6.5-.9,1.4-.9s1.1.3,1.1,1-.4.9-1,.9h-.9c-.2,0-.3,0-.3.3v.4c0,.3,0,.3.3.3h1c.7,0,1,.3,1,1s-.4,1-1.2,1-1.3-.3-1.5-.9c0-.2-.2-.3-.4-.2l-.5.2c-.2,0-.3.2-.2.4.4,1.1,1.2,1.7,2.7,1.7"></path>
  </g>
</svg>
