<?xml version="1.0" encoding="UTF-8"?>
<svg xmlns="http://www.w3.org/2000/svg" xmlns:xlink="http://www.w3.org/1999/xlink" version="1.1" id="Ebene_1" x="0px" y="0px" width="100px" height="100px" viewBox="0 0 100 100" xml:space="preserve">
<g>
	<defs>
		<rect id="SVGID_1_" x="0.3" y="0.2" width="99.8" height="99.8"></rect>
	</defs>
	<clipPath id="SVGID_00000022553528337137663800000014521144382628997761_">
		<use xlink:href="#SVGID_1_" overflow="visible"></use>
	</clipPath>
	<path clip-path="url(#SVGID_00000022553528337137663800000014521144382628997761_)" fill="#94C24A" d="M50.2,98.1   c26.5,0,48-21.5,48-48c0-26.5-21.5-48-48-48s-48,21.5-48,48C2.2,76.6,23.8,98.1,50.2,98.1"></path>
	
		<path clip-path="url(#SVGID_00000022553528337137663800000014521144382628997761_)" fill="none" stroke="#FFFFFF" stroke-width="2" stroke-miterlimit="10" d="   M50.2,98.1c26.5,0,48-21.5,48-48c0-26.5-21.5-48-48-48s-48,21.5-48,48C2.2,76.6,23.8,98.1,50.2,98.1z"></path>
	<path clip-path="url(#SVGID_00000022553528337137663800000014521144382628997761_)" fill="#FFFFFF" d="M71.9,55.6   c-5.7,3.9-8,5-10.2,6.4c-3.3,1.9-5.3,2.2-10.3,2.2c-3.3,0-5.1-2.7,4.2-3.3c5.4-0.4,8.1-2,7.7-4.4c-0.5-2.7-9.1-1.4-16-1.2   c-3.6,0.1-7.3,1.7-9.9,3.2v15.1c9.7,0,19.7-0.3,19.7-0.3c2.9,0,4-1.1,4-1.1s9.8-7.7,13.9-11.4C79.4,56.8,76.1,52.8,71.9,55.6"></path>
	<path clip-path="url(#SVGID_00000022553528337137663800000014521144382628997761_)" fill="#FFFFFF" d="M33.3,53.9h-7.8V76h7.6   c0,0,1.7-0.2,1.8-1.6V56C35,54.2,33.3,53.9,33.3,53.9"></path>
	<path clip-path="url(#SVGID_00000022553528337137663800000014521144382628997761_)" fill="#FFFFFF" d="M50.5,39.8   c2.8,7.5-0.2,12-0.2,12h3.2h2h1.5c0,0-1.3-2.2-1.4-4.8c-0.1-1.4-0.1-3,0.2-4.6c0.1-0.4,0.9-2.9,5.6-2.6c5,0.3,12.2,0,16.2-7.8   c0,0-3.5-2.1-5.2-2.6c0,0-7.6-2.4-13.3,2.6c-3.8,3.4-5,7.2-5.4,9.3c-0.2-0.6-0.4-1.2-0.7-1.8c0,0,0,0,0,0c0,0-0.9-2.5-3.9-5.6   c-3.2-3.3-6.6-5-8.8-5.8c-0.4-0.1,0-0.2,0.3-0.2c2.9,0.6,6.4,1.2,10.9,5.6c1.5,1.4,2.1,2.6,2.4,3.5c0.8-6.5-3.8-10.5-8.8-12.1   c-3.3-1-6.7-0.9-9.3-0.3c-2.3,0.6-4.3,1.1-4.3,1.1c3.9,13.7,15,13.7,15,13.7C47.9,39.8,49.3,39.9,50.5,39.8"></path>
</g>
</svg>
