<?xml version="1.0" encoding="UTF-8"?>
<svg xmlns="http://www.w3.org/2000/svg" xmlns:xlink="http://www.w3.org/1999/xlink" version="1.1" id="Ebene_1" x="0px" y="0px" width="100px" height="100px" viewBox="0 0 100 100" xml:space="preserve">
<g>
	<defs>
		<rect id="SVGID_1_" x="0.3" y="0.2" width="99.8" height="99.8"></rect>
	</defs>
	<clipPath id="SVGID_00000131325320996322635820000012842659868888061606_">
		<use xlink:href="#SVGID_1_" overflow="visible"></use>
	</clipPath>
	<g clip-path="url(#SVGID_00000131325320996322635820000012842659868888061606_)">
		<path fill="#94C24A" d="M50.2,98.1c26.5,0,48-21.5,48-48c0-26.5-21.5-48-48-48s-48,21.5-48,48C2.2,76.6,23.8,98.1,50.2,98.1"></path>
		<path fill="none" stroke="#FFFFFF" stroke-width="2" stroke-miterlimit="10" d="M50.2,98.1c26.5,0,48-21.5,48-48    c0-26.5-21.5-48-48-48s-48,21.5-48,48C2.2,76.6,23.8,98.1,50.2,98.1z"></path>
		<path fill="#FFFFFF" d="M34.5,57.2l5.8-8.1c0.3,0.1,0.7,0.2,1,0.2c0.5,0,1-0.1,1.4-0.3l1.8,2c-0.3,0.5-0.5,1.1-0.5,1.8    c0,2,1.6,3.6,3.6,3.6s3.6-1.6,3.6-3.6c0-0.8-0.2-1.5-0.6-2l5.7-7.7c0.3,0.1,0.7,0.2,1.1,0.2c2,0,3.6-1.6,3.6-3.6    c0-2-1.6-3.6-3.6-3.6c-2,0-3.6,1.6-3.6,3.6c0,0.8,0.2,1.5,0.6,2l-5.7,7.7c-0.3-0.1-0.7-0.2-1.1-0.2c-0.5,0-1,0.1-1.4,0.3l-1.8-2    c0.3-0.5,0.5-1.1,0.5-1.8c0-2-1.6-3.6-3.6-3.6s-3.6,1.6-3.6,3.6c0,0.8,0.3,1.5,0.7,2.1L33,55.3c-2-2.8-3.1-6.3-3.1-9.9    c0-9.6,7.8-17.5,17.5-17.5s17.5,7.8,17.5,17.5S57,62.9,47.3,62.9C42.3,62.9,37.7,60.7,34.5,57.2 M74.7,65.7l-7.8-7.8    c-0.2-0.2-0.3-0.3-0.5-0.4c2.2-3.5,3.5-7.6,3.5-12c0-12.4-10.1-22.5-22.5-22.5S24.8,33,24.8,45.4c0,12.4,10.1,22.5,22.5,22.5    c4.4,0,8.6-1.3,12-3.5c0.1,0.2,0.2,0.3,0.4,0.5l7.8,7.8c1,1,2.3,1.5,3.5,1.5s2.6-0.5,3.5-1.5C76.6,70.8,76.6,67.6,74.7,65.7"></path>
	</g>
</g>
</svg>
