<?xml version="1.0" encoding="UTF-8"?>
<svg xmlns="http://www.w3.org/2000/svg" xmlns:xlink="http://www.w3.org/1999/xlink" version="1.1" id="Ebene_1" x="0px" y="0px" width="100px" height="100px" viewBox="0 0 100 100" xml:space="preserve">
<g>
	<defs>
		<rect id="SVGID_1_" x="0.3" y="0.2" width="99.8" height="99.8"></rect>
	</defs>
	<clipPath id="SVGID_00000003083331226650705190000011249925239173048482_">
		<use xlink:href="#SVGID_1_" overflow="visible"></use>
	</clipPath>
	<path clip-path="url(#SVGID_00000003083331226650705190000011249925239173048482_)" fill="#94C24A" d="M50.2,98.1   c26.5,0,48-21.5,48-48c0-26.5-21.5-48-48-48s-48,21.5-48,48C2.2,76.6,23.8,98.1,50.2,98.1"></path>
	
		<path clip-path="url(#SVGID_00000003083331226650705190000011249925239173048482_)" fill="none" stroke="#FFFFFF" stroke-width="2" stroke-miterlimit="10" d="   M50.2,98.1c26.5,0,48-21.5,48-48c0-26.5-21.5-48-48-48s-48,21.5-48,48C2.2,76.6,23.8,98.1,50.2,98.1z"></path>
	<path clip-path="url(#SVGID_00000003083331226650705190000011249925239173048482_)" fill="#FFFFFF" d="M48.8,31.4   c0-4.5-3.7-8.2-8.2-8.2c-4.5,0-8.2,3.7-8.2,8.2s3.7,8.2,8.2,8.2C45.2,39.6,48.8,35.9,48.8,31.4"></path>
	<path clip-path="url(#SVGID_00000003083331226650705190000011249925239173048482_)" fill="#FFFFFF" d="M61.1,33.6   c-5.1,0-9.2,4.1-9.2,9.2c0,5.1,4.1,9.2,9.2,9.2c5.1,0,9.2-4.1,9.2-9.2C70.4,37.8,66.2,33.6,61.1,33.6"></path>
	<path clip-path="url(#SVGID_00000003083331226650705190000011249925239173048482_)" fill="#FFFFFF" d="M77.1,65.1   c-0.7-6.8-7.6-10.6-16-10.6c-8.8,0-16,4.3-16,11.7v0.1c-0.9,0.3-1.4,1-1.4,2v7.4h2.4v-0.1v-6.9c2.4,0.1,18,0.7,30.7-1v7h2.4v-7.4   c0-0.6-0.2-1.2-0.7-1.6C78.1,65.3,77.6,65.1,77.1,65.1"></path>
	<path clip-path="url(#SVGID_00000003083331226650705190000011249925239173048482_)" fill="#FFFFFF" d="M26.4,52v2.7   c-1,0.5-1.8,1-2.5,1.6c-1.7,1.3-2.6,2.9-2.6,4.6c0,5.5,9.4,8.8,19.7,9.7V68c-10.3-0.9-17-4.1-17-7.1c0-3.5,9.2-7.4,22.4-7.4   c1.7,0,3.4,0.1,5,0.2c1-0.4,2-0.8,3.2-1.1c-2.9-2-4.9-5.3-5.1-9.1c-2.4-1.3-5.5-1.9-8.7-1.9C32.8,41.6,26.4,45.4,26.4,52"></path>
</g>
</svg>
