<?xml version="1.0" encoding="UTF-8"?>
<svg xmlns="http://www.w3.org/2000/svg" id="Ebene_1" data-name="Ebene 1" viewBox="0 0 678.56 135.56">
  <defs>
    <style>.cls-1{fill:#1a171b;}.cls-2{fill:#707173;}.cls-3{fill:#0076bd;}.cls-4{fill:#005286;}</style>
  </defs>
  <path class="cls-1" d="M352.33,195.41c-.13-.31-.05-.51.28-.61l.66-.23c.31-.1.46,0,.61.28.59,1.6,1.91,2.21,3.9,2.21,2.44,0,3.58-.84,3.58-2.31,0-1.81-1.47-2.12-3.69-2.34-2.57-.26-5.14-.62-5.14-3.85,0-2.34,1.68-3.81,5-3.81,2.92,0,4.45,1.09,5.19,2.77a.41.41,0,0,1-.23.66l-.64.28c-.35.13-.45.08-.63-.23-.54-1.17-1.45-2-3.67-2s-3.33.79-3.33,2.24c0,2,1.6,2.19,3.84,2.39,2.78.26,4.94.84,4.94,3.77,0,2.37-1.68,3.89-5.22,3.89C355,198.56,353.17,197.6,352.33,195.41Z" transform="translate(-81.66 -73.95)"></path>
  <path class="cls-1" d="M367.93,193.91v-4.48c0-2.9,2.11-4.68,5.57-4.68s5.6,1.78,5.6,4.68v4.48c0,2.9-2.09,4.65-5.6,4.65S367.93,196.81,367.93,193.91Zm9.46,0V189.4c0-1.93-1.5-3.1-3.89-3.1s-3.87,1.17-3.87,3.1v4.51c0,1.93,1.5,3.13,3.87,3.13S377.39,195.84,377.39,193.91Z" transform="translate(-81.66 -73.95)"></path>
  <path class="cls-1" d="M384.82,197.75V179.83c0-.35.1-.45.46-.45h.79c.33,0,.46.1.46.45v17.92c0,.36-.13.46-.46.46h-.79C384.92,198.21,384.82,198.11,384.82,197.75Z" transform="translate(-81.66 -73.95)"></path>
  <path class="cls-1" d="M392.51,181.16V181c0-.76.2-.94.94-.94h.15c.74,0,.94.18.94.94v.16c0,.73-.2.94-.94.94h-.15C392.71,182.1,392.51,181.92,392.51,181.16Zm.15,16.59V185.58c0-.35.13-.45.46-.45h.79c.35,0,.45.1.45.45v12.17c0,.36-.1.46-.45.46h-.79C392.79,198.21,392.66,198.11,392.66,197.75Z" transform="translate(-81.66 -73.95)"></path>
  <path class="cls-1" d="M400,193.47v-3.64c0-3.2,1.61-5.08,5-5.08a11.94,11.94,0,0,1,4,.73v-5.65c0-.35.12-.45.46-.45h.78c.36,0,.46.1.46.45v16.6c0,.81-.18,1-1,1.37a11.18,11.18,0,0,1-4.4.76C401.69,198.56,400,196.76,400,193.47Zm8.55,3.06c.46-.18.49-.26.49-.66v-8.78a9.81,9.81,0,0,0-3.72-.79c-2.52,0-3.61,1.27-3.61,3.59v3.56c0,2.34,1.24,3.56,3.79,3.56A9.28,9.28,0,0,0,408.56,196.53Z" transform="translate(-81.66 -73.95)"></path>
  <path class="cls-1" d="M425.25,181.16V181c0-.76.21-.94.94-.94h.16c.74,0,.94.18.94.94v.16c0,.73-.2.94-.94.94h-.16C425.46,182.1,425.25,181.92,425.25,181.16Zm.16,16.59V185.58c0-.35.12-.45.45-.45h.79c.36,0,.46.1.46.45v12.17c0,.36-.1.46-.46.46h-.79C425.53,198.21,425.41,198.11,425.41,197.75Z" transform="translate(-81.66 -73.95)"></path>
  <path class="cls-1" d="M433.12,197.75V187c0-.79.2-1.07,1-1.4a11.91,11.91,0,0,1,4.74-.86c3.48,0,5.06,1.85,5.06,5v8c0,.36-.13.46-.46.46h-.79c-.35,0-.45-.1-.45-.46v-8c0-2.29-1.1-3.48-3.57-3.48a9.87,9.87,0,0,0-3.38.58.59.59,0,0,0-.41.64v10.23c0,.36-.1.46-.46.46h-.79C433.24,198.21,433.12,198.11,433.12,197.75Z" transform="translate(-81.66 -73.95)"></path>
  <path class="cls-1" d="M453.14,197.85l-5.09-12.19c-.18-.43-.08-.53.36-.53H449c.54,0,.69.07.82.45l3.48,8.4c.33.89.59,1.91.72,2.22h.07c.13-.31.36-1.3.69-2.19l3.46-8.43c.13-.38.26-.45.81-.45h.62c.4,0,.53.1.35.51l-5.09,12.21a.6.6,0,0,1-.66.43h-.46A.6.6,0,0,1,453.14,197.85Z" transform="translate(-81.66 -73.95)"></path>
  <path class="cls-1" d="M463.78,193.42v-3.31c0-3.35,1.93-5.36,5.62-5.36s5.65,2.21,5.65,5.26v1.4c0,.44-.2.72-.76.72h-8.81v1.47c0,2.16,1.3,3.49,3.82,3.49a4.14,4.14,0,0,0,4-2.11c.23-.31.41-.36.74-.18l.54.28c.33.17.38.4.17.74-.89,1.6-2.52,2.74-5.47,2.74C465.48,198.56,463.78,196.48,463.78,193.42Zm9.57-2.62v-.89c0-2.26-1.33-3.69-4-3.69s-3.92,1.43-3.92,3.69v.89Z" transform="translate(-81.66 -73.95)"></path>
  <path class="cls-1" d="M479.71,195.41c-.13-.31,0-.51.28-.61l.66-.23c.3-.1.46,0,.61.28.58,1.6,1.91,2.21,3.89,2.21,2.45,0,3.59-.84,3.59-2.31,0-1.81-1.48-2.12-3.69-2.34-2.57-.26-5.14-.62-5.14-3.85,0-2.34,1.68-3.81,5-3.81,2.93,0,4.46,1.09,5.19,2.77a.41.41,0,0,1-.22.66l-.64.28c-.36.13-.46.08-.64-.23-.53-1.17-1.45-2-3.66-2s-3.34.79-3.34,2.24c0,2,1.61,2.19,3.85,2.39,2.77.26,4.93.84,4.93,3.77,0,2.37-1.68,3.89-5.21,3.89C482.4,198.56,480.55,197.6,479.71,195.41Z" transform="translate(-81.66 -73.95)"></path>
  <path class="cls-1" d="M497,193V186.7h-2.41c-.34,0-.46-.12-.46-.45v-.67c0-.35.12-.45.46-.45H497v-2.6c0-.36.13-.46.46-.46h.79c.36,0,.46.1.46.46v2.6h3.66c.36,0,.46.1.46.45v.67c0,.33-.1.45-.46.45h-3.66v6.24c0,3,.86,3.64,3.64,3.64.36,0,.46.13.46.46v.68c0,.36-.1.49-.46.49C498.41,198.21,497,197.11,497,193Z" transform="translate(-81.66 -73.95)"></path>
  <path class="cls-1" d="M507.34,181.16V181c0-.76.2-.94.94-.94h.15c.74,0,.94.18.94.94v.16c0,.73-.2.94-.94.94h-.15C507.54,182.1,507.34,181.92,507.34,181.16Zm.15,16.59V185.58c0-.35.13-.45.46-.45h.79c.35,0,.46.1.46.45v12.17c0,.36-.11.46-.46.46H508C507.62,198.21,507.49,198.11,507.49,197.75Z" transform="translate(-81.66 -73.95)"></path>
  <path class="cls-1" d="M514.77,193.42v-3.31c0-3.35,1.93-5.36,5.62-5.36S526,187,526,190v1.4c0,.44-.2.72-.76.72h-8.81v1.47c0,2.16,1.3,3.49,3.82,3.49a4.16,4.16,0,0,0,4-2.11c.22-.31.4-.36.73-.18l.54.28c.33.17.38.4.18.74-.89,1.6-2.52,2.74-5.48,2.74C516.47,198.56,514.77,196.48,514.77,193.42Zm9.57-2.62v-.89c0-2.26-1.33-3.69-4-3.69s-3.92,1.43-3.92,3.69v.89Z" transform="translate(-81.66 -73.95)"></path>
  <path class="cls-1" d="M531.36,197.75V187.32a1.23,1.23,0,0,1,1-1.4,11.8,11.8,0,0,1,4.6-.79h.79c.33,0,.46.1.46.45v.64c0,.33-.13.46-.46.46h-.84a9.92,9.92,0,0,0-3.36.53.63.63,0,0,0-.46.69v9.85c0,.36-.1.46-.45.46h-.8C531.48,198.21,531.36,198.11,531.36,197.75Z" transform="translate(-81.66 -73.95)"></path>
  <path class="cls-1" d="M544.11,193V186.7h-2.42c-.33,0-.46-.12-.46-.45v-.67c0-.35.13-.45.46-.45h2.42v-2.6c0-.36.12-.46.45-.46h.79c.36,0,.46.1.46.46v2.6h3.66c.36,0,.46.1.46.45v.67c0,.33-.1.45-.46.45h-3.66v6.24c0,3,.87,3.64,3.64,3.64.36,0,.46.13.46.46v.68c0,.36-.1.49-.46.49C545.48,198.21,544.11,197.11,544.11,193Z" transform="translate(-81.66 -73.95)"></path>
  <path class="cls-1" d="M563.14,191.59v-.66c0-.38.1-.48.48-.48h10.51c.38,0,.51.1.51.48v.66c0,.36-.13.48-.51.48H563.62C563.24,192.07,563.14,192,563.14,191.59Z" transform="translate(-81.66 -73.95)"></path>
  <path class="cls-1" d="M588.51,195.41c-.13-.31,0-.51.28-.61l.66-.23c.3-.1.46,0,.61.28.58,1.6,1.91,2.21,3.89,2.21,2.45,0,3.59-.84,3.59-2.31,0-1.81-1.48-2.12-3.69-2.34-2.57-.26-5.14-.62-5.14-3.85,0-2.34,1.68-3.81,5-3.81,2.93,0,4.46,1.09,5.19,2.77a.41.41,0,0,1-.22.66l-.64.28c-.36.13-.46.08-.64-.23-.53-1.17-1.45-2-3.66-2s-3.34.79-3.34,2.24c0,2,1.61,2.19,3.85,2.39,2.77.26,4.93.84,4.93,3.77,0,2.37-1.68,3.89-5.21,3.89C591.2,198.56,589.35,197.6,588.51,195.41Z" transform="translate(-81.66 -73.95)"></path>
  <path class="cls-1" d="M604,193.42v-3.31c0-3.35,1.93-5.36,5.62-5.36S615.3,187,615.3,190v1.4c0,.44-.2.72-.76.72h-8.81v1.47c0,2.16,1.3,3.49,3.82,3.49a4.16,4.16,0,0,0,4-2.11c.22-.31.4-.36.73-.18l.54.28c.33.17.38.4.18.74-.9,1.6-2.53,2.74-5.48,2.74C605.73,198.56,604,196.48,604,193.42Zm9.57-2.62v-.89c0-2.26-1.33-3.69-4-3.69s-3.92,1.43-3.92,3.69v.89Z" transform="translate(-81.66 -73.95)"></path>
  <path class="cls-1" d="M620.51,181.16V181c0-.76.21-.94,1-.94h.15c.74,0,.94.18.94.94v.16c0,.73-.2.94-.94.94h-.15C620.72,182.1,620.51,181.92,620.51,181.16Zm.16,16.59V185.58c0-.35.12-.45.46-.45h.78c.36,0,.46.1.46.45v12.17c0,.36-.1.46-.46.46h-.78C620.79,198.21,620.67,198.11,620.67,197.75Z" transform="translate(-81.66 -73.95)"></path>
  <path class="cls-1" d="M629.75,193V186.7h-2.42c-.33,0-.45-.12-.45-.45v-.67c0-.35.12-.45.45-.45h2.42v-2.6c0-.36.13-.46.46-.46H631c.35,0,.46.1.46.46v2.6h3.66c.36,0,.46.1.46.45v.67c0,.33-.1.45-.46.45h-3.66v6.24c0,3,.86,3.64,3.64,3.64.35,0,.45.13.45.46v.68c0,.36-.1.49-.45.49C631.12,198.21,629.75,197.11,629.75,193Z" transform="translate(-81.66 -73.95)"></path>
  <path class="cls-1" d="M654.41,197.7V182.38l-5.37,3c-.36.2-.56.15-.74-.18l-.38-.69c-.18-.31-.1-.48.23-.66l6.21-3.49a1.12,1.12,0,0,1,.71-.2h.69c.38,0,.51.13.51.51v17c0,.38-.13.51-.51.51h-.82C654.54,198.21,654.41,198.08,654.41,197.7Z" transform="translate(-81.66 -73.95)"></path>
  <path class="cls-1" d="M662.12,194.67c-.13-.36,0-.48.33-.64l.76-.28c.36-.12.48-.05.64.33.73,1.79,2.13,2.78,4.58,2.78,3.08,0,4.73-1.61,4.73-4.71V190a14.61,14.61,0,0,1-5,.81c-4.3,0-6.31-1.8-6.31-5.49,0-3.47,2.44-5.53,6.57-5.53,4.3,0,6.56,2.45,6.56,6.42v6c0,4.12-2.29,6.41-6.56,6.41C665.07,198.56,663.08,197.19,662.12,194.67Zm11-6.44v-2c0-3-1.63-4.71-4.73-4.71s-4.74,1.35-4.74,3.82,1.38,3.79,4.61,3.79A12.53,12.53,0,0,0,673.16,188.23Z" transform="translate(-81.66 -73.95)"></path>
  <path class="cls-1" d="M680.18,194.57c-.12-.36,0-.51.28-.64l.82-.3c.35-.13.51,0,.63.33.69,1.88,2.17,2.92,4.89,2.92a3.94,3.94,0,0,0,4.22-4.07c0-2.19-1.42-3.81-4.07-3.81h-5.52c-.46,0-.58-.18-.53-.62l.76-7.45c.05-.61.25-.79.86-.79h9.24c.38,0,.51.13.51.51v.71c0,.38-.13.48-.51.48h-8.37l-.56,5.45h4.22c4,0,5.88,2.49,5.88,5.52s-2.24,5.78-6.13,5.78C683.13,198.59,681.1,197.14,680.18,194.57Z" transform="translate(-81.66 -73.95)"></path>
  <path class="cls-1" d="M697.23,194.57c-.13-.36-.05-.51.28-.64l.81-.3c.36-.13.51,0,.64.33.69,1.88,2.16,2.92,4.89,2.92a3.94,3.94,0,0,0,4.22-4.07c0-2.19-1.42-3.81-4.07-3.81h-5.52c-.46,0-.59-.18-.54-.62l.77-7.45c0-.61.25-.79.86-.79h9.24c.38,0,.51.13.51.51v.71c0,.38-.13.48-.51.48h-8.37l-.56,5.45h4.22c4,0,5.88,2.49,5.88,5.52s-2.24,5.78-6.13,5.78C700.18,198.59,698.15,197.14,697.23,194.57Z" transform="translate(-81.66 -73.95)"></path>
  <path class="cls-2" d="M311,151.21c-2.64,0-5.76.14-8.54.21a4.26,4.26,0,0,1-.13-1c0-.49.13-.7.48-.84l2.5-.41c1.87-.28,1.94-1.6,1.94-7.29V113.53c0-5.69-.07-7-1.94-7.29l-2.5-.41c-.35-.14-.48-.35-.48-.84a4.26,4.26,0,0,1,.13-1c2.78.07,5.55.21,8.19.21s5.76-.14,8.54-.21a4.22,4.22,0,0,1,.14,1c0,.49-.14.7-.49.84l-2.5.41c-1.87.28-1.94,1.6-1.94,7.29v28.31c0,5.69.07,7,1.94,7.29l2.5.41c.35.14.49.35.49.84a4.22,4.22,0,0,1-.14,1C316.38,151.35,313.61,151.21,311,151.21Z" transform="translate(-81.66 -73.95)"></path>
  <path class="cls-2" d="M379.94,151.21c-2.63,0-5.75.14-8.53.21a4.22,4.22,0,0,1-.14-1c0-.49.14-.7.42-.84l2.5-.41c1.87-.28,2.15-1.6,1.94-7.29l-.77-27.69h-.13l-15.89,37.61a4,4,0,0,1-2.57,0L339.63,114.5h-.14L339.21,138c-.07,8.6.28,10.68,2.92,11.17l2.35.41c.35.14.49.35.49.84a4.22,4.22,0,0,1-.14,1c-2.7-.07-4.44-.21-7.14-.21-2.5,0-4.38.14-6.88.21a4.46,4.46,0,0,1-.2-1,.82.82,0,0,1,.48-.84l2-.34c2.08-.42,2.56-2.57,2.77-11.18l.7-24.84c.06-4.65-1.12-6.87-3.06-7.08l-1.8-.2c-.35-.07-.49-.28-.49-.77a5,5,0,0,1,.14-1.18c1.94.07,3.47.21,5.27.21a56,56,0,0,0,5.76-.21,2.34,2.34,0,0,1,.84.35c.76,1.8,1.8,4.65,3.33,8L360,142.67h.14l12.56-30.32c1.39-3.4,2.57-6.32,3.19-8a1.56,1.56,0,0,1,.76-.35,38.27,38.27,0,0,0,5,.21,44.91,44.91,0,0,0,5.41-.21,5,5,0,0,1,.14,1.18c0,.49-.14.7-.48.77l-1.88.2c-1.8.21-2.7,1.46-2.5,7.15l.91,28.59c.13,5.62.34,7,2.28,7.29l2.23.41c.34.14.48.35.48.84a4.22,4.22,0,0,1-.14,1C385.29,151.35,382.58,151.21,379.94,151.21Z" transform="translate(-81.66 -73.95)"></path>
  <path class="cls-2" d="M448.57,151.21c-2.63,0-5.75.14-8.53.21a4.22,4.22,0,0,1-.14-1c0-.49.14-.7.42-.84l2.5-.41c1.87-.28,2.15-1.6,1.94-7.29L444,114.15h-.13L428,151.76a4,4,0,0,1-2.57,0L408.26,114.5h-.14L407.84,138c-.07,8.6.28,10.68,2.92,11.17l2.35.41c.35.14.49.35.49.84a4.22,4.22,0,0,1-.14,1c-2.7-.07-4.44-.21-7.14-.21-2.5,0-4.38.14-6.88.21a4.46,4.46,0,0,1-.2-1,.82.82,0,0,1,.48-.84l2-.34c2.08-.42,2.56-2.57,2.77-11.18l.7-24.84c.06-4.65-1.12-6.87-3.06-7.08l-1.8-.2c-.35-.07-.49-.28-.49-.77A5,5,0,0,1,400,104c1.94.07,3.47.21,5.27.21A56,56,0,0,0,411,104a2.34,2.34,0,0,1,.84.35c.76,1.8,1.8,4.65,3.33,8l13.46,30.32h.14l12.56-30.32c1.39-3.4,2.57-6.32,3.19-8a1.56,1.56,0,0,1,.76-.35,38.27,38.27,0,0,0,5,.21,44.91,44.91,0,0,0,5.41-.21,5,5,0,0,1,.14,1.18c0,.49-.14.7-.48.77l-1.88.2c-1.8.21-2.7,1.46-2.5,7.15l.91,28.59c.13,5.62.34,7,2.28,7.29l2.23.41c.34.14.48.35.48.84a4.22,4.22,0,0,1-.14,1C453.92,151.35,451.21,151.21,448.57,151.21Z" transform="translate(-81.66 -73.95)"></path>
  <path class="cls-2" d="M489,152.46a24.87,24.87,0,0,1-24.91-24.84c0-13.74,10.27-24.71,24.36-24.71a24.76,24.76,0,0,1,24.84,24.77C513.32,141.43,503.05,152.46,489,152.46Zm-1.25-47c-11.31,0-15.54,10.82-15.54,20.75,0,10.68,5.62,23.66,17.49,23.66,11.24,0,15.54-10.83,15.54-20.82C505.27,118.46,499.65,105.48,487.78,105.48Z" transform="translate(-81.66 -73.95)"></path>
  <path class="cls-2" d="M530.18,151.21c-2.63,0-5.83.14-8.6.21a4.22,4.22,0,0,1-.14-1c0-.49.14-.7.48-.84l2.5-.41c1.81-.28,2-1.6,2-7.29V113.53c0-5.69-.07-6.94-2-7.29l-2.5-.41c-.34-.07-.48-.35-.48-.77a4.36,4.36,0,0,1,.14-1.11c1.66.21,4.65.21,7.91.21h11.86c6.46,0,9.72.07,10.62-.14.35.21.56.35.62.49a78.27,78.27,0,0,0,1.53,8.19A3,3,0,0,1,553,113a.71.71,0,0,1-.83-.41l-.83-1.88c-1.53-3.26-3.4-3.88-10.07-3.88h-6.93c-.49.55-.84,2.22-.84,6.45V125.4a1,1,0,0,0,.42.48h6.66c5.35,0,6.87-.69,7.08-2.43l.28-2c.07-.28.27-.42.69-.42a5.34,5.34,0,0,1,1.11.14c-.07,2.5-.21,4.37-.21,6s.14,4.37.21,6.94a5.34,5.34,0,0,1-1.11.14c-.42,0-.62-.14-.69-.56l-.28-2.5c-.21-1.73-1.73-2.63-7.08-2.63h-6.66a1,1,0,0,0-.42.48v12.36c0,6,.7,7.21,2.85,7.56l3.26.48c.28.07.48.35.48.84a4,4,0,0,1-.2,1.11C537.12,151.42,532.82,151.21,530.18,151.21Z" transform="translate(-81.66 -73.95)"></path>
  <path class="cls-2" d="M585.35,152.46a24.87,24.87,0,0,1-24.91-24.84c0-13.74,10.27-24.71,24.36-24.71a24.77,24.77,0,0,1,24.84,24.77C609.64,141.43,599.37,152.46,585.35,152.46Zm-1.25-47c-11.31,0-15.54,10.82-15.54,20.75,0,10.68,5.62,23.66,17.49,23.66,11.24,0,15.54-10.83,15.54-20.82C601.59,118.46,596,105.48,584.1,105.48Z" transform="translate(-81.66 -73.95)"></path>
  <path class="cls-2" d="M659.6,152.39c-.55,0-.55-.14-.83-.42-.77-1-2.09-2.63-4.17-5.06L625.94,113.6h-.14v24.08c0,8.81.84,10.89,3.68,11.45l2.5.41c.28.14.42.35.42.84a4.22,4.22,0,0,1-.14,1c-2.78-.07-5-.21-7.77-.21s-4.86.14-7.5.21a4.22,4.22,0,0,1-.14-1c0-.49.14-.7.49-.84l2.15-.34c2.29-.35,2.78-2.43,2.78-11.18V112.56a6.46,6.46,0,0,0-1.46-4.58,4,4,0,0,0-3.19-1.81l-1.88-.21a.81.81,0,0,1-.48-.83,4.56,4.56,0,0,1,.21-1.18c1.87.07,3.26.21,5.06.21,1.53,0,4.65,0,6.59-.21a1.55,1.55,0,0,1,.77.35c1.59,2,3.4,4.44,6.87,8.47L657.93,140h.14V117.69c-.07-8.81-.83-10.89-3.67-11.45l-2.5-.41a.79.79,0,0,1-.56-.84,4,4,0,0,1,.21-1c2.78.07,5.07.21,7.84.21,2.57,0,4.72-.14,7.43-.21a4.22,4.22,0,0,1,.14,1c0,.49-.14.7-.49.84l-2.08.34c-2.29.35-2.78,2.57-2.78,11.18V139.2a115.64,115.64,0,0,0,.56,13.05A22.58,22.58,0,0,1,659.6,152.39Z" transform="translate(-81.66 -73.95)"></path>
  <path class="cls-2" d="M716.43,144.41c-5.2,5.2-12.28,6.8-18.87,6.8H683.47c-3.54,0-6,.14-8,.21a4.22,4.22,0,0,1-.14-1c0-.49.14-.7.49-.84l2.5-.41c1.87-.28,1.94-1.6,1.94-7.29V113.53c0-5.69-.07-6.94-1.94-7.36l-2.5-.41c-.35-.07-.49-.28-.49-.77a4.22,4.22,0,0,1,.14-1,69.34,69.34,0,0,0,7,.21c5,0,8.54-.83,12.63-.83,8.19,0,15.82,1.66,21.65,7.42a23.15,23.15,0,0,1,6.8,16.73A24,24,0,0,1,716.43,144.41ZM695.06,106.1a29.45,29.45,0,0,0-6.87.77c-.41.76-.76,2-.76,6.38v27.06c0,6.67,1.11,8.19,4.65,8.19h5.69c9.64,0,17.69-6.94,17.69-19.77C715.46,114.92,707.14,106.1,695.06,106.1Z" transform="translate(-81.66 -73.95)"></path>
  <path class="cls-2" d="M743.29,152.46A22,22,0,0,1,732,149.82a2,2,0,0,1-.48-.55c-.21-2-.56-6.81-1.11-9.3a3.49,3.49,0,0,1,1.18-.21c.55,0,.76.14.83.55,1.59,6.25,5.2,9.72,11.66,9.72,5.34,0,9.3-3.05,9.3-8.6,0-12.84-20.27-10.48-20.27-25.54,0-6.52,4.51-13,14.85-13a31,31,0,0,1,9,1.18,1.18,1.18,0,0,1,.49.56c.07,2,.55,5.34.83,7.7a1.68,1.68,0,0,1-1,.28c-.48,0-.76-.14-.83-.49-1.46-4.86-4.51-6.94-9.16-6.94s-8.4,3.06-8.4,7.64c0,11.17,21.38,11,21.38,25C760.23,147.25,751.83,152.46,743.29,152.46Z" transform="translate(-81.66 -73.95)"></path>
  <polygon class="cls-3" points="86.63 135.56 0 77.21 0 0 86.63 58.34 86.63 135.56"></polygon>
  <polygon class="cls-4" points="86.63 135.56 173.26 77.21 173.26 0 86.63 58.34 86.63 135.56"></polygon>
</svg>
