<?xml version="1.0" encoding="UTF-8"?>
<svg xmlns="http://www.w3.org/2000/svg" id="Ebene_1" data-name="Ebene 1" viewBox="0 0 678.56 135.56">
  <defs>
    <style>.cls-1{fill:#707173;}.cls-2{fill:#009036;}.cls-3{fill:#006729;}.cls-4{fill:#1a171b;}</style>
  </defs>
  <path class="cls-1" d="M311,151.21c-2.64,0-5.76.14-8.54.21a4.26,4.26,0,0,1-.13-1c0-.49.13-.7.48-.84l2.5-.41c1.87-.28,1.94-1.6,1.94-7.29V113.53c0-5.69-.07-7-1.94-7.29l-2.5-.41c-.35-.14-.48-.35-.48-.84a4.26,4.26,0,0,1,.13-1c2.78.07,5.55.21,8.19.21s5.76-.14,8.54-.21a4.22,4.22,0,0,1,.14,1c0,.49-.14.7-.49.84l-2.5.41c-1.87.28-1.94,1.6-1.94,7.29v28.31c0,5.69.07,7,1.94,7.29l2.5.41c.35.14.49.35.49.84a4.22,4.22,0,0,1-.14,1C316.38,151.35,313.61,151.21,311,151.21Z" transform="translate(-81.66 -73.95)"></path>
  <path class="cls-1" d="M379.94,151.21c-2.63,0-5.75.14-8.53.21a4.22,4.22,0,0,1-.14-1c0-.49.14-.7.42-.84l2.5-.41c1.87-.28,2.15-1.6,1.94-7.29l-.77-27.69h-.13l-15.89,37.61a4,4,0,0,1-2.57,0L339.63,114.5h-.14L339.21,138c-.07,8.6.28,10.68,2.92,11.17l2.35.41c.35.14.49.35.49.84a4.22,4.22,0,0,1-.14,1c-2.7-.07-4.44-.21-7.14-.21-2.5,0-4.38.14-6.88.21a4.46,4.46,0,0,1-.2-1,.82.82,0,0,1,.48-.84l2-.34c2.08-.42,2.56-2.57,2.77-11.18l.7-24.84c.06-4.65-1.12-6.87-3.06-7.08l-1.8-.2c-.35-.07-.49-.28-.49-.77a5,5,0,0,1,.14-1.18c1.94.07,3.47.21,5.27.21a56,56,0,0,0,5.76-.21,2.34,2.34,0,0,1,.84.35c.76,1.8,1.8,4.65,3.33,8L360,142.67h.14l12.56-30.32c1.39-3.4,2.57-6.32,3.19-8a1.56,1.56,0,0,1,.76-.35,38.27,38.27,0,0,0,5,.21,44.91,44.91,0,0,0,5.41-.21,5,5,0,0,1,.14,1.18c0,.49-.14.7-.48.77l-1.88.2c-1.8.21-2.7,1.46-2.5,7.15l.91,28.59c.13,5.62.34,7,2.28,7.29l2.23.41c.34.14.48.35.48.84a4.22,4.22,0,0,1-.14,1C385.29,151.35,382.58,151.21,379.94,151.21Z" transform="translate(-81.66 -73.95)"></path>
  <path class="cls-1" d="M448.57,151.21c-2.63,0-5.75.14-8.53.21a4.22,4.22,0,0,1-.14-1c0-.49.14-.7.42-.84l2.5-.41c1.87-.28,2.15-1.6,1.94-7.29L444,114.15h-.13L428,151.76a4,4,0,0,1-2.57,0L408.26,114.5h-.14L407.84,138c-.07,8.6.28,10.68,2.92,11.17l2.35.41c.35.14.49.35.49.84a4.22,4.22,0,0,1-.14,1c-2.7-.07-4.44-.21-7.14-.21-2.5,0-4.38.14-6.88.21a4.46,4.46,0,0,1-.2-1,.82.82,0,0,1,.48-.84l2-.34c2.08-.42,2.56-2.57,2.77-11.18l.7-24.84c.06-4.65-1.12-6.87-3.06-7.08l-1.8-.2c-.35-.07-.49-.28-.49-.77A5,5,0,0,1,400,104c1.94.07,3.47.21,5.27.21A56,56,0,0,0,411,104a2.34,2.34,0,0,1,.84.35c.76,1.8,1.8,4.65,3.33,8l13.46,30.32h.14l12.56-30.32c1.39-3.4,2.57-6.32,3.19-8a1.56,1.56,0,0,1,.76-.35,38.27,38.27,0,0,0,5,.21,44.91,44.91,0,0,0,5.41-.21,5,5,0,0,1,.14,1.18c0,.49-.14.7-.48.77l-1.88.2c-1.8.21-2.7,1.46-2.5,7.15l.91,28.59c.13,5.62.34,7,2.28,7.29l2.23.41c.34.14.48.35.48.84a4.22,4.22,0,0,1-.14,1C453.92,151.35,451.21,151.21,448.57,151.21Z" transform="translate(-81.66 -73.95)"></path>
  <path class="cls-1" d="M489,152.46a24.87,24.87,0,0,1-24.91-24.84c0-13.74,10.27-24.71,24.36-24.71a24.76,24.76,0,0,1,24.84,24.77C513.32,141.43,503.05,152.46,489,152.46Zm-1.25-47c-11.31,0-15.54,10.82-15.54,20.75,0,10.68,5.62,23.66,17.49,23.66,11.24,0,15.54-10.83,15.54-20.82C505.27,118.46,499.65,105.48,487.78,105.48Z" transform="translate(-81.66 -73.95)"></path>
  <path class="cls-1" d="M530.18,151.21c-2.63,0-5.83.14-8.6.21a4.22,4.22,0,0,1-.14-1c0-.49.14-.7.48-.84l2.5-.41c1.81-.28,2-1.6,2-7.29V113.53c0-5.69-.07-6.94-2-7.29l-2.5-.41c-.34-.07-.48-.35-.48-.77a4.36,4.36,0,0,1,.14-1.11c1.66.21,4.65.21,7.91.21h11.86c6.46,0,9.72.07,10.62-.14.35.21.56.35.62.49a78.27,78.27,0,0,0,1.53,8.19A3,3,0,0,1,553,113a.71.71,0,0,1-.83-.41l-.83-1.88c-1.53-3.26-3.4-3.88-10.07-3.88h-6.93c-.49.55-.84,2.22-.84,6.45V125.4a1,1,0,0,0,.42.48h6.66c5.35,0,6.87-.69,7.08-2.43l.28-2c.07-.28.27-.42.69-.42a5.34,5.34,0,0,1,1.11.14c-.07,2.5-.21,4.37-.21,6s.14,4.37.21,6.94a5.34,5.34,0,0,1-1.11.14c-.42,0-.62-.14-.69-.56l-.28-2.5c-.21-1.73-1.73-2.63-7.08-2.63h-6.66a1,1,0,0,0-.42.48v12.36c0,6,.7,7.21,2.85,7.56l3.26.48c.28.07.48.35.48.84a4,4,0,0,1-.2,1.11C537.12,151.42,532.82,151.21,530.18,151.21Z" transform="translate(-81.66 -73.95)"></path>
  <path class="cls-1" d="M585.35,152.46a24.87,24.87,0,0,1-24.91-24.84c0-13.74,10.27-24.71,24.36-24.71a24.77,24.77,0,0,1,24.84,24.77C609.64,141.43,599.37,152.46,585.35,152.46Zm-1.25-47c-11.31,0-15.54,10.82-15.54,20.75,0,10.68,5.62,23.66,17.49,23.66,11.24,0,15.54-10.83,15.54-20.82C601.59,118.46,596,105.48,584.1,105.48Z" transform="translate(-81.66 -73.95)"></path>
  <path class="cls-1" d="M659.6,152.39c-.55,0-.55-.14-.83-.42-.77-1-2.09-2.63-4.17-5.06L625.94,113.6h-.14v24.08c0,8.81.84,10.89,3.68,11.45l2.5.41c.28.14.42.35.42.84a4.22,4.22,0,0,1-.14,1c-2.78-.07-5-.21-7.77-.21s-4.86.14-7.5.21a4.22,4.22,0,0,1-.14-1c0-.49.14-.7.49-.84l2.15-.34c2.29-.35,2.78-2.43,2.78-11.18V112.56a6.46,6.46,0,0,0-1.46-4.58,4,4,0,0,0-3.19-1.81l-1.88-.21a.81.81,0,0,1-.48-.83,4.56,4.56,0,0,1,.21-1.18c1.87.07,3.26.21,5.06.21,1.53,0,4.65,0,6.59-.21a1.55,1.55,0,0,1,.77.35c1.59,2,3.4,4.44,6.87,8.47L657.93,140h.14V117.69c-.07-8.81-.83-10.89-3.67-11.45l-2.5-.41a.79.79,0,0,1-.56-.84,4,4,0,0,1,.21-1c2.78.07,5.07.21,7.84.21,2.57,0,4.72-.14,7.43-.21a4.22,4.22,0,0,1,.14,1c0,.49-.14.7-.49.84l-2.08.34c-2.29.35-2.78,2.57-2.78,11.18V139.2a115.64,115.64,0,0,0,.56,13.05A22.58,22.58,0,0,1,659.6,152.39Z" transform="translate(-81.66 -73.95)"></path>
  <path class="cls-1" d="M716.43,144.41c-5.2,5.2-12.28,6.8-18.87,6.8H683.47c-3.54,0-6,.14-8,.21a4.22,4.22,0,0,1-.14-1c0-.49.14-.7.49-.84l2.5-.41c1.87-.28,1.94-1.6,1.94-7.29V113.53c0-5.69-.07-6.94-1.94-7.36l-2.5-.41c-.35-.07-.49-.28-.49-.77a4.22,4.22,0,0,1,.14-1,69.34,69.34,0,0,0,7,.21c5,0,8.54-.83,12.63-.83,8.19,0,15.82,1.66,21.65,7.42a23.15,23.15,0,0,1,6.8,16.73A24,24,0,0,1,716.43,144.41ZM695.06,106.1a29.45,29.45,0,0,0-6.87.77c-.41.76-.76,2-.76,6.38v27.06c0,6.67,1.11,8.19,4.65,8.19h5.69c9.64,0,17.69-6.94,17.69-19.77C715.46,114.92,707.14,106.1,695.06,106.1Z" transform="translate(-81.66 -73.95)"></path>
  <path class="cls-1" d="M743.29,152.46A22,22,0,0,1,732,149.82a2,2,0,0,1-.48-.55c-.21-2-.56-6.81-1.11-9.3a3.49,3.49,0,0,1,1.18-.21c.55,0,.76.14.83.55,1.59,6.25,5.2,9.72,11.66,9.72,5.34,0,9.3-3.05,9.3-8.6,0-12.84-20.27-10.48-20.27-25.54,0-6.52,4.51-13,14.85-13a31,31,0,0,1,9,1.18,1.18,1.18,0,0,1,.49.56c.07,2,.55,5.34.83,7.7a1.68,1.68,0,0,1-1,.28c-.48,0-.76-.14-.83-.49-1.46-4.86-4.51-6.94-9.16-6.94s-8.4,3.06-8.4,7.64c0,11.17,21.38,11,21.38,25C760.23,147.25,751.83,152.46,743.29,152.46Z" transform="translate(-81.66 -73.95)"></path>
  <polygon class="cls-2" points="86.63 135.56 0 77.21 0 0 86.63 58.34 86.63 135.56"></polygon>
  <polygon class="cls-3" points="86.63 135.56 173.26 77.21 173.26 0 86.63 58.34 86.63 135.56"></polygon>
  <path class="cls-4" d="M472.19,195.41c-.13-.31-.05-.51.28-.61l.66-.23c.31-.1.46,0,.61.28.59,1.6,1.91,2.21,3.9,2.21,2.44,0,3.59-.84,3.59-2.31,0-1.81-1.48-2.11-3.69-2.34-2.58-.26-5.15-.61-5.15-3.85,0-2.34,1.68-3.81,5-3.81,2.93,0,4.45,1.09,5.19,2.77a.41.41,0,0,1-.23.66l-.63.28c-.36.13-.46.08-.64-.23-.54-1.17-1.45-2-3.67-2s-3.33.79-3.33,2.24c0,2,1.6,2.19,3.84,2.4,2.78.25,4.94.83,4.94,3.76,0,2.37-1.68,3.9-5.22,3.9C474.89,198.57,473,197.6,472.19,195.41Z" transform="translate(-81.66 -73.95)"></path>
  <path class="cls-4" d="M487.77,193.6v-8c0-.36.1-.46.45-.46H489c.33,0,.46.1.46.46v7.94c0,2.29,1.1,3.48,3.56,3.48a9.55,9.55,0,0,0,3.31-.53.67.67,0,0,0,.46-.74V185.59c0-.36.13-.46.46-.46h.79c.33,0,.46.1.46.46v10.74a1.24,1.24,0,0,1-.94,1.4,12.2,12.2,0,0,1-4.76.84C489.32,198.57,487.77,196.73,487.77,193.6Z" transform="translate(-81.66 -73.95)"></path>
  <path class="cls-4" d="M505.1,197.8c-.82-.35-1-.56-1-1.4V179.83c0-.35.13-.45.46-.45h.79c.35,0,.46.1.46.45v5.7a12.39,12.39,0,0,1,4-.78c3.49,0,5,1.85,5,5v3.62c0,3.38-1.76,5.22-5.48,5.22A11,11,0,0,1,505.1,197.8Zm8.09-4.48v-3.54c0-2.21-1.14-3.48-3.54-3.48a9.94,9.94,0,0,0-3.81.84v8.73c0,.38.05.46.48.63a8.17,8.17,0,0,0,3,.51C512,197,513.19,195.79,513.19,193.32Z" transform="translate(-81.66 -73.95)"></path>
  <path class="cls-4" d="M520.06,193.6v-8c0-.36.1-.46.46-.46h.79c.33,0,.46.1.46.46v7.94c0,2.29,1.09,3.48,3.56,3.48a9.59,9.59,0,0,0,3.31-.53.67.67,0,0,0,.46-.74V185.59c0-.36.12-.46.46-.46h.78c.34,0,.46.1.46.46v10.74a1.24,1.24,0,0,1-.94,1.4,12.12,12.12,0,0,1-4.76.84C521.61,198.57,520.06,196.73,520.06,193.6Z" transform="translate(-81.66 -73.95)"></path>
  <path class="cls-4" d="M536.43,197.75V187.32a1.23,1.23,0,0,1,1-1.4,11.86,11.86,0,0,1,4.61-.79h.79c.33,0,.46.1.46.46v.63c0,.33-.13.46-.46.46H542a9.92,9.92,0,0,0-3.36.53.63.63,0,0,0-.46.69v9.85c0,.36-.1.46-.46.46h-.79C536.55,198.21,536.43,198.11,536.43,197.75Z" transform="translate(-81.66 -73.95)"></path>
  <path class="cls-4" d="M548.44,197.8c-.82-.35-1-.56-1-1.4V179.83c0-.35.13-.45.46-.45h.79c.35,0,.46.1.46.45v5.7a12.39,12.39,0,0,1,4-.78c3.49,0,5,1.85,5,5v3.62c0,3.38-1.76,5.22-5.47,5.22A11,11,0,0,1,548.44,197.8Zm8.09-4.48v-3.54c0-2.21-1.14-3.48-3.54-3.48a9.94,9.94,0,0,0-3.81.84v8.73c0,.38.05.46.48.63a8.17,8.17,0,0,0,3,.51C555.31,197,556.53,195.79,556.53,193.32Z" transform="translate(-81.66 -73.95)"></path>
  <path class="cls-4" d="M562.77,194.62c0-2.93,1.6-3.92,5.6-3.92a21.93,21.93,0,0,1,3.33.26v-1.2c0-2-.66-3.49-3.44-3.49a3.75,3.75,0,0,0-3.58,1.84c-.18.3-.28.35-.62.22l-.61-.25c-.33-.13-.43-.31-.25-.66.89-1.68,2.54-2.67,5.12-2.67,4,0,5.08,2.29,5.08,5v6.67c0,.89-.2,1.15-.91,1.45a10.72,10.72,0,0,1-4.23.67C563.84,198.57,562.77,197.17,562.77,194.62Zm8.45,2.11c.38-.15.48-.25.48-.73v-3.7c-.51-.05-2-.22-3.51-.22-2.78,0-3.69.76-3.69,2.52,0,1.6.63,2.54,3.64,2.54A8.55,8.55,0,0,0,571.22,196.73Z" transform="translate(-81.66 -73.95)"></path>
  <path class="cls-4" d="M578.83,197.75V187c0-.79.2-1.07,1-1.4a11.91,11.91,0,0,1,4.74-.86c3.48,0,5.06,1.85,5.06,5v8c0,.36-.13.46-.46.46h-.79c-.35,0-.45-.1-.45-.46v-8c0-2.29-1.1-3.48-3.57-3.48a9.87,9.87,0,0,0-3.38.58.59.59,0,0,0-.41.64v10.23c0,.36-.1.46-.46.46h-.79C579,198.21,578.83,198.11,578.83,197.75Z" transform="translate(-81.66 -73.95)"></path>
</svg>
