<?xml version="1.0" encoding="UTF-8"?>
<!-- Generator: Adobe Illustrator 26.0.2, SVG Export Plug-In . SVG Version: 6.00 Build 0)  -->
<svg xmlns="http://www.w3.org/2000/svg" xmlns:xlink="http://www.w3.org/1999/xlink" version="1.1" id="Ebene_1" x="0px" y="0px" viewBox="0 0 31.5 19.1" style="enable-background:new 0 0 31.5 19.1;" xml:space="preserve">
<style type="text/css">
	.st0{fill:#EFEFEF;}
</style>
<g>
	<path class="st0" d="M21.5,6.7h-8.6c-0.3,0-0.6,0.3-0.6,0.6v1.1c0,0.3,0.3,0.6,0.6,0.6h7.3c0.5-0.7,1.2-1.3,2-1.8   C22.1,6.9,21.8,6.7,21.5,6.7z M9.4,6.7H0.7C0.4,6.7,0.1,7,0.1,7.3v1.1C0.1,8.7,0.4,9,0.7,9h8.6c0.3,0,0.6-0.3,0.6-0.6V7.3   C10,7,9.7,6.7,9.4,6.7z M12.8,12.3h5.9c0.1-0.8,0.4-1.6,0.8-2.4h-6.7c-0.3,0-0.6,0.3-0.6,0.6v1.1C12.2,12,12.5,12.3,12.8,12.3z    M9.4,10H0.7c-0.3,0-0.6,0.3-0.6,0.6v1.1c0,0.3,0.3,0.6,0.6,0.6h8.6c0.3,0,0.6-0.3,0.6-0.6v-1.1C10,10.2,9.7,10,9.4,10z M21.5,3.4   h-8.6c-0.3,0-0.6,0.3-0.6,0.6v1.1c0,0.3,0.3,0.6,0.6,0.6h8.6c0.3,0,0.6-0.3,0.6-0.6V4C22.1,3.7,21.8,3.4,21.5,3.4z M21.5,0.1h-8.6   c-0.3,0-0.6,0.3-0.6,0.6v1.1c0,0.3,0.3,0.6,0.6,0.6h8.6c0.3,0,0.6-0.3,0.6-0.6V0.7C22.1,0.4,21.8,0.1,21.5,0.1z M12.8,15.6H19   c-0.2-0.7-0.4-1.5-0.4-2.3l0,0h-5.8c-0.3,0-0.6,0.3-0.6,0.6V15C12.2,15.3,12.5,15.6,12.8,15.6z M9.4,13.2H0.7   c-0.3,0-0.6,0.3-0.6,0.6v1.1c0,0.3,0.3,0.6,0.6,0.6h8.6c0.3,0,0.6-0.3,0.6-0.6v-1.1C10,13.5,9.7,13.2,9.4,13.2z M19.5,16.5h-6.6   c-0.3,0-0.6,0.3-0.6,0.6v1.1c0,0.3,0.3,0.6,0.6,0.6h8.6C20.6,18.2,19.9,17.4,19.5,16.5z M9.4,16.5H0.7c-0.3,0-0.6,0.3-0.6,0.6v1.1   c0,0.3,0.3,0.6,0.6,0.6h8.6c0.3,0,0.6-0.3,0.6-0.6v-1.1C10,16.8,9.7,16.5,9.4,16.5z"></path>
	<path class="st0" d="M25.7,7.7c-3.1,0-5.6,2.5-5.6,5.6s2.5,5.6,5.6,5.6s5.6-2.5,5.6-5.6S28.8,7.7,25.7,7.7z"></path>
</g>
</svg>
