<?xml version="1.0" encoding="UTF-8"?>
<!-- Generator: Adobe Illustrator 26.0.2, SVG Export Plug-In . SVG Version: 6.00 Build 0)  -->
<svg xmlns="http://www.w3.org/2000/svg" xmlns:xlink="http://www.w3.org/1999/xlink" version="1.1" id="_x2014_ŽÓť_x5F_1" x="0px" y="0px" viewBox="0 0 222.4 220.9" style="enable-background:new 0 0 222.4 220.9;" xml:space="preserve">
<style type="text/css">
	.st0{fill:#EFEFEF;stroke:#FFFFFF;stroke-width:4;stroke-miterlimit:10;}
	.st1{fill:#FFFFFF;stroke:#EFEFEF;stroke-width:4;stroke-miterlimit:10;}
	.st2{fill:#EFEFEF;stroke:#FFFFFF;stroke-width:5;stroke-miterlimit:10;}
	.st3{fill:#EFEFEF;}
</style>
<g>
	<path class="st0" d="M120.6,5.3c-5.7-4.4-13.7-4.4-19.5,0L2.4,81l98.7,75.7c5.7,4.4,13.7,4.4,19.5,0L219.3,81L120.6,5.3z"></path>
	<path class="st1" d="M184.7,206H37.1c-5.4,0-9.8-4.4-9.8-9.8V48.6c0-5.4,4.4-9.8,9.8-9.8h147.6c5.4,0,9.8,4.4,9.8,9.8v147.5   C194.5,201.6,190.1,206,184.7,206z"></path>
	<polygon class="st2" points="93.6,149.7 2.5,81 2.5,218.4  "></polygon>
	<polygon class="st2" points="129.5,149.7 219.3,218.4 219.3,81  "></polygon>
	<path class="st2" d="M101.2,142.7L2.5,218.4h216.8l-98.7-75.7C114.9,138.3,106.9,138.3,101.2,142.7z"></path>
	<path class="st3" d="M131.8,73.3l-1.1-0.5c-3.4-1.6-8-2.5-12.6-2.5c-15.4,0-27.9,12.5-27.9,27.9c0,10.2,6.8,15.5,13.5,15.5   c6.1,0,11-2.5,15-7.5c0.4,1.8,1.2,3.4,2.4,4.7c1.8,1.8,4.2,2.9,7,2.9c10.6,0,21.3-9.6,21.3-28c0-19.9-13.9-33.7-33.9-33.7   c-24.1,0-42.2,19-42.2,44.3c0,21,14.8,36.3,35.3,36.3c8.1,0,14.5-1.4,20.5-4.6l1.2-0.6l-2.9-7.7l-1.5,0.9   c-4.3,2.4-9.9,3.7-16.1,3.7c-16.2,0-27.1-11.5-27.1-28.6c0-20.6,13.4-35.5,31.9-35.5c15.7,0,25.5,10.1,25.5,26.2   c0,7.1-2,13.1-5.5,16.5c-1.6,1.6-3.4,2.4-5,2.4c-1,0-1.4-0.4-1.7-0.8c-0.7-0.8-1.6-3.2-0.2-10L131.8,73.3z M120.7,79.7l-2.1,11.2   c-1.1,6.4-6.7,13.9-12.1,13.9c-5.3,0-5.9-4.9-5.9-7c0-10.1,7.4-18.6,16.2-18.6C118.2,79.3,119.5,79.4,120.7,79.7z"></path>
</g>
</svg>
