<svg id="Ebene_1" data-name="Ebene 1" xmlns="http://www.w3.org/2000/svg" viewBox="0 0 678.56 135.56"><defs><style>.cls-1{fill:#707173;}.cls-2{fill:#b1b3b4;}.cls-3{fill:#1a171b;}</style></defs><path class="cls-1" d="M311,151.21c-2.64,0-5.76.14-8.54.21a4.26,4.26,0,0,1-.13-1c0-.49.13-.7.48-.84l2.5-.41c1.87-.28,1.94-1.6,1.94-7.29V113.53c0-5.69-.07-7-1.94-7.29l-2.5-.41c-.35-.14-.48-.35-.48-.84a4.26,4.26,0,0,1,.13-1c2.78.07,5.55.21,8.19.21s5.76-.14,8.54-.21a4.22,4.22,0,0,1,.14,1c0,.49-.14.7-.49.84l-2.5.41c-1.87.28-1.94,1.6-1.94,7.29v28.31c0,5.69.07,7,1.94,7.29l2.5.41c.35.14.49.35.49.84a4.22,4.22,0,0,1-.14,1C316.38,151.35,313.61,151.21,311,151.21Z" transform="translate(-81.66 -73.95)"/><path class="cls-1" d="M379.94,151.21c-2.63,0-5.75.14-8.53.21a4.22,4.22,0,0,1-.14-1c0-.49.14-.7.42-.84l2.5-.41c1.87-.28,2.15-1.6,1.94-7.29l-.77-27.69h-.13l-15.89,37.61a4,4,0,0,1-2.57,0L339.63,114.5h-.14L339.21,138c-.07,8.6.28,10.68,2.92,11.17l2.35.41c.35.14.49.35.49.84a4.22,4.22,0,0,1-.14,1c-2.7-.07-4.44-.21-7.14-.21-2.5,0-4.38.14-6.88.21a4.46,4.46,0,0,1-.2-1,.82.82,0,0,1,.48-.84l2-.34c2.08-.42,2.56-2.57,2.77-11.18l.7-24.84c.06-4.65-1.12-6.87-3.06-7.08l-1.8-.2c-.35-.07-.49-.28-.49-.77a5,5,0,0,1,.14-1.18c1.94.07,3.47.21,5.27.21a56,56,0,0,0,5.76-.21,2.34,2.34,0,0,1,.84.35c.76,1.8,1.8,4.65,3.33,8L360,142.67h.14l12.56-30.32c1.39-3.4,2.57-6.32,3.19-8a1.56,1.56,0,0,1,.76-.35,38.27,38.27,0,0,0,5,.21,44.91,44.91,0,0,0,5.41-.21,5,5,0,0,1,.14,1.18c0,.49-.14.7-.48.77l-1.88.2c-1.8.21-2.7,1.46-2.5,7.15l.91,28.59c.13,5.62.34,7,2.28,7.29l2.23.41c.34.14.48.35.48.84a4.22,4.22,0,0,1-.14,1C385.29,151.35,382.58,151.21,379.94,151.21Z" transform="translate(-81.66 -73.95)"/><path class="cls-1" d="M448.57,151.21c-2.63,0-5.75.14-8.53.21a4.22,4.22,0,0,1-.14-1c0-.49.14-.7.42-.84l2.5-.41c1.87-.28,2.15-1.6,1.94-7.29L444,114.15h-.13L428,151.76a4,4,0,0,1-2.57,0L408.26,114.5h-.14L407.84,138c-.07,8.6.28,10.68,2.92,11.17l2.35.41c.35.14.49.35.49.84a4.22,4.22,0,0,1-.14,1c-2.7-.07-4.44-.21-7.14-.21-2.5,0-4.38.14-6.88.21a4.46,4.46,0,0,1-.2-1,.82.82,0,0,1,.48-.84l2-.34c2.08-.42,2.56-2.57,2.77-11.18l.7-24.84c.06-4.65-1.12-6.87-3.06-7.08l-1.8-.2c-.35-.07-.49-.28-.49-.77A5,5,0,0,1,400,104c1.94.07,3.47.21,5.27.21A56,56,0,0,0,411,104a2.34,2.34,0,0,1,.84.35c.76,1.8,1.8,4.65,3.33,8l13.46,30.32h.14l12.56-30.32c1.39-3.4,2.57-6.32,3.19-8a1.56,1.56,0,0,1,.76-.35,38.27,38.27,0,0,0,5,.21,44.91,44.91,0,0,0,5.41-.21,5,5,0,0,1,.14,1.18c0,.49-.14.7-.48.77l-1.88.2c-1.8.21-2.7,1.46-2.5,7.15l.91,28.59c.13,5.62.34,7,2.28,7.29l2.23.41c.34.14.48.35.48.84a4.22,4.22,0,0,1-.14,1C453.92,151.35,451.21,151.21,448.57,151.21Z" transform="translate(-81.66 -73.95)"/><path class="cls-1" d="M489,152.46a24.87,24.87,0,0,1-24.91-24.84c0-13.74,10.27-24.71,24.36-24.71a24.76,24.76,0,0,1,24.84,24.77C513.32,141.43,503.05,152.46,489,152.46Zm-1.25-47c-11.31,0-15.54,10.82-15.54,20.75,0,10.68,5.62,23.66,17.49,23.66,11.24,0,15.54-10.83,15.54-20.82C505.27,118.46,499.65,105.48,487.78,105.48Z" transform="translate(-81.66 -73.95)"/><path class="cls-1" d="M530.18,151.21c-2.63,0-5.83.14-8.6.21a4.22,4.22,0,0,1-.14-1c0-.49.14-.7.48-.84l2.5-.41c1.81-.28,2-1.6,2-7.29V113.53c0-5.69-.07-6.94-2-7.29l-2.5-.41c-.34-.07-.48-.35-.48-.77a4.36,4.36,0,0,1,.14-1.11c1.66.21,4.65.21,7.91.21h11.86c6.46,0,9.72.07,10.62-.14.35.21.56.35.62.49a78.27,78.27,0,0,0,1.53,8.19A3,3,0,0,1,553,113a.71.71,0,0,1-.83-.41l-.83-1.88c-1.53-3.26-3.4-3.88-10.07-3.88h-6.93c-.49.55-.84,2.22-.84,6.45V125.4a1,1,0,0,0,.42.48h6.66c5.35,0,6.87-.69,7.08-2.43l.28-2c.07-.28.27-.42.69-.42a5.34,5.34,0,0,1,1.11.14c-.07,2.5-.21,4.37-.21,6s.14,4.37.21,6.94a5.34,5.34,0,0,1-1.11.14c-.42,0-.62-.14-.69-.56l-.28-2.5c-.21-1.73-1.73-2.63-7.08-2.63h-6.66a1,1,0,0,0-.42.48v12.36c0,6,.7,7.21,2.85,7.56l3.26.48c.28.07.48.35.48.84a4,4,0,0,1-.2,1.11C537.12,151.42,532.82,151.21,530.18,151.21Z" transform="translate(-81.66 -73.95)"/><path class="cls-1" d="M585.35,152.46a24.87,24.87,0,0,1-24.91-24.84c0-13.74,10.27-24.71,24.36-24.71a24.77,24.77,0,0,1,24.84,24.77C609.64,141.43,599.37,152.46,585.35,152.46Zm-1.25-47c-11.31,0-15.54,10.82-15.54,20.75,0,10.68,5.62,23.66,17.49,23.66,11.24,0,15.54-10.83,15.54-20.82C601.59,118.46,596,105.48,584.1,105.48Z" transform="translate(-81.66 -73.95)"/><path class="cls-1" d="M659.6,152.39c-.55,0-.55-.14-.83-.42-.77-1-2.09-2.63-4.17-5.06L625.94,113.6h-.14v24.08c0,8.81.84,10.89,3.68,11.45l2.5.41c.28.14.42.35.42.84a4.22,4.22,0,0,1-.14,1c-2.78-.07-5-.21-7.77-.21s-4.86.14-7.5.21a4.22,4.22,0,0,1-.14-1c0-.49.14-.7.49-.84l2.15-.34c2.29-.35,2.78-2.43,2.78-11.18V112.56a6.46,6.46,0,0,0-1.46-4.58,4,4,0,0,0-3.19-1.81l-1.88-.21a.81.81,0,0,1-.48-.83,4.56,4.56,0,0,1,.21-1.18c1.87.07,3.26.21,5.06.21,1.53,0,4.65,0,6.59-.21a1.55,1.55,0,0,1,.77.35c1.59,2,3.4,4.44,6.87,8.47L657.93,140h.14V117.69c-.07-8.81-.83-10.89-3.67-11.45l-2.5-.41a.79.79,0,0,1-.56-.84,4,4,0,0,1,.21-1c2.78.07,5.07.21,7.84.21,2.57,0,4.72-.14,7.43-.21a4.22,4.22,0,0,1,.14,1c0,.49-.14.7-.49.84l-2.08.34c-2.29.35-2.78,2.57-2.78,11.18V139.2a115.64,115.64,0,0,0,.56,13.05A22.58,22.58,0,0,1,659.6,152.39Z" transform="translate(-81.66 -73.95)"/><path class="cls-1" d="M716.43,144.41c-5.2,5.2-12.28,6.8-18.87,6.8H683.47c-3.54,0-6,.14-8,.21a4.22,4.22,0,0,1-.14-1c0-.49.14-.7.49-.84l2.5-.41c1.87-.28,1.94-1.6,1.94-7.29V113.53c0-5.69-.07-6.94-1.94-7.36l-2.5-.41c-.35-.07-.49-.28-.49-.77a4.22,4.22,0,0,1,.14-1,69.34,69.34,0,0,0,7,.21c5,0,8.54-.83,12.63-.83,8.19,0,15.82,1.66,21.65,7.42a23.15,23.15,0,0,1,6.8,16.73A24,24,0,0,1,716.43,144.41ZM695.06,106.1a29.45,29.45,0,0,0-6.87.77c-.41.76-.76,2-.76,6.38v27.06c0,6.67,1.11,8.19,4.65,8.19h5.69c9.64,0,17.69-6.94,17.69-19.77C715.46,114.92,707.14,106.1,695.06,106.1Z" transform="translate(-81.66 -73.95)"/><path class="cls-1" d="M743.29,152.46A22,22,0,0,1,732,149.82a2,2,0,0,1-.48-.55c-.21-2-.56-6.81-1.11-9.3a3.49,3.49,0,0,1,1.18-.21c.55,0,.76.14.83.55,1.59,6.25,5.2,9.72,11.66,9.72,5.34,0,9.3-3.05,9.3-8.6,0-12.84-20.27-10.48-20.27-25.54,0-6.52,4.51-13,14.85-13a31,31,0,0,1,9,1.18,1.18,1.18,0,0,1,.49.56c.07,2,.55,5.34.83,7.7a1.68,1.68,0,0,1-1,.28c-.48,0-.76-.14-.83-.49-1.46-4.86-4.51-6.94-9.16-6.94s-8.4,3.06-8.4,7.64c0,11.17,21.38,11,21.38,25C760.23,147.25,751.83,152.46,743.29,152.46Z" transform="translate(-81.66 -73.95)"/><polygon class="cls-2" points="86.63 135.56 0 77.21 0 0 86.63 58.34 86.63 135.56"/><polygon class="cls-1" points="86.63 135.56 173.26 77.21 173.26 0 86.63 58.34 86.63 135.56"/><path class="cls-3" d="M403.75,194.62c0-2.93,1.61-3.92,5.6-3.92a24,24,0,0,1,3.34.25v-1.19c0-2-.67-3.49-3.44-3.49a3.79,3.79,0,0,0-3.59,1.83c-.18.31-.28.36-.61.23l-.61-.25c-.33-.13-.43-.31-.26-.66.9-1.68,2.55-2.68,5.12-2.68,4.05,0,5.09,2.29,5.09,5v6.67c0,.89-.2,1.15-.92,1.45a10.73,10.73,0,0,1-4.22.66C404.82,198.56,403.75,197.16,403.75,194.62Zm8.45,2.11c.38-.15.49-.25.49-.74V192.3a35.14,35.14,0,0,0-3.52-.23c-2.77,0-3.69.77-3.69,2.52s.64,2.55,3.64,2.55A8.48,8.48,0,0,0,412.2,196.73Z" transform="translate(-81.66 -73.95)"/><path class="cls-3" d="M419.63,195.41c-.12-.31-.05-.51.28-.61l.66-.23c.31-.1.46,0,.62.28.58,1.6,1.9,2.21,3.89,2.21,2.44,0,3.59-.84,3.59-2.31,0-1.81-1.48-2.12-3.69-2.35-2.57-.25-5.14-.61-5.14-3.84,0-2.34,1.68-3.82,5-3.82,2.93,0,4.45,1.1,5.19,2.78a.41.41,0,0,1-.23.66l-.63.28c-.36.13-.46.07-.64-.23-.53-1.17-1.45-2-3.66-2s-3.34.79-3.34,2.24c0,2,1.61,2.19,3.85,2.39,2.77.26,4.93.84,4.93,3.77,0,2.37-1.68,3.89-5.21,3.89C422.33,198.56,420.47,197.6,419.63,195.41Z" transform="translate(-81.66 -73.95)"/><path class="cls-3" d="M435.08,195.41c-.13-.31-.05-.51.28-.61l.66-.23c.31-.1.46,0,.61.28.59,1.6,1.91,2.21,3.9,2.21,2.44,0,3.59-.84,3.59-2.31,0-1.81-1.48-2.12-3.69-2.35-2.57-.25-5.14-.61-5.14-3.84,0-2.34,1.67-3.82,5-3.82,2.93,0,4.45,1.1,5.19,2.78a.41.41,0,0,1-.23.66l-.63.28c-.36.13-.46.07-.64-.23-.54-1.17-1.45-2-3.67-2s-3.33.79-3.33,2.24c0,2,1.6,2.19,3.84,2.39,2.78.26,4.94.84,4.94,3.77,0,2.37-1.68,3.89-5.22,3.89C437.78,198.56,435.92,197.6,435.08,195.41Z" transform="translate(-81.66 -73.95)"/><path class="cls-3" d="M450.76,193.42v-3.31c0-3.36,1.93-5.37,5.62-5.37S462,187,462,190v1.4c0,.43-.2.71-.76.71h-8.81v1.48c0,2.16,1.3,3.49,3.82,3.49a4.15,4.15,0,0,0,4-2.12.48.48,0,0,1,.74-.17l.53.28c.33.17.38.4.18.73-.89,1.61-2.52,2.75-5.47,2.75C452.46,198.56,450.76,196.48,450.76,193.42Zm9.57-2.62v-.89c0-2.27-1.33-3.69-3.95-3.69s-3.92,1.42-3.92,3.69v.89Z" transform="translate(-81.66 -73.95)"/><path class="cls-3" d="M468.88,193V186.7h-2.42c-.33,0-.46-.12-.46-.46v-.66c0-.35.13-.46.46-.46h2.42v-2.59c0-.36.13-.46.46-.46h.79c.35,0,.45.1.45.46v2.59h3.67c.36,0,.46.11.46.46v.66c0,.34-.1.46-.46.46h-3.67v6.24c0,3,.87,3.64,3.64,3.64.36,0,.46.13.46.46v.68c0,.36-.1.49-.46.49C470.25,198.21,468.88,197.11,468.88,193Z" transform="translate(-81.66 -73.95)"/><path class="cls-3" d="M489.14,197.75V187a1.3,1.3,0,0,1,1-1.45,9.51,9.51,0,0,1,4.13-.82,4.67,4.67,0,0,1,3.38,1.1,10,10,0,0,1,4.66-1.1c3.28,0,4.73,1.71,4.73,4.84v8.17c0,.36-.12.46-.46.46h-.78c-.36,0-.46-.1-.46-.46v-8.09c0-2.27-1-3.36-3.26-3.36a8,8,0,0,0-3.51.86,5.07,5.07,0,0,1,.51,2.42v8.17c0,.36-.13.46-.46.46h-.79c-.36,0-.46-.1-.46-.46v-8.09c0-2.27-1.09-3.36-3.31-3.36a6.31,6.31,0,0,0-2.75.53.65.65,0,0,0-.43.69v10.23c0,.36-.1.46-.46.46h-.79C489.26,198.21,489.14,198.11,489.14,197.75Z" transform="translate(-81.66 -73.95)"/><path class="cls-3" d="M512.58,194.62c0-2.93,1.6-3.92,5.59-3.92a23.89,23.89,0,0,1,3.34.25v-1.19c0-2-.66-3.49-3.44-3.49a3.79,3.79,0,0,0-3.59,1.83c-.17.31-.28.36-.61.23l-.61-.25c-.33-.13-.43-.31-.25-.66.89-1.68,2.54-2.68,5.11-2.68,4,0,5.09,2.29,5.09,5v6.67c0,.89-.2,1.15-.91,1.45a10.75,10.75,0,0,1-4.23.66C513.64,198.56,512.58,197.16,512.58,194.62Zm8.45,2.11c.38-.15.48-.25.48-.74V192.3a35.11,35.11,0,0,0-3.51-.23c-2.78,0-3.69.77-3.69,2.52s.63,2.55,3.64,2.55A8.55,8.55,0,0,0,521,196.73Z" transform="translate(-81.66 -73.95)"/><path class="cls-3" d="M529.37,197.75V187c0-.79.21-1.07,1-1.4a11.78,11.78,0,0,1,4.73-.87c3.49,0,5.07,1.86,5.07,5v8c0,.36-.13.46-.46.46h-.79c-.35,0-.46-.1-.46-.46v-8c0-2.29-1.09-3.48-3.56-3.48a9.87,9.87,0,0,0-3.38.58.58.58,0,0,0-.41.64v10.23c0,.36-.1.46-.46.46h-.79C529.5,198.21,529.37,198.11,529.37,197.75Z" transform="translate(-81.66 -73.95)"/><path class="cls-3" d="M545.74,194.62c0-2.93,1.6-3.92,5.6-3.92a23.85,23.85,0,0,1,3.33.25v-1.19c0-2-.66-3.49-3.44-3.49a3.76,3.76,0,0,0-3.58,1.83c-.18.31-.28.36-.61.23l-.62-.25c-.33-.13-.43-.31-.25-.66.89-1.68,2.54-2.68,5.12-2.68,4,0,5.08,2.29,5.08,5v6.67c0,.89-.2,1.15-.91,1.45a10.75,10.75,0,0,1-4.23.66C546.81,198.56,545.74,197.16,545.74,194.62Zm8.45,2.11c.38-.15.48-.25.48-.74V192.3a35.11,35.11,0,0,0-3.51-.23c-2.78,0-3.69.77-3.69,2.52s.63,2.55,3.64,2.55A8.55,8.55,0,0,0,554.19,196.73Z" transform="translate(-81.66 -73.95)"/><path class="cls-3" d="M562.43,201.77c-.2-.36-.13-.58.21-.74l.53-.3c.38-.21.53-.13.74.18a3.62,3.62,0,0,0,3.59,2c2.59,0,3.71-1.45,3.71-3.87v-1.58a11.47,11.47,0,0,1-4,.77c-3.49,0-5-1.86-5-5V190c0-3.38,1.76-5.22,5.5-5.22a11.35,11.35,0,0,1,4.3.77c.82.35,1,.56,1,1.4V199c0,3.3-1.53,5.49-5.37,5.49C564.8,204.49,563.32,203.4,562.43,201.77Zm8.78-5.83v-8.47c0-.41-.05-.49-.48-.67a8.89,8.89,0,0,0-3-.5c-2.65,0-3.89,1.24-3.89,3.69v3.25c0,2.22,1.14,3.47,3.53,3.47A10.36,10.36,0,0,0,571.21,195.94Z" transform="translate(-81.66 -73.95)"/><path class="cls-3" d="M578.69,193.42v-3.31c0-3.36,1.94-5.37,5.63-5.37S590,187,590,190v1.4c0,.43-.2.71-.76.71H580.4v1.48c0,2.16,1.3,3.49,3.82,3.49a4.14,4.14,0,0,0,4-2.12c.23-.3.41-.35.74-.17l.54.28c.33.17.38.4.17.73-.89,1.61-2.52,2.75-5.47,2.75C580.4,198.56,578.69,196.48,578.69,193.42Zm9.57-2.62v-.89c0-2.27-1.32-3.69-3.94-3.69s-3.92,1.42-3.92,3.69v.89Z" transform="translate(-81.66 -73.95)"/><path class="cls-3" d="M595.59,197.75V187a1.31,1.31,0,0,1,1-1.45,9.46,9.46,0,0,1,4.12-.82,4.68,4.68,0,0,1,3.39,1.1,10,10,0,0,1,4.66-1.1c3.28,0,4.73,1.71,4.73,4.84v8.17c0,.36-.13.46-.46.46h-.79c-.35,0-.46-.1-.46-.46v-8.09c0-2.27-1-3.36-3.25-3.36a8,8,0,0,0-3.52.86,5,5,0,0,1,.51,2.42v8.17c0,.36-.12.46-.45.46h-.79c-.36,0-.46-.1-.46-.46v-8.09c0-2.27-1.1-3.36-3.31-3.36a6.31,6.31,0,0,0-2.75.53.65.65,0,0,0-.43.69v10.23c0,.36-.1.46-.46.46h-.79C595.72,198.21,595.59,198.11,595.59,197.75Z" transform="translate(-81.66 -73.95)"/><path class="cls-3" d="M619.29,193.42v-3.31c0-3.36,1.93-5.37,5.62-5.37s5.65,2.22,5.65,5.27v1.4c0,.43-.2.71-.76.71H621v1.48c0,2.16,1.3,3.49,3.82,3.49a4.15,4.15,0,0,0,4-2.12c.23-.3.4-.35.73-.17l.54.28c.33.17.38.4.18.73-.89,1.61-2.52,2.75-5.48,2.75C621,198.56,619.29,196.48,619.29,193.42Zm9.57-2.62v-.89c0-2.27-1.33-3.69-4-3.69s-3.92,1.42-3.92,3.69v.89Z" transform="translate(-81.66 -73.95)"/><path class="cls-3" d="M636,197.75V187c0-.79.21-1.07,1-1.4a11.78,11.78,0,0,1,4.73-.87c3.49,0,5.07,1.86,5.07,5v8c0,.36-.13.46-.46.46h-.79c-.35,0-.46-.1-.46-.46v-8c0-2.29-1.09-3.48-3.56-3.48a9.87,9.87,0,0,0-3.38.58.58.58,0,0,0-.41.64v10.23c0,.36-.1.46-.46.46h-.79C636.16,198.21,636,198.11,636,197.75Z" transform="translate(-81.66 -73.95)"/><path class="cls-3" d="M653.7,193V186.7h-2.42c-.33,0-.46-.12-.46-.46v-.66c0-.35.13-.46.46-.46h2.42v-2.59c0-.36.12-.46.45-.46h.79c.36,0,.46.1.46.46v2.59h3.67c.35,0,.45.11.45.46v.66c0,.34-.1.46-.45.46H655.4v6.24c0,3,.87,3.64,3.64,3.64.36,0,.46.13.46.46v.68c0,.36-.1.49-.46.49C655.07,198.21,653.7,197.11,653.7,193Z" transform="translate(-81.66 -73.95)"/></svg>