<?xml version="1.0" encoding="UTF-8"?>
<svg id="Ebene_1" xmlns="http://www.w3.org/2000/svg" version="1.1" viewBox="0 0 158.12 158.12">
  <!-- Generator: Adobe Illustrator 29.1.0, SVG Export Plug-In . SVG Version: 2.1.0 Build 142)  -->
  <defs>
    <style>
      .st0 {
        fill: #0075bf;
      }

      .st1 {
        fill: #fff;
      }
    </style>
  </defs>
  <path class="st0" d="M88.654,123.632c-.652.139-.952.489-.843,1.001.108.513.446.72,1.169.565.583-.124.896-.308.983-.378l-.085-.4c-.139-.652-.558-.93-1.225-.788Z"/>
  <path class="st0" d="M68.294,34.563c.75-.181,1.084-.647.92-1.325l-.317-1.314c-.164-.678-.666-.942-1.423-.76l-.957.231.821,3.399.956-.231Z"/>
  <path class="st0" d="M91.03,100.422h-2.074v2.447h2.074c.791,0,1.238-.448,1.238-1.224s-.433-1.224-1.238-1.224Z"/>
  <path class="st0" d="M79.06,22.367c-31.311,0-56.693,25.382-56.693,56.693s25.382,56.693,56.693,56.693,56.693-25.382,56.693-56.693-25.382-56.693-56.693-56.693ZM105.956,42.827l2.499-3.267-1.017-.778c-.146-.112-.158-.205-.047-.351l.219-.287c.112-.146.205-.158.352-.046l2.764,2.115c.152.116.158.205.047.351l-.219.286c-.112.146-.199.163-.351.047l-1.018-.778-2.499,3.267c-.111.146-.198.163-.351.047l-.333-.255c-.146-.112-.158-.205-.047-.351ZM98.887,38.447l2.263-4.144c.088-.161.171-.191.339-.1l1.788.977c.891.486,1.157,1.318.671,2.209-.367.671-.93.95-1.558.842.038.113.054.239.048.387l-.033,1.75c.004.161-.068.248-.229.159l-.375-.204c-.271-.148-.344-.23-.333-.434l.063-1.39c.02-.45-.082-.632-.527-.875l-.478-.261-.832,1.523c-.088.161-.172.191-.34.1l-.367-.201c-.168-.091-.188-.178-.1-.339ZM92.745,35.984l1.597-4.438c.062-.173.14-.215.319-.151l2.751.99c.173.062.213.146.15.319l-.122.339c-.062.173-.146.212-.319.15l-2.122-.764-.436,1.21,1.791.644c.18.064.212.147.15.319l-.122.339c-.062.173-.14.215-.319.15l-1.791-.644-.457,1.272,2.198.791c.173.062.212.147.15.32l-.122.339c-.063.173-.146.212-.319.15l-2.827-1.018c-.18-.064-.213-.146-.15-.319ZM84.588,29.134l.508.086c.202.035.283.086.289.273l.133,2.805c.008.262-.036.866-.05.991l.044.007c.033-.151.189-.676.311-.946l1.189-2.557c.081-.173.182-.193.37-.161l.385.065c.188.032.283.085.296.274l.253,2.803c.034.326.003.858-.006.999l.043.007c.027-.115.182-.67.288-.943l1.042-2.612c.067-.175.16-.196.363-.162l.442.075c.181.031.19.107.118.267l-1.998,4.5c-.073.167-.172.179-.339.151l-.398-.068c-.167-.028-.263-.082-.271-.248l-.263-3.006c-.019-.242-.017-.562.017-.84l-.044-.007c-.062.273-.162.554-.269.79l-1.259,2.747c-.073.167-.166.181-.34.151l-.391-.067c-.167-.028-.264-.075-.271-.248l-.393-4.915c-.015-.174.02-.243.2-.212ZM73.472,29.215l2.915-.243c.183-.016.254.045.27.228l.03.359c.015.183-.046.255-.229.27l-2.249.187.107,1.282,1.896-.158c.19-.016.255.045.271.228l.029.359c.016.183-.038.254-.229.27l-1.896.158.112,1.348,2.329-.194c.183-.015.254.045.27.228l.03.359c.015.183-.046.254-.229.27l-2.995.25c-.191.016-.255-.045-.271-.228l-.392-4.702c-.016-.183.038-.254.229-.27ZM65.665,30.716l1.6-.386c1.328-.321,2.245.221,2.526,1.385l.313,1.3c.281,1.164-.287,2.064-1.615,2.385l-1.6.386c-.186.045-.259-.006-.302-.184l-1.106-4.584c-.044-.179-.002-.257.184-.302ZM61.03,32.281l.392-.149c.179-.068.257-.028.323.144l1.685,4.408c.065.172.034.254-.145.323l-.392.149c-.178.068-.257.028-.322-.144l-1.685-4.408c-.066-.172-.034-.254.144-.323ZM54.756,35.215l.37-.196c.169-.089.252-.058.338.104l1.919,3.634,1.866-.985c.169-.089.252-.058.337.104l.169.318c.086.163.064.249-.104.338l-2.457,1.298c-.169.089-.252.058-.338-.104l-2.204-4.173c-.086-.162-.064-.249.104-.337ZM49.404,38.546c1.089-.803,2.129-.656,2.832.297l.951,1.291c.702.954.535,1.991-.555,2.793-1.089.803-2.129.656-2.832-.297l-.951-1.291c-.702-.954-.535-1.991.555-2.793ZM44.951,48.189c-.173-.087-.204-.17-.117-.342l.173-.387c.082-.167.154-.188.332-.117.444.167.891.07,1.293-.339.531-.541.652-1,.274-1.371-.362-.356-.817-.05-1.304.35-.697.574-1.565,1.258-2.483.355-.667-.655-.67-1.618.264-2.568.731-.745,1.382-.86,2.144-.596.183.056.215.149.148.332l-.163.418c-.061.167-.128.193-.311.138-.418-.131-.781-.086-1.188.328-.506.514-.596.921-.271,1.241.378.372.869.008,1.391-.418.677-.552,1.53-1.117,2.407-.255.698.686.655,1.686-.294,2.651-.8.813-1.517.924-2.295.582ZM46.276,55.685h25.461v9.324h-25.461v-9.324ZM71.737,65.106v12.561l-17.538,17.2v-12.465l17.538-17.296ZM48.949,106.615c-.164-.419-.045-.627.373-.776l1.134-.403c.433-.149.596-.074.791.373.283.672.672,1.015,1.432,1.015,1.015,0,1.522-.523,1.522-1.597v-6.416c0-.448.134-.597.582-.597h1.238c.448,0,.597.15.597.597v6.402c0,2.372-1.358,3.82-3.954,3.82-1.97,0-3.164-.881-3.716-2.417ZM58.779,120.222c-.003.187-.082.241-.271.229l-.437-.041c-.173-.012-.216-.068-.213-.255.012-.428-.129-.757-.628-1.028-.619-.337-1.025-.312-1.238.08-.247.455.227.818.768,1.194.7.486,1.46,1.137.887,2.191-.457.841-1.407,1.068-2.569.438-.979-.532-1.276-1.177-1.164-2,.035-.185.104-.237.29-.202l.41.06c.179.031.219.094.199.28-.038.462.173.854.666,1.123.65.354,1.114.344,1.361-.111.237-.436-.173-.781-.679-1.13-.726-.501-1.602-1.133-1.001-2.238.436-.802,1.339-1.064,2.482-.442.897.487,1.18,1.066,1.137,1.854ZM64.999,121.964l-.121.33c-.062.168-.146.206-.313.144l-2.066-.764-.435,1.178,1.742.645c.175.064.207.145.145.313l-.122.329c-.062.169-.139.209-.313.145l-1.742-.645-.458,1.238,2.14.791c.168.062.206.146.145.313l-.122.33c-.062.168-.146.206-.313.144l-2.752-1.017c-.175-.065-.207-.146-.145-.313l1.597-4.32c.062-.168.139-.209.313-.145l2.679.99c.168.062.206.146.144.313ZM67.654,127.448c-.042.174-.113.223-.294.179l-.397-.096c-.182-.045-.223-.121-.18-.295l1.087-4.478c.043-.174.113-.223.295-.179l.397.097c.182.044.222.12.18.294l-1.088,4.478ZM69.282,108.808h-1.119c-.745,0-.97-.12-1.089-.552l-.478-1.418h-3.686l-.478,1.418c-.149.432-.343.552-1.089.552h-1.029c-.448,0-.536-.194-.388-.597l3.551-9.49c.149-.418.329-.508.746-.508h1.149c.418,0,.612.09.745.478l3.567,9.52c.149.403.044.597-.403.597ZM75.329,124.391c-.022.179-.087.235-.272.212l-1.239-.153-.495,3.983c-.022.178-.087.235-.272.212l-.406-.051c-.178-.021-.234-.094-.212-.272l.494-3.983-1.239-.153c-.179-.022-.234-.095-.213-.272l.044-.35c.022-.178.094-.234.272-.212l3.37.419c.186.022.234.094.212.272l-.043.349ZM80.051,108.808c-.463,0-.612-.149-.612-.612v-3.641h-3.597v3.641c0,.463-.163.612-.611.612h-1.209c-.448,0-.612-.149-.612-.612v-9.371c0-.462.164-.612.612-.612h1.209c.448,0,.611.15.611.612v3.507h3.597v-3.507c0-.462.149-.612.612-.612h1.208c.448,0,.597.15.597.612v9.371c0,.463-.15.612-.597.612h-1.208ZM83.855,128.78l-.407.032c-.18.014-.249-.046-.263-.225l-.296-3.75-.951.637c-.185.123-.281.087-.379-.063l-.205-.308c-.098-.151-.062-.233.089-.339l1.332-.911c.13-.09.186-.115.343-.128l.337-.026c.186-.015.248.045.263.224l.362,4.595c.014.179-.038.248-.225.263ZM89.586,128.005c-.962.205-1.63-.071-2.047-.724-.106-.153-.072-.234.081-.34l.344-.213c.153-.105.226-.077.333.083.242.345.595.482,1.114.372.659-.141.938-.56.797-1.219l-.067-.316c-.171.095-.505.247-1.046.362-1.242.265-1.937-.138-2.161-1.19-.211-.99.366-1.759,1.546-2.01,1.242-.265,2.045.298,2.285,1.429l.326,1.529c.244,1.145-.27,1.973-1.505,2.236ZM92.148,108.226l-1.104-2.298c-.329-.687-.612-.881-1.477-.881h-.612v3.148c0,.463-.164.612-.612.612h-1.209c-.448,0-.612-.149-.612-.612v-9.371c0-.462.164-.612.612-.612h4.149c2.149,0,3.507,1.269,3.507,3.432,0,1.492-.627,2.552-1.716,3.059.104.163.193.343.298.522l1.537,2.939c.194.359.134.642-.313.642h-1.194c-.761,0-1.029-.12-1.254-.582ZM96.668,125.938c-1.01.376-1.706.19-2.231-.419-.114-.141-.102-.23.033-.342l.32-.271c.139-.121.219-.112.349.031.293.335.658.429,1.229.217.472-.176.7-.59.51-1.102-.167-.451-.589-.616-1.066-.438l-1.42.528c-.202.075-.286.015-.343-.179l-.526-2.033c-.065-.26-.008-.373.248-.468l2.355-.876c.168-.062.251-.024.313.144l.122.33c.063.168.025.251-.144.313l-1.931.719.267,1.026.821-.305c1.11-.413,1.884.08,2.191.908.32.861-.022,1.815-1.099,2.216ZM103.224,122.931c-.945.518-1.662.435-2.271-.092-.133-.124-.133-.214-.016-.344l.277-.315c.12-.14.201-.143.35-.02.339.289.714.33,1.249.037.441-.241.608-.685.346-1.164-.23-.422-.672-.524-1.119-.279l-1.33.728c-.188.104-.28.055-.364-.128l-.814-1.938c-.103-.247-.062-.367.178-.499l2.205-1.206c.158-.087.245-.061.332.097l.169.309c.086.157.061.245-.098.332l-1.809.989.413.979.769-.421c1.04-.569,1.877-.192,2.301.583.441.807.24,1.801-.768,2.353ZM106.593,108.196c0,.463-.15.612-.612.612h-6.149c-.448,0-.612-.149-.612-.612v-9.371c0-.462.164-.612.612-.612h6.014c.448,0,.596.15.596.612v1c0,.448-.149.596-.596.596h-4.193v1.925h3.431c.463,0,.612.149.612.596v.999c0,.463-.149.612-.612.612h-3.431v2.044h4.328c.462,0,.612.15.612.597v.999ZM94.46,92.422c-10.706,0-19.385-8.679-19.385-19.385s8.679-19.385,19.385-19.385,19.385,8.679,19.385,19.385-8.679,19.385-19.385,19.385ZM115.899,45.487l-.258.251c-.132.128-.226.127-.354-.005l-1.574-1.616-.921.897,1.328,1.363c.133.137.127.225-.005.354l-.258.251c-.132.128-.221.132-.354-.004l-1.328-1.364-.969.943,1.631,1.674c.128.131.127.225-.005.353l-.258.251c-.132.128-.226.127-.354-.005l-2.097-2.153c-.134-.137-.127-.225.005-.354l3.379-3.292c.132-.128.221-.132.354.005l2.041,2.095c.128.131.127.225-.005.353Z"/>
  <path class="st0" d="M103.102,36.928c.232-.426.117-.799-.315-1.035l-1.123-.614-.726,1.33,1.123.613c.433.236.805.138,1.041-.295Z"/>
  <path class="st0" d="M64.82,100.437h-.134s0,1.044-.358,2.119l-.776,2.328h2.417l-.776-2.313c-.343-1.074-.373-2.133-.373-2.133Z"/>
  <path class="st0" d="M50.552,42.086c.405.55.961.598,1.571.148.609-.45.729-.995.323-1.545l-.961-1.303c-.405-.55-.961-.598-1.571-.148-.609.45-.729.995-.323,1.545l.961,1.303Z"/>
  <path class="st0" d="M94.46,61.853c-6.167,0-11.184,5.017-11.184,11.184s5.017,11.184,11.184,11.184,11.184-5.017,11.184-11.184-5.017-11.184-11.184-11.184Z"/>
  <polygon class="st1" points="71.737 77.667 71.737 65.106 54.199 82.402 54.199 94.867 71.737 77.667"/>
  <rect class="st1" x="46.276" y="55.685" width="25.461" height="9.324"/>
  <path class="st1" d="M94.46,53.652c-10.706,0-19.385,8.679-19.385,19.385s8.679,19.385,19.385,19.385,19.385-8.679,19.385-19.385-8.679-19.385-19.385-19.385ZM94.46,84.22c-6.167,0-11.184-5.017-11.184-11.184s5.017-11.184,11.184-11.184,11.184,5.017,11.184,11.184-5.017,11.184-11.184,11.184Z"/>
  <path class="st1" d="M56.619,105.212v-6.402c0-.448-.15-.597-.597-.597h-1.238c-.448,0-.582.15-.582.597v6.416c0,1.074-.507,1.597-1.522,1.597-.761,0-1.149-.343-1.432-1.015-.194-.448-.358-.522-.791-.373l-1.134.403c-.419.149-.537.358-.373.776.552,1.537,1.746,2.417,3.716,2.417,2.596,0,3.954-1.448,3.954-3.82Z"/>
  <path class="st1" d="M66.118,98.69c-.133-.388-.328-.478-.745-.478h-1.149c-.418,0-.597.09-.746.508l-3.551,9.49c-.149.403-.06.597.388.597h1.029c.746,0,.94-.12,1.089-.552l.478-1.418h3.686l.478,1.418c.12.432.344.552,1.089.552h1.119c.447,0,.552-.194.403-.597l-3.567-9.52ZM63.552,104.883l.776-2.328c.358-1.075.358-2.119.358-2.119h.134s.03,1.059.373,2.133l.776,2.313h-2.417Z"/>
  <path class="st1" d="M81.857,108.196v-9.371c0-.462-.15-.612-.597-.612h-1.208c-.463,0-.612.15-.612.612v3.507h-3.597v-3.507c0-.462-.163-.612-.611-.612h-1.209c-.448,0-.612.15-.612.612v9.371c0,.463.164.612.612.612h1.209c.448,0,.611-.149.611-.612v-3.641h3.597v3.641c0,.463.149.612.612.612h1.208c.448,0,.597-.149.597-.612Z"/>
  <path class="st1" d="M94.909,108.166l-1.537-2.939c-.104-.179-.193-.359-.298-.522,1.088-.507,1.716-1.567,1.716-3.059,0-2.163-1.358-3.432-3.507-3.432h-4.149c-.448,0-.612.15-.612.612v9.371c0,.463.164.612.612.612h1.209c.448,0,.612-.149.612-.612v-3.148h.612c.865,0,1.148.193,1.477.881l1.104,2.298c.224.462.493.582,1.254.582h1.194c.448,0,.507-.283.313-.642ZM91.03,102.869h-2.074v-2.447h2.074c.805,0,1.238.448,1.238,1.224s-.448,1.224-1.238,1.224Z"/>
  <path class="st1" d="M105.981,106.599h-4.328v-2.044h3.431c.463,0,.612-.149.612-.612v-.999c0-.448-.149-.596-.612-.596h-3.431v-1.925h4.193c.448,0,.596-.149.596-.596v-1c0-.462-.149-.612-.596-.612h-6.014c-.448,0-.612.15-.612.612v9.371c0,.463.164.612.612.612h6.149c.462,0,.612-.149.612-.612v-.999c0-.448-.15-.597-.612-.597Z"/>
  <path class="st1" d="M47.54,44.955c-.877-.861-1.73-.297-2.407.255-.521.426-1.013.79-1.391.418-.325-.32-.235-.727.271-1.241.407-.415.771-.459,1.188-.328.183.056.25.029.311-.138l.163-.418c.066-.183.034-.276-.148-.332-.762-.264-1.412-.149-2.144.596-.934.95-.931,1.913-.264,2.568.918.903,1.786.219,2.483-.355.486-.399.941-.706,1.304-.35.378.372.257.831-.274,1.371-.402.409-.849.507-1.293.339-.178-.071-.25-.05-.332.117l-.173.387c-.087.172-.056.255.117.342.778.342,1.495.231,2.295-.582.949-.966.992-1.965.294-2.651Z"/>
  <path class="st1" d="M49.801,42.63c.703.953,1.743,1.1,2.832.297,1.09-.803,1.257-1.84.555-2.793l-.951-1.291c-.703-.953-1.743-1.1-2.832-.297-1.09.803-1.257,1.84-.555,2.793l.951,1.291ZM49.914,39.239c.61-.449,1.166-.402,1.571.148l.961,1.303c.405.55.286,1.095-.323,1.545-.61.449-1.166.402-1.571-.148l-.961-1.303c-.405-.55-.286-1.095.323-1.545Z"/>
  <path class="st1" d="M56.856,39.726c.086.163.169.193.338.104l2.457-1.298c.169-.089.19-.175.104-.338l-.169-.318c-.085-.163-.168-.194-.337-.104l-1.866.985-1.919-3.634c-.086-.162-.169-.193-.338-.104l-.37.196c-.169.089-.19.175-.104.337l2.204,4.173Z"/>
  <path class="st1" d="M61.948,32.034h.419c.138,0,.25.112.25.25v4.718c0,.138-.112.251-.251.251h-.418c-.138,0-.25-.112-.25-.25v-4.719c0-.138.112-.25.25-.25Z" transform="translate(-8.266 24.434) rotate(-20.884)"/>
  <path class="st1" d="M66.89,35.786l1.6-.386c1.328-.321,1.896-1.221,1.615-2.385l-.313-1.3c-.281-1.164-1.198-1.706-2.526-1.385l-1.6.386c-.186.045-.228.123-.184.302l1.106,4.584c.043.178.116.229.302.184ZM67.474,31.164c.757-.183,1.259.082,1.423.76l.317,1.314c.164.678-.17,1.145-.92,1.325l-.956.231-.821-3.399.957-.231Z"/>
  <path class="st1" d="M73.905,34.415l2.995-.25c.183-.015.243-.087.229-.27l-.03-.359c-.016-.183-.087-.243-.27-.228l-2.329.194-.112-1.348,1.896-.158c.19-.016.244-.087.229-.27l-.029-.359c-.016-.183-.08-.244-.271-.228l-1.896.158-.107-1.282,2.249-.187c.183-.015.243-.087.229-.27l-.03-.359c-.016-.183-.087-.244-.27-.228l-2.915.243c-.19.016-.244.087-.229.27l.392,4.702c.016.183.079.244.271.228Z"/>
  <path class="st1" d="M85.052,34.509l.391.067c.174.03.267.016.34-.151l1.259-2.747c.106-.235.207-.517.269-.79l.044.007c-.033.278-.035.598-.017.84l.263,3.006c.009.166.104.219.271.248l.398.068c.167.028.266.016.339-.151l1.998-4.5c.072-.159.062-.235-.118-.267l-.442-.075c-.203-.035-.296-.013-.363.162l-1.042,2.612c-.106.272-.261.828-.288.943l-.043-.007c.009-.141.04-.672.006-.999l-.253-2.803c-.013-.189-.108-.242-.296-.274l-.385-.065c-.188-.032-.289-.012-.37.161l-1.189,2.557c-.121.271-.277.795-.311.946l-.044-.007c.014-.125.058-.729.05-.991l-.133-2.805c-.006-.187-.087-.238-.289-.273l-.508-.086c-.181-.031-.215.038-.2.212l.393,4.915c.008.173.104.219.271.248Z"/>
  <path class="st1" d="M95.723,37.321c.173.062.257.022.319-.15l.122-.339c.062-.173.022-.257-.15-.32l-2.198-.791.457-1.272,1.791.644c.18.065.257.022.319-.15l.122-.339c.062-.172.029-.255-.15-.319l-1.791-.644.436-1.21,2.122.764c.173.062.258.022.319-.15l.122-.339c.062-.173.022-.257-.15-.319l-2.751-.99c-.18-.064-.258-.022-.319.151l-1.597,4.438c-.062.173-.029.255.15.319l2.827,1.018Z"/>
  <path class="st1" d="M99.354,38.988c.168.091.252.062.34-.1l.832-1.523.478.261c.445.243.547.425.527.875l-.063,1.39c-.011.204.062.285.333.434l.375.204c.161.088.233.002.229-.159l.033-1.75c.006-.148-.01-.273-.048-.387.628.108,1.19-.171,1.558-.842.486-.891.22-1.723-.671-2.209l-1.788-.977c-.168-.092-.251-.062-.339.1l-2.263,4.144c-.089.162-.068.248.1.339l.367.201ZM101.663,35.28l1.123.614c.433.236.548.609.315,1.035-.236.433-.608.531-1.041.295l-1.123-.613.726-1.33Z"/>
  <path class="st1" d="M106.336,43.432c.152.116.239.1.351-.047l2.499-3.267,1.018.778c.151.116.238.1.351-.047l.219-.286c.111-.146.105-.234-.047-.351l-2.764-2.115c-.146-.112-.239-.1-.352.046l-.219.287c-.111.146-.1.239.047.351l1.017.778-2.499,3.267c-.111.146-.1.239.047.351l.333.255Z"/>
  <path class="st1" d="M113.862,43.038c-.133-.137-.222-.133-.354-.005l-3.379,3.292c-.132.128-.139.216-.005.354l2.097,2.153c.128.132.222.133.354.005l.258-.251c.132-.128.133-.222.005-.353l-1.631-1.674.969-.943,1.328,1.364c.133.137.222.133.354.004l.258-.251c.132-.128.138-.217.005-.354l-1.328-1.363.921-.897,1.574,1.616c.128.132.222.133.354.005l.258-.251c.132-.128.133-.222.005-.353l-2.041-2.095Z"/>
  <path class="st1" d="M57.643,118.368c-1.144-.622-2.047-.359-2.482.442-.601,1.105.275,1.737,1.001,2.238.506.349.916.694.679,1.13-.247.455-.711.465-1.361.111-.493-.269-.704-.661-.666-1.123.02-.187-.021-.249-.199-.28l-.41-.06c-.186-.035-.255.018-.29.202-.112.823.185,1.468,1.164,2,1.162.631,2.112.403,2.569-.438.573-1.055-.187-1.705-.887-2.191-.541-.376-1.015-.739-.768-1.194.213-.392.619-.417,1.238-.08.499.271.64.601.628,1.028-.003.187.04.243.213.255l.437.041c.189.013.269-.042.271-.229.043-.787-.239-1.366-1.137-1.854Z"/>
  <path class="st1" d="M62.177,120.66c-.175-.064-.251-.023-.313.145l-1.597,4.32c-.062.168-.03.248.145.313l2.752,1.017c.168.062.251.024.313-.144l.122-.33c.062-.168.023-.251-.145-.313l-2.14-.791.458-1.238,1.742.645c.175.064.251.024.313-.145l.122-.329c.062-.169.03-.249-.145-.313l-1.742-.645.435-1.178,2.066.764c.168.062.251.024.313-.144l.121-.33c.062-.168.024-.251-.144-.313l-2.679-.99Z"/>
  <path class="st1" d="M65.458,124.655h4.607c.135,0,.244.109.244.244v.409c0,.135-.109.244-.244.244h-4.607c-.135,0-.244-.109-.244-.244v-.41c0-.134.109-.243.243-.243Z" transform="translate(-69.813 161.377) rotate(-76.329)"/>
  <path class="st1" d="M75.16,123.769l-3.37-.419c-.179-.022-.25.034-.272.212l-.044.35c-.021.178.034.25.213.272l1.239.153-.494,3.983c-.022.179.034.251.212.272l.406.051c.186.023.25-.034.272-.212l.495-3.983,1.239.153c.186.023.25-.033.272-.212l.043-.349c.022-.179-.026-.25-.212-.272Z"/>
  <path class="st1" d="M83.454,123.699l-.337.026c-.157.013-.213.038-.343.128l-1.332.911c-.15.105-.187.188-.089.339l.205.308c.098.15.194.187.379.063l.951-.637.296,3.75c.014.179.083.238.263.225l.407-.032c.187-.015.238-.084.225-.263l-.362-4.595c-.015-.179-.077-.238-.263-.224Z"/>
  <path class="st1" d="M90.765,124.239c-.24-1.131-1.043-1.693-2.285-1.429-1.18.251-1.757,1.02-1.546,2.01.225,1.053.919,1.455,2.161,1.19.541-.115.875-.268,1.046-.362l.067.316c.141.659-.138,1.078-.797,1.219-.52.11-.872-.027-1.114-.372-.107-.16-.18-.188-.333-.083l-.344.213c-.153.105-.188.187-.081.34.417.652,1.085.929,2.047.724,1.235-.264,1.749-1.092,1.505-2.236l-.326-1.529ZM88.981,125.198c-.723.154-1.061-.053-1.169-.565-.109-.512.19-.862.843-1.001.667-.142,1.086.136,1.225.788l.085.4c-.088.07-.4.254-.983.378Z"/>
  <path class="st1" d="M95.575,122.814l-.821.305-.267-1.026,1.931-.719c.169-.062.207-.146.144-.313l-.122-.33c-.062-.168-.146-.206-.313-.144l-2.355.876c-.256.095-.313.208-.248.468l.526,2.033c.057.193.141.254.343.179l1.42-.528c.478-.178.899-.013,1.066.438.19.512-.038.926-.51,1.102-.571.212-.937.118-1.229-.217-.13-.144-.21-.152-.349-.031l-.32.271c-.135.111-.147.201-.033.342.525.609,1.222.795,2.231.419,1.076-.4,1.419-1.354,1.099-2.216-.308-.828-1.081-1.321-2.191-.908Z"/>
  <path class="st1" d="M101.691,119.995l-.769.421-.413-.979,1.809-.989c.158-.087.184-.175.098-.332l-.169-.309c-.087-.157-.174-.184-.332-.097l-2.205,1.206c-.24.132-.28.252-.178.499l.814,1.938c.084.183.176.231.364.128l1.33-.728c.447-.245.889-.143,1.119.279.263.479.096.923-.346,1.164-.535.293-.91.252-1.249-.037-.148-.123-.229-.12-.35.02l-.277.315c-.117.13-.117.22.016.344.608.526,1.325.609,2.271.092,1.008-.552,1.209-1.546.768-2.353-.424-.775-1.261-1.152-2.301-.583Z"/>
</svg>